%TF.GenerationSoftware,KiCad,Pcbnew,7.0.8*%
%TF.CreationDate,2024-01-07T19:03:19+09:00*%
%TF.ProjectId,coolpad29,636f6f6c-7061-4643-9239-2e6b69636164,rev?*%
%TF.SameCoordinates,Original*%
%TF.FileFunction,Legend,Bot*%
%TF.FilePolarity,Positive*%
%FSLAX46Y46*%
G04 Gerber Fmt 4.6, Leading zero omitted, Abs format (unit mm)*
G04 Created by KiCad (PCBNEW 7.0.8) date 2024-01-07 19:03:19*
%MOMM*%
%LPD*%
G01*
G04 APERTURE LIST*
%ADD10C,0.250000*%
G04 APERTURE END LIST*
D10*
G36*
X37640607Y-33059706D02*
G01*
X38018695Y-33059706D01*
X38023450Y-33083514D01*
X38027928Y-33102836D01*
X38033788Y-33124287D01*
X38041316Y-33147329D01*
X38050800Y-33171419D01*
X38062525Y-33196019D01*
X38076780Y-33220588D01*
X38093851Y-33244585D01*
X38114025Y-33267470D01*
X38137588Y-33288704D01*
X38164829Y-33307746D01*
X38196033Y-33324055D01*
X38231489Y-33337092D01*
X38250900Y-33342214D01*
X38271481Y-33346316D01*
X38293269Y-33349329D01*
X38316299Y-33351187D01*
X38340607Y-33351821D01*
X38366503Y-33350977D01*
X38391177Y-33348493D01*
X38414656Y-33344441D01*
X38436965Y-33338893D01*
X38458132Y-33331920D01*
X38478181Y-33323594D01*
X38497140Y-33313987D01*
X38515034Y-33303171D01*
X38531890Y-33291216D01*
X38547734Y-33278196D01*
X38562592Y-33264182D01*
X38576491Y-33249245D01*
X38589456Y-33233457D01*
X38601514Y-33216890D01*
X38612690Y-33199616D01*
X38623012Y-33181706D01*
X38632506Y-33163232D01*
X38641197Y-33144266D01*
X38649111Y-33124880D01*
X38656276Y-33105145D01*
X38662717Y-33085133D01*
X38668461Y-33064916D01*
X38673533Y-33044566D01*
X38677959Y-33024154D01*
X38681767Y-33003752D01*
X38684982Y-32983431D01*
X38687631Y-32963264D01*
X38689739Y-32943323D01*
X38691334Y-32923678D01*
X38693084Y-32885566D01*
X38693293Y-32867243D01*
X38692725Y-32837486D01*
X38691046Y-32808666D01*
X38688292Y-32780782D01*
X38684499Y-32753836D01*
X38679703Y-32727828D01*
X38673941Y-32702759D01*
X38667249Y-32678629D01*
X38659664Y-32655439D01*
X38651222Y-32633189D01*
X38641958Y-32611879D01*
X38631910Y-32591511D01*
X38621114Y-32572085D01*
X38609605Y-32553601D01*
X38597422Y-32536060D01*
X38584598Y-32519463D01*
X38571172Y-32503810D01*
X38557179Y-32489101D01*
X38542655Y-32475337D01*
X38527638Y-32462519D01*
X38496266Y-32439721D01*
X38463353Y-32420713D01*
X38429190Y-32405498D01*
X38394068Y-32394080D01*
X38358276Y-32386463D01*
X38322106Y-32382653D01*
X38303970Y-32382177D01*
X38273615Y-32383548D01*
X38244517Y-32387583D01*
X38216754Y-32394165D01*
X38190405Y-32403174D01*
X38165547Y-32414493D01*
X38142258Y-32428004D01*
X38120616Y-32443588D01*
X38100699Y-32461128D01*
X38082586Y-32480506D01*
X38066353Y-32501603D01*
X38052080Y-32524301D01*
X38039844Y-32548483D01*
X38029724Y-32574030D01*
X38021796Y-32600825D01*
X38016140Y-32628748D01*
X38012833Y-32657683D01*
X37643538Y-32657683D01*
X37647287Y-32627509D01*
X37651299Y-32598814D01*
X37655710Y-32571462D01*
X37660657Y-32545316D01*
X37666277Y-32520240D01*
X37672706Y-32496099D01*
X37680082Y-32472756D01*
X37688539Y-32450076D01*
X37698216Y-32427923D01*
X37709249Y-32406160D01*
X37721775Y-32384652D01*
X37735930Y-32363263D01*
X37751851Y-32341857D01*
X37769675Y-32320297D01*
X37789538Y-32298449D01*
X37811577Y-32276175D01*
X37836157Y-32252811D01*
X37861701Y-32231069D01*
X37888173Y-32210932D01*
X37915540Y-32192385D01*
X37943769Y-32175412D01*
X37972826Y-32159998D01*
X38002676Y-32146126D01*
X38033288Y-32133782D01*
X38064627Y-32122949D01*
X38096659Y-32113611D01*
X38129350Y-32105753D01*
X38162668Y-32099359D01*
X38196578Y-32094413D01*
X38231047Y-32090900D01*
X38266042Y-32088804D01*
X38301528Y-32088108D01*
X38335473Y-32088777D01*
X38369570Y-32090799D01*
X38403737Y-32094194D01*
X38437894Y-32098984D01*
X38471961Y-32105190D01*
X38505857Y-32112835D01*
X38539501Y-32121938D01*
X38572813Y-32132522D01*
X38605712Y-32144608D01*
X38638117Y-32158218D01*
X38669949Y-32173372D01*
X38701125Y-32190092D01*
X38731567Y-32208400D01*
X38761192Y-32228316D01*
X38789922Y-32249863D01*
X38817674Y-32273061D01*
X38844369Y-32297933D01*
X38869925Y-32324498D01*
X38894263Y-32352779D01*
X38917301Y-32382798D01*
X38938960Y-32414575D01*
X38959157Y-32448132D01*
X38977814Y-32483489D01*
X38994849Y-32520670D01*
X39010182Y-32559695D01*
X39023732Y-32600585D01*
X39035418Y-32643361D01*
X39045160Y-32688046D01*
X39052878Y-32734660D01*
X39058490Y-32783226D01*
X39061917Y-32833763D01*
X39063077Y-32886294D01*
X39062474Y-32922914D01*
X39060654Y-32959365D01*
X39057598Y-32995584D01*
X39053287Y-33031503D01*
X39047704Y-33067059D01*
X39040830Y-33102185D01*
X39032647Y-33136818D01*
X39023136Y-33170890D01*
X39012279Y-33204338D01*
X39000057Y-33237097D01*
X38986454Y-33269100D01*
X38971449Y-33300283D01*
X38955025Y-33330580D01*
X38937163Y-33359927D01*
X38917845Y-33388258D01*
X38897053Y-33415507D01*
X38874768Y-33441610D01*
X38850972Y-33466502D01*
X38825647Y-33490117D01*
X38798775Y-33512390D01*
X38770336Y-33533256D01*
X38740313Y-33552650D01*
X38708687Y-33570506D01*
X38675441Y-33586760D01*
X38640555Y-33601345D01*
X38604011Y-33614197D01*
X38565791Y-33625251D01*
X38525877Y-33634441D01*
X38484250Y-33641703D01*
X38440893Y-33646970D01*
X38395786Y-33650179D01*
X38348911Y-33651263D01*
X38296948Y-33649957D01*
X38247625Y-33646133D01*
X38200869Y-33639931D01*
X38156609Y-33631494D01*
X38114774Y-33620962D01*
X38075292Y-33608475D01*
X38038091Y-33594175D01*
X38003101Y-33578203D01*
X37970250Y-33560700D01*
X37939466Y-33541806D01*
X37910678Y-33521663D01*
X37883814Y-33500412D01*
X37858804Y-33478193D01*
X37835574Y-33455148D01*
X37814055Y-33431417D01*
X37794174Y-33407142D01*
X37775861Y-33382463D01*
X37759043Y-33357521D01*
X37743649Y-33332458D01*
X37729607Y-33307414D01*
X37716847Y-33282531D01*
X37705297Y-33257949D01*
X37694885Y-33233809D01*
X37685540Y-33210252D01*
X37677190Y-33187419D01*
X37669764Y-33165451D01*
X37663190Y-33144490D01*
X37657397Y-33124675D01*
X37647869Y-33089051D01*
X37640607Y-33059706D01*
G37*
G36*
X36732901Y-32088984D02*
G01*
X36772408Y-32091597D01*
X36811413Y-32095929D01*
X36849862Y-32101959D01*
X36887701Y-32109668D01*
X36924875Y-32119036D01*
X36961333Y-32130045D01*
X36997019Y-32142674D01*
X37031880Y-32156903D01*
X37065863Y-32172714D01*
X37098912Y-32190086D01*
X37130976Y-32209000D01*
X37161999Y-32229436D01*
X37191929Y-32251376D01*
X37220711Y-32274798D01*
X37248292Y-32299684D01*
X37274617Y-32326014D01*
X37299634Y-32353768D01*
X37323288Y-32382927D01*
X37345526Y-32413471D01*
X37366294Y-32445381D01*
X37385538Y-32478637D01*
X37403204Y-32513220D01*
X37419239Y-32549109D01*
X37433588Y-32586286D01*
X37446199Y-32624730D01*
X37457017Y-32664422D01*
X37465989Y-32705343D01*
X37473061Y-32747473D01*
X37478179Y-32790793D01*
X37481289Y-32835282D01*
X37482337Y-32880921D01*
X37481749Y-32915106D01*
X37479962Y-32949464D01*
X37476943Y-32983911D01*
X37472657Y-33018366D01*
X37467071Y-33052746D01*
X37460151Y-33086968D01*
X37451864Y-33120950D01*
X37442175Y-33154610D01*
X37431050Y-33187865D01*
X37418456Y-33220632D01*
X37404359Y-33252829D01*
X37388725Y-33284374D01*
X37371521Y-33315183D01*
X37352712Y-33345176D01*
X37332265Y-33374269D01*
X37310146Y-33402379D01*
X37286321Y-33429425D01*
X37260756Y-33455323D01*
X37233418Y-33479992D01*
X37204272Y-33503349D01*
X37173286Y-33525311D01*
X37140424Y-33545796D01*
X37105654Y-33564721D01*
X37068941Y-33582004D01*
X37030252Y-33597563D01*
X36989552Y-33611315D01*
X36946809Y-33623178D01*
X36901988Y-33633068D01*
X36855055Y-33640905D01*
X36805977Y-33646604D01*
X36754719Y-33650084D01*
X36701249Y-33651263D01*
X36649672Y-33650116D01*
X36599984Y-33646726D01*
X36552170Y-33641169D01*
X36506212Y-33633519D01*
X36462094Y-33623852D01*
X36419800Y-33612243D01*
X36379313Y-33598767D01*
X36340616Y-33583500D01*
X36303694Y-33566518D01*
X36268528Y-33547895D01*
X36235103Y-33527706D01*
X36203403Y-33506028D01*
X36173410Y-33482935D01*
X36145108Y-33458502D01*
X36118481Y-33432806D01*
X36093511Y-33405921D01*
X36070184Y-33377922D01*
X36048481Y-33348885D01*
X36028386Y-33318886D01*
X36009884Y-33287999D01*
X35992957Y-33256300D01*
X35977588Y-33223864D01*
X35963762Y-33190767D01*
X35951461Y-33157083D01*
X35940670Y-33122888D01*
X35931371Y-33088258D01*
X35923548Y-33053268D01*
X35917184Y-33017992D01*
X35912264Y-32982507D01*
X35908769Y-32946888D01*
X35906685Y-32911209D01*
X35905994Y-32875547D01*
X35906106Y-32870174D01*
X36281151Y-32870174D01*
X36281834Y-32905997D01*
X36284117Y-32943995D01*
X36285969Y-32963616D01*
X36288354Y-32983549D01*
X36291315Y-33003716D01*
X36294897Y-33024039D01*
X36299144Y-33044442D01*
X36304099Y-33064847D01*
X36309808Y-33085177D01*
X36316313Y-33105354D01*
X36323660Y-33125301D01*
X36331892Y-33144941D01*
X36341053Y-33164195D01*
X36351188Y-33182988D01*
X36362340Y-33201241D01*
X36374553Y-33218877D01*
X36387873Y-33235819D01*
X36402342Y-33251989D01*
X36418005Y-33267311D01*
X36434906Y-33281706D01*
X36453090Y-33295097D01*
X36472599Y-33307407D01*
X36493479Y-33318558D01*
X36515773Y-33328474D01*
X36539526Y-33337077D01*
X36564781Y-33344288D01*
X36591583Y-33350032D01*
X36619975Y-33354231D01*
X36650003Y-33356807D01*
X36681709Y-33357683D01*
X36706301Y-33357073D01*
X36730247Y-33355261D01*
X36753536Y-33352271D01*
X36776161Y-33348130D01*
X36798112Y-33342861D01*
X36819381Y-33336492D01*
X36839960Y-33329046D01*
X36859839Y-33320550D01*
X36879009Y-33311029D01*
X36897462Y-33300507D01*
X36915190Y-33289010D01*
X36932182Y-33276564D01*
X36948431Y-33263194D01*
X36963928Y-33248926D01*
X36978664Y-33233783D01*
X36992630Y-33217793D01*
X37005818Y-33200979D01*
X37018218Y-33183368D01*
X37029823Y-33164985D01*
X37040622Y-33145854D01*
X37050608Y-33126003D01*
X37059772Y-33105454D01*
X37068104Y-33084235D01*
X37075597Y-33062370D01*
X37082240Y-33039885D01*
X37088027Y-33016804D01*
X37092947Y-32993154D01*
X37096993Y-32968960D01*
X37100154Y-32944246D01*
X37102423Y-32919038D01*
X37103791Y-32893362D01*
X37104249Y-32867243D01*
X37103657Y-32837271D01*
X37101906Y-32808263D01*
X37099031Y-32780218D01*
X37095071Y-32753135D01*
X37090062Y-32727013D01*
X37084041Y-32701852D01*
X37077044Y-32677651D01*
X37069109Y-32654408D01*
X37060272Y-32632124D01*
X37050571Y-32610797D01*
X37040041Y-32590427D01*
X37028721Y-32571012D01*
X37016646Y-32552552D01*
X37003855Y-32535046D01*
X36990382Y-32518494D01*
X36976266Y-32502894D01*
X36961543Y-32488246D01*
X36946250Y-32474548D01*
X36930425Y-32461801D01*
X36914102Y-32450003D01*
X36897321Y-32439153D01*
X36880117Y-32429251D01*
X36862527Y-32420296D01*
X36844589Y-32412287D01*
X36826338Y-32405224D01*
X36789049Y-32393929D01*
X36750953Y-32386405D01*
X36712347Y-32382646D01*
X36692944Y-32382177D01*
X36654188Y-32383933D01*
X36615785Y-32389241D01*
X36578031Y-32398161D01*
X36541224Y-32410753D01*
X36505659Y-32427078D01*
X36488434Y-32436659D01*
X36471632Y-32447195D01*
X36455288Y-32458694D01*
X36439440Y-32471165D01*
X36424124Y-32484613D01*
X36409378Y-32499047D01*
X36395240Y-32514474D01*
X36381744Y-32530902D01*
X36368930Y-32548338D01*
X36356834Y-32566790D01*
X36345492Y-32586265D01*
X36334943Y-32606771D01*
X36325222Y-32628315D01*
X36316368Y-32650905D01*
X36308416Y-32674548D01*
X36301405Y-32699252D01*
X36295370Y-32725024D01*
X36290350Y-32751873D01*
X36286381Y-32779804D01*
X36283500Y-32808827D01*
X36281744Y-32838947D01*
X36281151Y-32870174D01*
X35906106Y-32870174D01*
X35906829Y-32835468D01*
X35909326Y-32795864D01*
X35913471Y-32756788D01*
X35919252Y-32718293D01*
X35926656Y-32680430D01*
X35935669Y-32643252D01*
X35946280Y-32606811D01*
X35958476Y-32571160D01*
X35972242Y-32536349D01*
X35987567Y-32502433D01*
X36004438Y-32469462D01*
X36022841Y-32437490D01*
X36042764Y-32406568D01*
X36064195Y-32376749D01*
X36087119Y-32348085D01*
X36111524Y-32320628D01*
X36137398Y-32294430D01*
X36164727Y-32269544D01*
X36193499Y-32246021D01*
X36223700Y-32223915D01*
X36255319Y-32203277D01*
X36288341Y-32184160D01*
X36322754Y-32166615D01*
X36358545Y-32150696D01*
X36395702Y-32136453D01*
X36434211Y-32123941D01*
X36474060Y-32113209D01*
X36515235Y-32104312D01*
X36557724Y-32097301D01*
X36601514Y-32092229D01*
X36646591Y-32089147D01*
X36692944Y-32088108D01*
X36732901Y-32088984D01*
G37*
G36*
X34970444Y-32088984D02*
G01*
X35009952Y-32091597D01*
X35048957Y-32095929D01*
X35087405Y-32101959D01*
X35125244Y-32109668D01*
X35162419Y-32119036D01*
X35198877Y-32130045D01*
X35234563Y-32142674D01*
X35269424Y-32156903D01*
X35303406Y-32172714D01*
X35336456Y-32190086D01*
X35368519Y-32209000D01*
X35399543Y-32229436D01*
X35429472Y-32251376D01*
X35458254Y-32274798D01*
X35485835Y-32299684D01*
X35512161Y-32326014D01*
X35537178Y-32353768D01*
X35560832Y-32382927D01*
X35583070Y-32413471D01*
X35603837Y-32445381D01*
X35623081Y-32478637D01*
X35640747Y-32513220D01*
X35656782Y-32549109D01*
X35671132Y-32586286D01*
X35683743Y-32624730D01*
X35694561Y-32664422D01*
X35703533Y-32705343D01*
X35710604Y-32747473D01*
X35715722Y-32790793D01*
X35718832Y-32835282D01*
X35719881Y-32880921D01*
X35719293Y-32915106D01*
X35717506Y-32949464D01*
X35714487Y-32983911D01*
X35710201Y-33018366D01*
X35704615Y-33052746D01*
X35697695Y-33086968D01*
X35689407Y-33120950D01*
X35679718Y-33154610D01*
X35668594Y-33187865D01*
X35656000Y-33220632D01*
X35641903Y-33252829D01*
X35626269Y-33284374D01*
X35609065Y-33315183D01*
X35590256Y-33345176D01*
X35569809Y-33374269D01*
X35547690Y-33402379D01*
X35523865Y-33429425D01*
X35498300Y-33455323D01*
X35470962Y-33479992D01*
X35441816Y-33503349D01*
X35410829Y-33525311D01*
X35377968Y-33545796D01*
X35343197Y-33564721D01*
X35306485Y-33582004D01*
X35267795Y-33597563D01*
X35227096Y-33611315D01*
X35184352Y-33623178D01*
X35139531Y-33633068D01*
X35092598Y-33640905D01*
X35043520Y-33646604D01*
X34992263Y-33650084D01*
X34938792Y-33651263D01*
X34887215Y-33650116D01*
X34837528Y-33646726D01*
X34789713Y-33641169D01*
X34743756Y-33633519D01*
X34699638Y-33623852D01*
X34657344Y-33612243D01*
X34616857Y-33598767D01*
X34578160Y-33583500D01*
X34541237Y-33566518D01*
X34506072Y-33547895D01*
X34472647Y-33527706D01*
X34440946Y-33506028D01*
X34410953Y-33482935D01*
X34382651Y-33458502D01*
X34356024Y-33432806D01*
X34331055Y-33405921D01*
X34307727Y-33377922D01*
X34286024Y-33348885D01*
X34265930Y-33318886D01*
X34247428Y-33287999D01*
X34230500Y-33256300D01*
X34215132Y-33223864D01*
X34201306Y-33190767D01*
X34189005Y-33157083D01*
X34178213Y-33122888D01*
X34168914Y-33088258D01*
X34161091Y-33053268D01*
X34154728Y-33017992D01*
X34149807Y-32982507D01*
X34146313Y-32946888D01*
X34144229Y-32911209D01*
X34143538Y-32875547D01*
X34143650Y-32870174D01*
X34518695Y-32870174D01*
X34519377Y-32905997D01*
X34521661Y-32943995D01*
X34523513Y-32963616D01*
X34525898Y-32983549D01*
X34528859Y-33003716D01*
X34532441Y-33024039D01*
X34536687Y-33044442D01*
X34541643Y-33064847D01*
X34547351Y-33085177D01*
X34553857Y-33105354D01*
X34561204Y-33125301D01*
X34569435Y-33144941D01*
X34578597Y-33164195D01*
X34588731Y-33182988D01*
X34599883Y-33201241D01*
X34612097Y-33218877D01*
X34625416Y-33235819D01*
X34639886Y-33251989D01*
X34655549Y-33267311D01*
X34672450Y-33281706D01*
X34690633Y-33295097D01*
X34710143Y-33307407D01*
X34731023Y-33318558D01*
X34753317Y-33328474D01*
X34777069Y-33337077D01*
X34802324Y-33344288D01*
X34829126Y-33350032D01*
X34857519Y-33354231D01*
X34887546Y-33356807D01*
X34919253Y-33357683D01*
X34943845Y-33357073D01*
X34967790Y-33355261D01*
X34991079Y-33352271D01*
X35013704Y-33348130D01*
X35035656Y-33342861D01*
X35056925Y-33336492D01*
X35077503Y-33329046D01*
X35097382Y-33320550D01*
X35116553Y-33311029D01*
X35135006Y-33300507D01*
X35152733Y-33289010D01*
X35169726Y-33276564D01*
X35185975Y-33263194D01*
X35201472Y-33248926D01*
X35216208Y-33233783D01*
X35230174Y-33217793D01*
X35243362Y-33200979D01*
X35255762Y-33183368D01*
X35267366Y-33164985D01*
X35278166Y-33145854D01*
X35288152Y-33126003D01*
X35297315Y-33105454D01*
X35305648Y-33084235D01*
X35313140Y-33062370D01*
X35319784Y-33039885D01*
X35325571Y-33016804D01*
X35330491Y-32993154D01*
X35334536Y-32968960D01*
X35337698Y-32944246D01*
X35339967Y-32919038D01*
X35341335Y-32893362D01*
X35341793Y-32867243D01*
X35341201Y-32837271D01*
X35339449Y-32808263D01*
X35336575Y-32780218D01*
X35332615Y-32753135D01*
X35327606Y-32727013D01*
X35321584Y-32701852D01*
X35314588Y-32677651D01*
X35306653Y-32654408D01*
X35297816Y-32632124D01*
X35288114Y-32610797D01*
X35277585Y-32590427D01*
X35266265Y-32571012D01*
X35254190Y-32552552D01*
X35241398Y-32535046D01*
X35227926Y-32518494D01*
X35213810Y-32502894D01*
X35199087Y-32488246D01*
X35183794Y-32474548D01*
X35167968Y-32461801D01*
X35151646Y-32450003D01*
X35134865Y-32439153D01*
X35117661Y-32429251D01*
X35100071Y-32420296D01*
X35082132Y-32412287D01*
X35063882Y-32405224D01*
X35026592Y-32393929D01*
X34988497Y-32386405D01*
X34949891Y-32382646D01*
X34930488Y-32382177D01*
X34891731Y-32383933D01*
X34853328Y-32389241D01*
X34815575Y-32398161D01*
X34778767Y-32410753D01*
X34743202Y-32427078D01*
X34725978Y-32436659D01*
X34709175Y-32447195D01*
X34692831Y-32458694D01*
X34676983Y-32471165D01*
X34661668Y-32484613D01*
X34646922Y-32499047D01*
X34632783Y-32514474D01*
X34619288Y-32530902D01*
X34606474Y-32548338D01*
X34594377Y-32566790D01*
X34583036Y-32586265D01*
X34572486Y-32606771D01*
X34562766Y-32628315D01*
X34553911Y-32650905D01*
X34545960Y-32674548D01*
X34538948Y-32699252D01*
X34532914Y-32725024D01*
X34527894Y-32751873D01*
X34523925Y-32779804D01*
X34521044Y-32808827D01*
X34519288Y-32838947D01*
X34518695Y-32870174D01*
X34143650Y-32870174D01*
X34144373Y-32835468D01*
X34146869Y-32795864D01*
X34151014Y-32756788D01*
X34156795Y-32718293D01*
X34164199Y-32680430D01*
X34173213Y-32643252D01*
X34183824Y-32606811D01*
X34196019Y-32571160D01*
X34209786Y-32536349D01*
X34225111Y-32502433D01*
X34241981Y-32469462D01*
X34260385Y-32437490D01*
X34280308Y-32406568D01*
X34301738Y-32376749D01*
X34324662Y-32348085D01*
X34349068Y-32320628D01*
X34374942Y-32294430D01*
X34402271Y-32269544D01*
X34431043Y-32246021D01*
X34461244Y-32223915D01*
X34492862Y-32203277D01*
X34525884Y-32184160D01*
X34560298Y-32166615D01*
X34596089Y-32150696D01*
X34633246Y-32136453D01*
X34671755Y-32123941D01*
X34711603Y-32113209D01*
X34752778Y-32104312D01*
X34795267Y-32097301D01*
X34839057Y-32092229D01*
X34884135Y-32089147D01*
X34930488Y-32088108D01*
X34970444Y-32088984D01*
G37*
G36*
X33501179Y-33620000D02*
G01*
X33501179Y-31587899D01*
X33870963Y-31587899D01*
X33870963Y-33620000D01*
X33501179Y-33620000D01*
G37*
G36*
X32472397Y-32088554D02*
G01*
X32495312Y-32089866D01*
X32517262Y-32092005D01*
X32538272Y-32094932D01*
X32558369Y-32098609D01*
X32577578Y-32102998D01*
X32613432Y-32113754D01*
X32646041Y-32126891D01*
X32675609Y-32142101D01*
X32702341Y-32159074D01*
X32726441Y-32177501D01*
X32748113Y-32197073D01*
X32767563Y-32217481D01*
X32784995Y-32238415D01*
X32800614Y-32259567D01*
X32814624Y-32280627D01*
X32827231Y-32301287D01*
X32838638Y-32321236D01*
X32849050Y-32340167D01*
X32834884Y-32214626D01*
X32834884Y-32119371D01*
X33204668Y-32119371D01*
X33204668Y-33995157D01*
X32834884Y-33995157D01*
X32834884Y-33660055D01*
X32857355Y-33374291D01*
X32847594Y-33393698D01*
X32838516Y-33411153D01*
X32827139Y-33431844D01*
X32816175Y-33450157D01*
X32805165Y-33466715D01*
X32790640Y-33485896D01*
X32777853Y-33500788D01*
X32763531Y-33515953D01*
X32759658Y-33519860D01*
X32743514Y-33535182D01*
X32726614Y-33549629D01*
X32708990Y-33563186D01*
X32690674Y-33575837D01*
X32671700Y-33587567D01*
X32652101Y-33598359D01*
X32631909Y-33608198D01*
X32611158Y-33617069D01*
X32589880Y-33624954D01*
X32568108Y-33631840D01*
X32545876Y-33637709D01*
X32523215Y-33642546D01*
X32500160Y-33646336D01*
X32476742Y-33649062D01*
X32452996Y-33650710D01*
X32428953Y-33651263D01*
X32393536Y-33650075D01*
X32359188Y-33646562D01*
X32325912Y-33640803D01*
X32293712Y-33632873D01*
X32262591Y-33622849D01*
X32232553Y-33610810D01*
X32203602Y-33596831D01*
X32175742Y-33580989D01*
X32148975Y-33563363D01*
X32123306Y-33544028D01*
X32098739Y-33523061D01*
X32075277Y-33500541D01*
X32052923Y-33476543D01*
X32031682Y-33451145D01*
X32011557Y-33424424D01*
X31992552Y-33396456D01*
X31974670Y-33367319D01*
X31957915Y-33337091D01*
X31942291Y-33305846D01*
X31927802Y-33273664D01*
X31914450Y-33240621D01*
X31902241Y-33206793D01*
X31891176Y-33172258D01*
X31881261Y-33137093D01*
X31872499Y-33101375D01*
X31864893Y-33065181D01*
X31858447Y-33028588D01*
X31853165Y-32991672D01*
X31849050Y-32954512D01*
X31846106Y-32917183D01*
X31844337Y-32879764D01*
X31843878Y-32850635D01*
X32213531Y-32850635D01*
X32214407Y-32889336D01*
X32215530Y-32909306D01*
X32217133Y-32929596D01*
X32219234Y-32950135D01*
X32221851Y-32970854D01*
X32225002Y-32991683D01*
X32228704Y-33012552D01*
X32232976Y-33033391D01*
X32237836Y-33054130D01*
X32243300Y-33074699D01*
X32249388Y-33095028D01*
X32256118Y-33115047D01*
X32263506Y-33134687D01*
X32271571Y-33153877D01*
X32280331Y-33172547D01*
X32289804Y-33190627D01*
X32300007Y-33208048D01*
X32310959Y-33224739D01*
X32322677Y-33240631D01*
X32335179Y-33255654D01*
X32362608Y-33282811D01*
X32393388Y-33305651D01*
X32427664Y-33323614D01*
X32446157Y-33330593D01*
X32465577Y-33336142D01*
X32485942Y-33340192D01*
X32507271Y-33342674D01*
X32529581Y-33343517D01*
X32553880Y-33342690D01*
X32576882Y-33340256D01*
X32598622Y-33336286D01*
X32619135Y-33330851D01*
X32638454Y-33324021D01*
X32656615Y-33315866D01*
X32689598Y-33295866D01*
X32718359Y-33271415D01*
X32743174Y-33243078D01*
X32764318Y-33211420D01*
X32782067Y-33177004D01*
X32789754Y-33158939D01*
X32796696Y-33140396D01*
X32802926Y-33121446D01*
X32808480Y-33102160D01*
X32813392Y-33082608D01*
X32817696Y-33062860D01*
X32821427Y-33042988D01*
X32824619Y-33023062D01*
X32827306Y-33003153D01*
X32829523Y-32983330D01*
X32831305Y-32963665D01*
X32833699Y-32925090D01*
X32834764Y-32887992D01*
X32834884Y-32870174D01*
X32834589Y-32849928D01*
X32833700Y-32829526D01*
X32832215Y-32809019D01*
X32830128Y-32788461D01*
X32827438Y-32767904D01*
X32824139Y-32747400D01*
X32820229Y-32727001D01*
X32815704Y-32706760D01*
X32810559Y-32686730D01*
X32804792Y-32666962D01*
X32798399Y-32647510D01*
X32791376Y-32628425D01*
X32783719Y-32609760D01*
X32775425Y-32591568D01*
X32766490Y-32573901D01*
X32756910Y-32556810D01*
X32735802Y-32524572D01*
X32712071Y-32495271D01*
X32685689Y-32469327D01*
X32656625Y-32447161D01*
X32624851Y-32429190D01*
X32590337Y-32415835D01*
X32553054Y-32407514D01*
X32533365Y-32405373D01*
X32512972Y-32404647D01*
X32492902Y-32405333D01*
X32455133Y-32410676D01*
X32420459Y-32420989D01*
X32388795Y-32435886D01*
X32360061Y-32454978D01*
X32334173Y-32477878D01*
X32311050Y-32504197D01*
X32290609Y-32533548D01*
X32272768Y-32565543D01*
X32257445Y-32599794D01*
X32244558Y-32635913D01*
X32234023Y-32673513D01*
X32229612Y-32692747D01*
X32225759Y-32712205D01*
X32222453Y-32731840D01*
X32219684Y-32751603D01*
X32217441Y-32771445D01*
X32215715Y-32791317D01*
X32214495Y-32811172D01*
X32213770Y-32830961D01*
X32213531Y-32850635D01*
X31843878Y-32850635D01*
X31843747Y-32842330D01*
X31844274Y-32806988D01*
X31845864Y-32771714D01*
X31848529Y-32736579D01*
X31852281Y-32701650D01*
X31857133Y-32666998D01*
X31863096Y-32632691D01*
X31870183Y-32598799D01*
X31878406Y-32565389D01*
X31887778Y-32532533D01*
X31898311Y-32500297D01*
X31910017Y-32468752D01*
X31922907Y-32437967D01*
X31936996Y-32408011D01*
X31952294Y-32378952D01*
X31968814Y-32350859D01*
X31986568Y-32323803D01*
X32005569Y-32297851D01*
X32025828Y-32273073D01*
X32047359Y-32249538D01*
X32070172Y-32227315D01*
X32094282Y-32206473D01*
X32119699Y-32187082D01*
X32146436Y-32169209D01*
X32174505Y-32152924D01*
X32203919Y-32138297D01*
X32234690Y-32125396D01*
X32266829Y-32114290D01*
X32300350Y-32105049D01*
X32335265Y-32097741D01*
X32371585Y-32092436D01*
X32409324Y-32089202D01*
X32448492Y-32088108D01*
X32472397Y-32088554D01*
G37*
G36*
X31023159Y-32088919D02*
G01*
X31044845Y-32090025D01*
X31067466Y-32091683D01*
X31090911Y-32093955D01*
X31115069Y-32096902D01*
X31139829Y-32100588D01*
X31165080Y-32105076D01*
X31190711Y-32110427D01*
X31216611Y-32116704D01*
X31242669Y-32123970D01*
X31268773Y-32132287D01*
X31294814Y-32141718D01*
X31320680Y-32152325D01*
X31346260Y-32164171D01*
X31371442Y-32177318D01*
X31396117Y-32191829D01*
X31420172Y-32207767D01*
X31443498Y-32225193D01*
X31465982Y-32244171D01*
X31487515Y-32264763D01*
X31507984Y-32287031D01*
X31527279Y-32311038D01*
X31545290Y-32336847D01*
X31561904Y-32364520D01*
X31577011Y-32394119D01*
X31590500Y-32425707D01*
X31602260Y-32459347D01*
X31612180Y-32495101D01*
X31620149Y-32533032D01*
X31626056Y-32573201D01*
X31629790Y-32615673D01*
X31296643Y-32615673D01*
X31293442Y-32590301D01*
X31289812Y-32568038D01*
X31285369Y-32548328D01*
X31278087Y-32526434D01*
X31268188Y-32506578D01*
X31254920Y-32487674D01*
X31241378Y-32472508D01*
X31237536Y-32468639D01*
X31218972Y-32451990D01*
X31199186Y-32437484D01*
X31178456Y-32424973D01*
X31157058Y-32414310D01*
X31135271Y-32405347D01*
X31113373Y-32397936D01*
X31091641Y-32391931D01*
X31070352Y-32387184D01*
X31049784Y-32383547D01*
X31030216Y-32380873D01*
X31003343Y-32378347D01*
X30980280Y-32377158D01*
X30957074Y-32376794D01*
X30949330Y-32376803D01*
X30927675Y-32377238D01*
X30905897Y-32378589D01*
X30884207Y-32380925D01*
X30862814Y-32384314D01*
X30841928Y-32388825D01*
X30821758Y-32394526D01*
X30802513Y-32401487D01*
X30784405Y-32409776D01*
X30759829Y-32424850D01*
X30738989Y-32443299D01*
X30722590Y-32465353D01*
X30711341Y-32491246D01*
X30707052Y-32510755D01*
X30705575Y-32532142D01*
X30707661Y-32556913D01*
X30713721Y-32579299D01*
X30723459Y-32599445D01*
X30736579Y-32617497D01*
X30752784Y-32633600D01*
X30771778Y-32647899D01*
X30793266Y-32660539D01*
X30816950Y-32671666D01*
X30842535Y-32681424D01*
X30869724Y-32689960D01*
X30898221Y-32697418D01*
X30927729Y-32703944D01*
X30957954Y-32709682D01*
X30988597Y-32714779D01*
X31019364Y-32719379D01*
X31049958Y-32723628D01*
X31081382Y-32727970D01*
X31112605Y-32732683D01*
X31143575Y-32737800D01*
X31174239Y-32743356D01*
X31204546Y-32749382D01*
X31234442Y-32755913D01*
X31263876Y-32762982D01*
X31292796Y-32770622D01*
X31321149Y-32778867D01*
X31348883Y-32787750D01*
X31375946Y-32797304D01*
X31402286Y-32807563D01*
X31427849Y-32818560D01*
X31452585Y-32830328D01*
X31476441Y-32842902D01*
X31499364Y-32856313D01*
X31521303Y-32870596D01*
X31542205Y-32885784D01*
X31562018Y-32901910D01*
X31580690Y-32919008D01*
X31598168Y-32937111D01*
X31614400Y-32956252D01*
X31629334Y-32976465D01*
X31642918Y-32997783D01*
X31655100Y-33020240D01*
X31665826Y-33043868D01*
X31675046Y-33068701D01*
X31682707Y-33094773D01*
X31688756Y-33122117D01*
X31693142Y-33150766D01*
X31695811Y-33180754D01*
X31696713Y-33212114D01*
X31695355Y-33247958D01*
X31691097Y-33284839D01*
X31683659Y-33322296D01*
X31672762Y-33359866D01*
X31665929Y-33378548D01*
X31658126Y-33397086D01*
X31649320Y-33415421D01*
X31639474Y-33433495D01*
X31628554Y-33451251D01*
X31616525Y-33468631D01*
X31603353Y-33485576D01*
X31589002Y-33502030D01*
X31573437Y-33517935D01*
X31556623Y-33533232D01*
X31538527Y-33547863D01*
X31519112Y-33561772D01*
X31498344Y-33574901D01*
X31476188Y-33587191D01*
X31452609Y-33598584D01*
X31427572Y-33609024D01*
X31401043Y-33618452D01*
X31372986Y-33626810D01*
X31343367Y-33634041D01*
X31312150Y-33640087D01*
X31279302Y-33644889D01*
X31244786Y-33648392D01*
X31208568Y-33650535D01*
X31170614Y-33651263D01*
X31138261Y-33650763D01*
X31107399Y-33649295D01*
X31077988Y-33646909D01*
X31049989Y-33643653D01*
X31023365Y-33639575D01*
X30998076Y-33634725D01*
X30974085Y-33629150D01*
X30951352Y-33622900D01*
X30929839Y-33616023D01*
X30909508Y-33608568D01*
X30890320Y-33600583D01*
X30872236Y-33592118D01*
X30839226Y-33573939D01*
X30810172Y-33554420D01*
X30784764Y-33533952D01*
X30762695Y-33512922D01*
X30743655Y-33491720D01*
X30727336Y-33470737D01*
X30713430Y-33450359D01*
X30701628Y-33430978D01*
X30691623Y-33412983D01*
X30683105Y-33396762D01*
X30683010Y-33417322D01*
X30682603Y-33438935D01*
X30681699Y-33461263D01*
X30680117Y-33483968D01*
X30677671Y-33506711D01*
X30674179Y-33529155D01*
X30669457Y-33550961D01*
X30663321Y-33571792D01*
X30655588Y-33591309D01*
X30646075Y-33609174D01*
X30638653Y-33620000D01*
X30249330Y-33620000D01*
X30268219Y-33606178D01*
X30284111Y-33591238D01*
X30297255Y-33575404D01*
X30307899Y-33558897D01*
X30318633Y-33536224D01*
X30325956Y-33513277D01*
X30330456Y-33490581D01*
X30332724Y-33468664D01*
X30333349Y-33448053D01*
X30333349Y-32826699D01*
X30686036Y-32826699D01*
X30705575Y-32923419D01*
X30705575Y-33092923D01*
X30708130Y-33129489D01*
X30715504Y-33163545D01*
X30727262Y-33195112D01*
X30742967Y-33224212D01*
X30762185Y-33250864D01*
X30784478Y-33275089D01*
X30809412Y-33296910D01*
X30836550Y-33316345D01*
X30865458Y-33333415D01*
X30895698Y-33348143D01*
X30926836Y-33360548D01*
X30958435Y-33370650D01*
X30990060Y-33378472D01*
X31021275Y-33384033D01*
X31051645Y-33387355D01*
X31080732Y-33388457D01*
X31105547Y-33387499D01*
X31129544Y-33384685D01*
X31152614Y-33380105D01*
X31174651Y-33373849D01*
X31195546Y-33366007D01*
X31215191Y-33356669D01*
X31233477Y-33345927D01*
X31250298Y-33333869D01*
X31265544Y-33320586D01*
X31279108Y-33306168D01*
X31296063Y-33282611D01*
X31308626Y-33257008D01*
X31316431Y-33229662D01*
X31319113Y-33200879D01*
X31316748Y-33168762D01*
X31309920Y-33139540D01*
X31299033Y-33113062D01*
X31284492Y-33089176D01*
X31266699Y-33067731D01*
X31246058Y-33048577D01*
X31222973Y-33031563D01*
X31197847Y-33016536D01*
X31171083Y-33003348D01*
X31143087Y-32991846D01*
X31114260Y-32981880D01*
X31085006Y-32973298D01*
X31055730Y-32965950D01*
X31026835Y-32959684D01*
X30998723Y-32954350D01*
X30971800Y-32949797D01*
X30942976Y-32945372D01*
X30916304Y-32940841D01*
X30891638Y-32936135D01*
X30868829Y-32931181D01*
X30847728Y-32925910D01*
X30828188Y-32920250D01*
X30801480Y-32910877D01*
X30777450Y-32900232D01*
X30755599Y-32888074D01*
X30735426Y-32874166D01*
X30716432Y-32858267D01*
X30698116Y-32840140D01*
X30686036Y-32826699D01*
X30333349Y-32826699D01*
X30333349Y-32626420D01*
X30334227Y-32590837D01*
X30336830Y-32556618D01*
X30341110Y-32523748D01*
X30347020Y-32492212D01*
X30354514Y-32461994D01*
X30363543Y-32433078D01*
X30374061Y-32405450D01*
X30386022Y-32379093D01*
X30399376Y-32353993D01*
X30414079Y-32330134D01*
X30430081Y-32307501D01*
X30447337Y-32286079D01*
X30465799Y-32265851D01*
X30485420Y-32246803D01*
X30506152Y-32228919D01*
X30527950Y-32212184D01*
X30550764Y-32196582D01*
X30574550Y-32182098D01*
X30599258Y-32168718D01*
X30624842Y-32156424D01*
X30651256Y-32145202D01*
X30678451Y-32135037D01*
X30706381Y-32125913D01*
X30734999Y-32117814D01*
X30764257Y-32110726D01*
X30794108Y-32104633D01*
X30824506Y-32099520D01*
X30855402Y-32095371D01*
X30886750Y-32092170D01*
X30918503Y-32089903D01*
X30950614Y-32088555D01*
X30983035Y-32088108D01*
X31023159Y-32088919D01*
G37*
G36*
X29150237Y-32169685D02*
G01*
X29133628Y-32326489D01*
X29147677Y-32303107D01*
X29158787Y-32285582D01*
X29171490Y-32266932D01*
X29185957Y-32247524D01*
X29202358Y-32227724D01*
X29220864Y-32207897D01*
X29241644Y-32188408D01*
X29264870Y-32169625D01*
X29290711Y-32151911D01*
X29319337Y-32135633D01*
X29350920Y-32121156D01*
X29385628Y-32108847D01*
X29423633Y-32099070D01*
X29443925Y-32095246D01*
X29465105Y-32092192D01*
X29487195Y-32089954D01*
X29510215Y-32088577D01*
X29534187Y-32088108D01*
X29566958Y-32089016D01*
X29599126Y-32091723D01*
X29630662Y-32096204D01*
X29661536Y-32102436D01*
X29691721Y-32110394D01*
X29721187Y-32120054D01*
X29749906Y-32131392D01*
X29777849Y-32144383D01*
X29804988Y-32159004D01*
X29831295Y-32175230D01*
X29856739Y-32193037D01*
X29881294Y-32212400D01*
X29904930Y-32233296D01*
X29927618Y-32255700D01*
X29949330Y-32279588D01*
X29970038Y-32304935D01*
X29989712Y-32331718D01*
X30008325Y-32359912D01*
X30025847Y-32389493D01*
X30042250Y-32420436D01*
X30057505Y-32452718D01*
X30071584Y-32486314D01*
X30084458Y-32521200D01*
X30096098Y-32557352D01*
X30106476Y-32594746D01*
X30115563Y-32633356D01*
X30123330Y-32673160D01*
X30129750Y-32714132D01*
X30134793Y-32756249D01*
X30138430Y-32799487D01*
X30140633Y-32843820D01*
X30141374Y-32889225D01*
X30140665Y-32932627D01*
X30138548Y-32974982D01*
X30135043Y-33016270D01*
X30130167Y-33056467D01*
X30123939Y-33095553D01*
X30116377Y-33133506D01*
X30107500Y-33170303D01*
X30097327Y-33205924D01*
X30085874Y-33240346D01*
X30073161Y-33273548D01*
X30059206Y-33305508D01*
X30044027Y-33336204D01*
X30027643Y-33365614D01*
X30010072Y-33393717D01*
X29991332Y-33420492D01*
X29971442Y-33445915D01*
X29950420Y-33469967D01*
X29928284Y-33492624D01*
X29905053Y-33513865D01*
X29880745Y-33533668D01*
X29855378Y-33552012D01*
X29828971Y-33568875D01*
X29801542Y-33584235D01*
X29773109Y-33598071D01*
X29743691Y-33610360D01*
X29713306Y-33621082D01*
X29681973Y-33630213D01*
X29649709Y-33637733D01*
X29616533Y-33643620D01*
X29582463Y-33647851D01*
X29547518Y-33650406D01*
X29511716Y-33651263D01*
X29488589Y-33650842D01*
X29466453Y-33649606D01*
X29445280Y-33647591D01*
X29425045Y-33644833D01*
X29405723Y-33641370D01*
X29369709Y-33632477D01*
X29337031Y-33621207D01*
X29307480Y-33607854D01*
X29280849Y-33592715D01*
X29256928Y-33576086D01*
X29235510Y-33558261D01*
X29216386Y-33539536D01*
X29199349Y-33520207D01*
X29184189Y-33500569D01*
X29170699Y-33480918D01*
X29158671Y-33461549D01*
X29147896Y-33442758D01*
X29138166Y-33424840D01*
X29133628Y-33416301D01*
X29150237Y-33544773D01*
X29150237Y-33620000D01*
X28778011Y-33620000D01*
X28778011Y-32877990D01*
X29150237Y-32877990D01*
X29150708Y-32907087D01*
X29152100Y-32935036D01*
X29154380Y-32961853D01*
X29157515Y-32987552D01*
X29161474Y-33012147D01*
X29166224Y-33035654D01*
X29171732Y-33058086D01*
X29177966Y-33079460D01*
X29184893Y-33099788D01*
X29192481Y-33119087D01*
X29200698Y-33137370D01*
X29218887Y-33170948D01*
X29239199Y-33200642D01*
X29261376Y-33226567D01*
X29285158Y-33248841D01*
X29310285Y-33267582D01*
X29336497Y-33282907D01*
X29363534Y-33294933D01*
X29391137Y-33303778D01*
X29419045Y-33309559D01*
X29447000Y-33312393D01*
X29460914Y-33312742D01*
X29497172Y-33310488D01*
X29531365Y-33303868D01*
X29563457Y-33293097D01*
X29593408Y-33278388D01*
X29621181Y-33259955D01*
X29646738Y-33238012D01*
X29670041Y-33212774D01*
X29691051Y-33184453D01*
X29709733Y-33153265D01*
X29726046Y-33119423D01*
X29739954Y-33083140D01*
X29745993Y-33064151D01*
X29751418Y-33044632D01*
X29756221Y-33024610D01*
X29760400Y-33004111D01*
X29763949Y-32983163D01*
X29766863Y-32961793D01*
X29769138Y-32940026D01*
X29770769Y-32917890D01*
X29771751Y-32895411D01*
X29772079Y-32872616D01*
X29771550Y-32841508D01*
X29770177Y-32813929D01*
X29767506Y-32782012D01*
X29763121Y-32746727D01*
X29756608Y-32709045D01*
X29752424Y-32689609D01*
X29747553Y-32669938D01*
X29741943Y-32650153D01*
X29735542Y-32630375D01*
X29728299Y-32610727D01*
X29720160Y-32591329D01*
X29711076Y-32572303D01*
X29700994Y-32553770D01*
X29689862Y-32535852D01*
X29677628Y-32518670D01*
X29664241Y-32502345D01*
X29649649Y-32486999D01*
X29633799Y-32472753D01*
X29616641Y-32459728D01*
X29598123Y-32448046D01*
X29578192Y-32437828D01*
X29556797Y-32429196D01*
X29533886Y-32422271D01*
X29509408Y-32417174D01*
X29483310Y-32414027D01*
X29455540Y-32412951D01*
X29429522Y-32413924D01*
X29405019Y-32416773D01*
X29381985Y-32421400D01*
X29360376Y-32427704D01*
X29340146Y-32435585D01*
X29321250Y-32444942D01*
X29303643Y-32455675D01*
X29287280Y-32467685D01*
X29272115Y-32480870D01*
X29258104Y-32495130D01*
X29245201Y-32510365D01*
X29233360Y-32526476D01*
X29222538Y-32543360D01*
X29212689Y-32560920D01*
X29203767Y-32579053D01*
X29195727Y-32597660D01*
X29188525Y-32616641D01*
X29182114Y-32635894D01*
X29176451Y-32655321D01*
X29171489Y-32674821D01*
X29167183Y-32694293D01*
X29163489Y-32713637D01*
X29157755Y-32751541D01*
X29153924Y-32787730D01*
X29151634Y-32821403D01*
X29150526Y-32851757D01*
X29150237Y-32877990D01*
X28778011Y-32877990D01*
X28778011Y-31587899D01*
X29150237Y-31587899D01*
X29150237Y-32169685D01*
G37*
G36*
X27166496Y-33620000D02*
G01*
X27166496Y-33326420D01*
X28113182Y-33326420D01*
X28097025Y-33295131D01*
X28080943Y-33265726D01*
X28064613Y-33237903D01*
X28047709Y-33211358D01*
X28029907Y-33185790D01*
X28010880Y-33160895D01*
X27990305Y-33136370D01*
X27967857Y-33111913D01*
X27943211Y-33087222D01*
X27916041Y-33061993D01*
X27886024Y-33035925D01*
X27869846Y-33022481D01*
X27852834Y-33008713D01*
X27834948Y-32994584D01*
X27816146Y-32980056D01*
X27796389Y-32965091D01*
X27775636Y-32949651D01*
X27753846Y-32933699D01*
X27730979Y-32917195D01*
X27706993Y-32900104D01*
X27681849Y-32882386D01*
X27656996Y-32864888D01*
X27632381Y-32847363D01*
X27608038Y-32829786D01*
X27584004Y-32812129D01*
X27560315Y-32794367D01*
X27537008Y-32776473D01*
X27514118Y-32758420D01*
X27491683Y-32740183D01*
X27469737Y-32721735D01*
X27448318Y-32703049D01*
X27427462Y-32684100D01*
X27407204Y-32664860D01*
X27387582Y-32645304D01*
X27368631Y-32625404D01*
X27350387Y-32605136D01*
X27332887Y-32584471D01*
X27316167Y-32563384D01*
X27300263Y-32541849D01*
X27285211Y-32519838D01*
X27271049Y-32497327D01*
X27257811Y-32474287D01*
X27245534Y-32450694D01*
X27234254Y-32426520D01*
X27224008Y-32401739D01*
X27214832Y-32376325D01*
X27206761Y-32350251D01*
X27199833Y-32323491D01*
X27194083Y-32296019D01*
X27189548Y-32267808D01*
X27186264Y-32238832D01*
X27184267Y-32209064D01*
X27183593Y-32178478D01*
X27184385Y-32144801D01*
X27186746Y-32111574D01*
X27190653Y-32078837D01*
X27196083Y-32046631D01*
X27203014Y-32014997D01*
X27211424Y-31983975D01*
X27221289Y-31953607D01*
X27232587Y-31923931D01*
X27245295Y-31894990D01*
X27259392Y-31866824D01*
X27274853Y-31839473D01*
X27291657Y-31812978D01*
X27309780Y-31787380D01*
X27329201Y-31762719D01*
X27349896Y-31739036D01*
X27371844Y-31716371D01*
X27395020Y-31694765D01*
X27419404Y-31674259D01*
X27444971Y-31654893D01*
X27471700Y-31636708D01*
X27499567Y-31619744D01*
X27528551Y-31604042D01*
X27558629Y-31589643D01*
X27589777Y-31576588D01*
X27621973Y-31564916D01*
X27655196Y-31554668D01*
X27689421Y-31545886D01*
X27724627Y-31538610D01*
X27760790Y-31532879D01*
X27797889Y-31528736D01*
X27835900Y-31526220D01*
X27874801Y-31525373D01*
X27932381Y-31527033D01*
X27986492Y-31531897D01*
X28037243Y-31539785D01*
X28084742Y-31550520D01*
X28129098Y-31563926D01*
X28170419Y-31579823D01*
X28208815Y-31598035D01*
X28244393Y-31618384D01*
X28277264Y-31640691D01*
X28307534Y-31664781D01*
X28335314Y-31690474D01*
X28360711Y-31717594D01*
X28383835Y-31745962D01*
X28404793Y-31775401D01*
X28423696Y-31805734D01*
X28440650Y-31836782D01*
X28455766Y-31868369D01*
X28469151Y-31900316D01*
X28480915Y-31932446D01*
X28491166Y-31964581D01*
X28500012Y-31996543D01*
X28507563Y-32028156D01*
X28513927Y-32059240D01*
X28519212Y-32089620D01*
X28523529Y-32119116D01*
X28526984Y-32147552D01*
X28529687Y-32174749D01*
X28531746Y-32200531D01*
X28533271Y-32224719D01*
X28534369Y-32247136D01*
X28535150Y-32267604D01*
X28535722Y-32285945D01*
X28180104Y-32285945D01*
X28179506Y-32255702D01*
X28178368Y-32222737D01*
X28176296Y-32187695D01*
X28172899Y-32151222D01*
X28167785Y-32113962D01*
X28160561Y-32076559D01*
X28150836Y-32039659D01*
X28138217Y-32003906D01*
X28122312Y-31969944D01*
X28102729Y-31938419D01*
X28079076Y-31909975D01*
X28050961Y-31885257D01*
X28017991Y-31864910D01*
X27999564Y-31856576D01*
X27979775Y-31849578D01*
X27958578Y-31843994D01*
X27935921Y-31839906D01*
X27911757Y-31837393D01*
X27886036Y-31836538D01*
X27852024Y-31838237D01*
X27819316Y-31843237D01*
X27788032Y-31851392D01*
X27758297Y-31862558D01*
X27730233Y-31876588D01*
X27703964Y-31893339D01*
X27679613Y-31912664D01*
X27657302Y-31934419D01*
X27637156Y-31958457D01*
X27619296Y-31984634D01*
X27603846Y-32012805D01*
X27590929Y-32042824D01*
X27580669Y-32074546D01*
X27573187Y-32107826D01*
X27568608Y-32142519D01*
X27567055Y-32178478D01*
X27568132Y-32211620D01*
X27571482Y-32243436D01*
X27577281Y-32274184D01*
X27585709Y-32304118D01*
X27596941Y-32333494D01*
X27611156Y-32362568D01*
X27628530Y-32391594D01*
X27649242Y-32420828D01*
X27673469Y-32450526D01*
X27686956Y-32465629D01*
X27701388Y-32480943D01*
X27716788Y-32496501D01*
X27733177Y-32512335D01*
X27750578Y-32528476D01*
X27769013Y-32544957D01*
X27788504Y-32561809D01*
X27809074Y-32579064D01*
X27830744Y-32596755D01*
X27853536Y-32614913D01*
X27877474Y-32633569D01*
X27902578Y-32652757D01*
X27928872Y-32672508D01*
X27956378Y-32692854D01*
X27998722Y-32724607D01*
X28039143Y-32755693D01*
X28077687Y-32786161D01*
X28114403Y-32816060D01*
X28149339Y-32845438D01*
X28182542Y-32874345D01*
X28214061Y-32902828D01*
X28243943Y-32930937D01*
X28272237Y-32958720D01*
X28298990Y-32986227D01*
X28324251Y-33013506D01*
X28348067Y-33040605D01*
X28370486Y-33067574D01*
X28391556Y-33094460D01*
X28411326Y-33121314D01*
X28429842Y-33148183D01*
X28447154Y-33175117D01*
X28463309Y-33202164D01*
X28478354Y-33229373D01*
X28492338Y-33256792D01*
X28505309Y-33284471D01*
X28517315Y-33312458D01*
X28528403Y-33340802D01*
X28538622Y-33369551D01*
X28548020Y-33398755D01*
X28556644Y-33428462D01*
X28564542Y-33458721D01*
X28571763Y-33489580D01*
X28578354Y-33521089D01*
X28584363Y-33553296D01*
X28589839Y-33586250D01*
X28594829Y-33620000D01*
X27166496Y-33620000D01*
G37*
G36*
X26385968Y-31526527D02*
G01*
X26425841Y-31529932D01*
X26464476Y-31535505D01*
X26501869Y-31543161D01*
X26538015Y-31552816D01*
X26572909Y-31564386D01*
X26606547Y-31577788D01*
X26638924Y-31592937D01*
X26670035Y-31609748D01*
X26699876Y-31628138D01*
X26728441Y-31648024D01*
X26755727Y-31669320D01*
X26781727Y-31691942D01*
X26806438Y-31715807D01*
X26829855Y-31740831D01*
X26851973Y-31766929D01*
X26872787Y-31794017D01*
X26892292Y-31822012D01*
X26910484Y-31850829D01*
X26927359Y-31880384D01*
X26942910Y-31910593D01*
X26957135Y-31941371D01*
X26970027Y-31972636D01*
X26981582Y-32004303D01*
X26991795Y-32036287D01*
X27000662Y-32068505D01*
X27008178Y-32100872D01*
X27014338Y-32133305D01*
X27019137Y-32165719D01*
X27022571Y-32198031D01*
X27024635Y-32230155D01*
X27025324Y-32262009D01*
X27024526Y-32297622D01*
X27022157Y-32332631D01*
X27018254Y-32367002D01*
X27012855Y-32400699D01*
X27005998Y-32433689D01*
X26997719Y-32465936D01*
X26988057Y-32497407D01*
X26977048Y-32528066D01*
X26964730Y-32557880D01*
X26951142Y-32586813D01*
X26936319Y-32614831D01*
X26920301Y-32641900D01*
X26903123Y-32667986D01*
X26884824Y-32693052D01*
X26865441Y-32717066D01*
X26845012Y-32739993D01*
X26823573Y-32761797D01*
X26801164Y-32782445D01*
X26777820Y-32801902D01*
X26753580Y-32820133D01*
X26728481Y-32837104D01*
X26702560Y-32852780D01*
X26675855Y-32867128D01*
X26648404Y-32880112D01*
X26620243Y-32891697D01*
X26591411Y-32901850D01*
X26561945Y-32910535D01*
X26531882Y-32917719D01*
X26501260Y-32923367D01*
X26470116Y-32927443D01*
X26438488Y-32929915D01*
X26406413Y-32930746D01*
X26384978Y-32930290D01*
X26361700Y-32928811D01*
X26336840Y-32926148D01*
X26310662Y-32922137D01*
X26283427Y-32916614D01*
X26255399Y-32909417D01*
X26226840Y-32900382D01*
X26198012Y-32889347D01*
X26169179Y-32876148D01*
X26140603Y-32860622D01*
X26112546Y-32842606D01*
X26085271Y-32821936D01*
X26059041Y-32798450D01*
X26034119Y-32771985D01*
X26010766Y-32742376D01*
X25989246Y-32709462D01*
X25992446Y-32735383D01*
X25995757Y-32761710D01*
X25999225Y-32788363D01*
X26002893Y-32815260D01*
X26006807Y-32842322D01*
X26011013Y-32869467D01*
X26015555Y-32896615D01*
X26020478Y-32923686D01*
X26025828Y-32950599D01*
X26031650Y-32977272D01*
X26037988Y-33003627D01*
X26044887Y-33029582D01*
X26052394Y-33055056D01*
X26060552Y-33079969D01*
X26069408Y-33104240D01*
X26079005Y-33127789D01*
X26089390Y-33150535D01*
X26100606Y-33172398D01*
X26112700Y-33193297D01*
X26125717Y-33213151D01*
X26139700Y-33231880D01*
X26154697Y-33249403D01*
X26170750Y-33265640D01*
X26187907Y-33280510D01*
X26206211Y-33293932D01*
X26225708Y-33305826D01*
X26246443Y-33316111D01*
X26268461Y-33324707D01*
X26291807Y-33331533D01*
X26316526Y-33336509D01*
X26342664Y-33339553D01*
X26370265Y-33340586D01*
X26398389Y-33339282D01*
X26425038Y-33335467D01*
X26450179Y-33329287D01*
X26473778Y-33320886D01*
X26495803Y-33310410D01*
X26516221Y-33298004D01*
X26534999Y-33283814D01*
X26552103Y-33267984D01*
X26567502Y-33250661D01*
X26581163Y-33231988D01*
X26593051Y-33212112D01*
X26603135Y-33191178D01*
X26611381Y-33169330D01*
X26617757Y-33146715D01*
X26622230Y-33123477D01*
X26624766Y-33099762D01*
X26994549Y-33099762D01*
X26988183Y-33133461D01*
X26981651Y-33165061D01*
X26974846Y-33194729D01*
X26967660Y-33222632D01*
X26959984Y-33248938D01*
X26951711Y-33273814D01*
X26942732Y-33297428D01*
X26932939Y-33319947D01*
X26922225Y-33341539D01*
X26910481Y-33362371D01*
X26897600Y-33382610D01*
X26883472Y-33402425D01*
X26867991Y-33421982D01*
X26851048Y-33441448D01*
X26832535Y-33460992D01*
X26812344Y-33480781D01*
X26789967Y-33500647D01*
X26766818Y-33519382D01*
X26742928Y-33536965D01*
X26718326Y-33553375D01*
X26693043Y-33568591D01*
X26667109Y-33582593D01*
X26640554Y-33595360D01*
X26613408Y-33606871D01*
X26585701Y-33617106D01*
X26557463Y-33626044D01*
X26528725Y-33633663D01*
X26499515Y-33639943D01*
X26469864Y-33644864D01*
X26439803Y-33648405D01*
X26409361Y-33650545D01*
X26378569Y-33651263D01*
X26312113Y-33648570D01*
X26249682Y-33640694D01*
X26191149Y-33627938D01*
X26136391Y-33610607D01*
X26085280Y-33589003D01*
X26037691Y-33563431D01*
X25993500Y-33534194D01*
X25952579Y-33501595D01*
X25914804Y-33465939D01*
X25880049Y-33427529D01*
X25848188Y-33386669D01*
X25819096Y-33343663D01*
X25792648Y-33298813D01*
X25768717Y-33252424D01*
X25747178Y-33204800D01*
X25727906Y-33156243D01*
X25710775Y-33107059D01*
X25695659Y-33057550D01*
X25682433Y-33008019D01*
X25670971Y-32958772D01*
X25661147Y-32910111D01*
X25652837Y-32862340D01*
X25645914Y-32815763D01*
X25640253Y-32770683D01*
X25635729Y-32727404D01*
X25632215Y-32686230D01*
X25629586Y-32647465D01*
X25627717Y-32611411D01*
X25626482Y-32578373D01*
X25625755Y-32548655D01*
X25625411Y-32522559D01*
X25625324Y-32500390D01*
X25625783Y-32459902D01*
X25627190Y-32418842D01*
X25629594Y-32377333D01*
X25633041Y-32335497D01*
X25637578Y-32293455D01*
X25643253Y-32251329D01*
X25647086Y-32227815D01*
X26005854Y-32227815D01*
X26007198Y-32264093D01*
X26011225Y-32300187D01*
X26017926Y-32335801D01*
X26027294Y-32370636D01*
X26039321Y-32404395D01*
X26054000Y-32436780D01*
X26071321Y-32467494D01*
X26091278Y-32496238D01*
X26113863Y-32522716D01*
X26139067Y-32546629D01*
X26166883Y-32567679D01*
X26197303Y-32585570D01*
X26230318Y-32600003D01*
X26265922Y-32610681D01*
X26304107Y-32617306D01*
X26324164Y-32619006D01*
X26344863Y-32619581D01*
X26378253Y-32617651D01*
X26410043Y-32611975D01*
X26440157Y-32602721D01*
X26468519Y-32590058D01*
X26495052Y-32574155D01*
X26519679Y-32555181D01*
X26542325Y-32533304D01*
X26562911Y-32508695D01*
X26581363Y-32481520D01*
X26597602Y-32451950D01*
X26611554Y-32420153D01*
X26623140Y-32386298D01*
X26632285Y-32350554D01*
X26638912Y-32313090D01*
X26642944Y-32274075D01*
X26643963Y-32254038D01*
X26644305Y-32233677D01*
X26643891Y-32211113D01*
X26642661Y-32189219D01*
X26640636Y-32167999D01*
X26637837Y-32147454D01*
X26634285Y-32127588D01*
X26629999Y-32108404D01*
X26619308Y-32072095D01*
X26605931Y-32038551D01*
X26590029Y-32007796D01*
X26571767Y-31979855D01*
X26551310Y-31954752D01*
X26528820Y-31932511D01*
X26504462Y-31913156D01*
X26478399Y-31896712D01*
X26450796Y-31883204D01*
X26421816Y-31872655D01*
X26391624Y-31865090D01*
X26360382Y-31860533D01*
X26328255Y-31859009D01*
X26293239Y-31860784D01*
X26259705Y-31866020D01*
X26227759Y-31874584D01*
X26197509Y-31886341D01*
X26169062Y-31901158D01*
X26142525Y-31918901D01*
X26118007Y-31939435D01*
X26095614Y-31962629D01*
X26075453Y-31988346D01*
X26057632Y-32016455D01*
X26042258Y-32046820D01*
X26029439Y-32079308D01*
X26019282Y-32113785D01*
X26011894Y-32150118D01*
X26007382Y-32188173D01*
X26006239Y-32207804D01*
X26005854Y-32227815D01*
X25647086Y-32227815D01*
X25650113Y-32209241D01*
X25658205Y-32167312D01*
X25667577Y-32125664D01*
X25678275Y-32084420D01*
X25690347Y-32043700D01*
X25703840Y-32003626D01*
X25718802Y-31964321D01*
X25735279Y-31925905D01*
X25753319Y-31888501D01*
X25772969Y-31852231D01*
X25794276Y-31817215D01*
X25817287Y-31783577D01*
X25842051Y-31751437D01*
X25868613Y-31720917D01*
X25897021Y-31692139D01*
X25927323Y-31665225D01*
X25959565Y-31640297D01*
X25993795Y-31617475D01*
X26030060Y-31596883D01*
X26068407Y-31578641D01*
X26108884Y-31562872D01*
X26151538Y-31549697D01*
X26196415Y-31539238D01*
X26243564Y-31531616D01*
X26293031Y-31526954D01*
X26344863Y-31525373D01*
X26385968Y-31526527D01*
G37*
G36*
X23552191Y-32169685D02*
G01*
X23535582Y-32326489D01*
X23549631Y-32303107D01*
X23560741Y-32285582D01*
X23573444Y-32266932D01*
X23587911Y-32247524D01*
X23604312Y-32227724D01*
X23622818Y-32207897D01*
X23643598Y-32188408D01*
X23666824Y-32169625D01*
X23692665Y-32151911D01*
X23721291Y-32135633D01*
X23752873Y-32121156D01*
X23787582Y-32108847D01*
X23825587Y-32099070D01*
X23845879Y-32095246D01*
X23867059Y-32092192D01*
X23889149Y-32089954D01*
X23912169Y-32088577D01*
X23936140Y-32088108D01*
X23968912Y-32089016D01*
X24001080Y-32091723D01*
X24032616Y-32096204D01*
X24063490Y-32102436D01*
X24093675Y-32110394D01*
X24123141Y-32120054D01*
X24151860Y-32131392D01*
X24179803Y-32144383D01*
X24206942Y-32159004D01*
X24233249Y-32175230D01*
X24258693Y-32193037D01*
X24283248Y-32212400D01*
X24306883Y-32233296D01*
X24329572Y-32255700D01*
X24351284Y-32279588D01*
X24371992Y-32304935D01*
X24391666Y-32331718D01*
X24410279Y-32359912D01*
X24427801Y-32389493D01*
X24444204Y-32420436D01*
X24459459Y-32452718D01*
X24473538Y-32486314D01*
X24486411Y-32521200D01*
X24498052Y-32557352D01*
X24508430Y-32594746D01*
X24517517Y-32633356D01*
X24525284Y-32673160D01*
X24531704Y-32714132D01*
X24536747Y-32756249D01*
X24540384Y-32799487D01*
X24542587Y-32843820D01*
X24543328Y-32889225D01*
X24542619Y-32932627D01*
X24540502Y-32974982D01*
X24536996Y-33016270D01*
X24532121Y-33056467D01*
X24525893Y-33095553D01*
X24518331Y-33133506D01*
X24509454Y-33170303D01*
X24499281Y-33205924D01*
X24487828Y-33240346D01*
X24475115Y-33273548D01*
X24461160Y-33305508D01*
X24445981Y-33336204D01*
X24429597Y-33365614D01*
X24412026Y-33393717D01*
X24393286Y-33420492D01*
X24373396Y-33445915D01*
X24352374Y-33469967D01*
X24330238Y-33492624D01*
X24307007Y-33513865D01*
X24282699Y-33533668D01*
X24257332Y-33552012D01*
X24230925Y-33568875D01*
X24203496Y-33584235D01*
X24175063Y-33598071D01*
X24145645Y-33610360D01*
X24115260Y-33621082D01*
X24083927Y-33630213D01*
X24051663Y-33637733D01*
X24018487Y-33643620D01*
X23984417Y-33647851D01*
X23949472Y-33650406D01*
X23913670Y-33651263D01*
X23890543Y-33650842D01*
X23868407Y-33649606D01*
X23847234Y-33647591D01*
X23826999Y-33644833D01*
X23807676Y-33641370D01*
X23771663Y-33632477D01*
X23738985Y-33621207D01*
X23709434Y-33607854D01*
X23682802Y-33592715D01*
X23658882Y-33576086D01*
X23637464Y-33558261D01*
X23618340Y-33539536D01*
X23601302Y-33520207D01*
X23586143Y-33500569D01*
X23572653Y-33480918D01*
X23560625Y-33461549D01*
X23549850Y-33442758D01*
X23540120Y-33424840D01*
X23535582Y-33416301D01*
X23552191Y-33544773D01*
X23552191Y-33620000D01*
X23179965Y-33620000D01*
X23179965Y-32877990D01*
X23552191Y-32877990D01*
X23552662Y-32907087D01*
X23554054Y-32935036D01*
X23556334Y-32961853D01*
X23559469Y-32987552D01*
X23563428Y-33012147D01*
X23568178Y-33035654D01*
X23573686Y-33058086D01*
X23579920Y-33079460D01*
X23586847Y-33099788D01*
X23594435Y-33119087D01*
X23602652Y-33137370D01*
X23620840Y-33170948D01*
X23641153Y-33200642D01*
X23663330Y-33226567D01*
X23687112Y-33248841D01*
X23712239Y-33267582D01*
X23738450Y-33282907D01*
X23765488Y-33294933D01*
X23793090Y-33303778D01*
X23820999Y-33309559D01*
X23848954Y-33312393D01*
X23862868Y-33312742D01*
X23899126Y-33310488D01*
X23933319Y-33303868D01*
X23965411Y-33293097D01*
X23995362Y-33278388D01*
X24023135Y-33259955D01*
X24048692Y-33238012D01*
X24071994Y-33212774D01*
X24093005Y-33184453D01*
X24111687Y-33153265D01*
X24128000Y-33119423D01*
X24141908Y-33083140D01*
X24147947Y-33064151D01*
X24153372Y-33044632D01*
X24158175Y-33024610D01*
X24162354Y-33004111D01*
X24165903Y-32983163D01*
X24168817Y-32961793D01*
X24171092Y-32940026D01*
X24172723Y-32917890D01*
X24173705Y-32895411D01*
X24174033Y-32872616D01*
X24173504Y-32841508D01*
X24172131Y-32813929D01*
X24169460Y-32782012D01*
X24165075Y-32746727D01*
X24158562Y-32709045D01*
X24154378Y-32689609D01*
X24149507Y-32669938D01*
X24143897Y-32650153D01*
X24137496Y-32630375D01*
X24130252Y-32610727D01*
X24122114Y-32591329D01*
X24113030Y-32572303D01*
X24102948Y-32553770D01*
X24091816Y-32535852D01*
X24079582Y-32518670D01*
X24066195Y-32502345D01*
X24051603Y-32486999D01*
X24035753Y-32472753D01*
X24018595Y-32459728D01*
X24000077Y-32448046D01*
X23980146Y-32437828D01*
X23958751Y-32429196D01*
X23935840Y-32422271D01*
X23911362Y-32417174D01*
X23885264Y-32414027D01*
X23857494Y-32412951D01*
X23831476Y-32413924D01*
X23806973Y-32416773D01*
X23783939Y-32421400D01*
X23762330Y-32427704D01*
X23742100Y-32435585D01*
X23723204Y-32444942D01*
X23705597Y-32455675D01*
X23689234Y-32467685D01*
X23674069Y-32480870D01*
X23660058Y-32495130D01*
X23647154Y-32510365D01*
X23635314Y-32526476D01*
X23624492Y-32543360D01*
X23614643Y-32560920D01*
X23605721Y-32579053D01*
X23597681Y-32597660D01*
X23590479Y-32616641D01*
X23584068Y-32635894D01*
X23578405Y-32655321D01*
X23573443Y-32674821D01*
X23569137Y-32694293D01*
X23565443Y-32713637D01*
X23559709Y-32751541D01*
X23555878Y-32787730D01*
X23553588Y-32821403D01*
X23552480Y-32851757D01*
X23552191Y-32877990D01*
X23179965Y-32877990D01*
X23179965Y-31587899D01*
X23552191Y-31587899D01*
X23552191Y-32169685D01*
G37*
G36*
X22317389Y-32088856D02*
G01*
X22351879Y-32091103D01*
X22386032Y-32094853D01*
X22419795Y-32100113D01*
X22453113Y-32106885D01*
X22485934Y-32115176D01*
X22518202Y-32124989D01*
X22549864Y-32136331D01*
X22580866Y-32149205D01*
X22611155Y-32163617D01*
X22640677Y-32179572D01*
X22669377Y-32197073D01*
X22697202Y-32216127D01*
X22724098Y-32236737D01*
X22750011Y-32258909D01*
X22774888Y-32282648D01*
X22798674Y-32307958D01*
X22821316Y-32334844D01*
X22842759Y-32363311D01*
X22862951Y-32393364D01*
X22881836Y-32425008D01*
X22899362Y-32458247D01*
X22915475Y-32493087D01*
X22930119Y-32529532D01*
X22943243Y-32567586D01*
X22954792Y-32607256D01*
X22964711Y-32648545D01*
X22972948Y-32691459D01*
X22979448Y-32736002D01*
X22984157Y-32782179D01*
X22987023Y-32829995D01*
X22987990Y-32879455D01*
X22987094Y-32925679D01*
X22984434Y-32970555D01*
X22980046Y-33014076D01*
X22973968Y-33056234D01*
X22966238Y-33097020D01*
X22956894Y-33136428D01*
X22945974Y-33174449D01*
X22933516Y-33211076D01*
X22919557Y-33246300D01*
X22904136Y-33280114D01*
X22887289Y-33312509D01*
X22869056Y-33343478D01*
X22849473Y-33373014D01*
X22828579Y-33401107D01*
X22806412Y-33427751D01*
X22783009Y-33452937D01*
X22758408Y-33476658D01*
X22732647Y-33498906D01*
X22705764Y-33519672D01*
X22677797Y-33538949D01*
X22648783Y-33556729D01*
X22618760Y-33573005D01*
X22587767Y-33587767D01*
X22555840Y-33601010D01*
X22523019Y-33612723D01*
X22489340Y-33622901D01*
X22454841Y-33631534D01*
X22419561Y-33638615D01*
X22383537Y-33644137D01*
X22346808Y-33648090D01*
X22309410Y-33650468D01*
X22271381Y-33651263D01*
X22226497Y-33650246D01*
X22183678Y-33647267D01*
X22142871Y-33642433D01*
X22104025Y-33635850D01*
X22067091Y-33627628D01*
X22032015Y-33617871D01*
X21998748Y-33606688D01*
X21967238Y-33594186D01*
X21937434Y-33580472D01*
X21909284Y-33565652D01*
X21882738Y-33549835D01*
X21857745Y-33533127D01*
X21834252Y-33515636D01*
X21812210Y-33497468D01*
X21791567Y-33478731D01*
X21772271Y-33459532D01*
X21754272Y-33439978D01*
X21737518Y-33420176D01*
X21721959Y-33400234D01*
X21707543Y-33380258D01*
X21694218Y-33360356D01*
X21681935Y-33340635D01*
X21670641Y-33321201D01*
X21660286Y-33302163D01*
X21650817Y-33283627D01*
X21642185Y-33265701D01*
X21627225Y-33232106D01*
X21614995Y-33202234D01*
X21605087Y-33176943D01*
X21977313Y-33176943D01*
X21989798Y-33205069D01*
X22004015Y-33230038D01*
X22019727Y-33252034D01*
X22036694Y-33271244D01*
X22054681Y-33287851D01*
X22073449Y-33302042D01*
X22092761Y-33314002D01*
X22112379Y-33323916D01*
X22132066Y-33331970D01*
X22151584Y-33338348D01*
X22170695Y-33343237D01*
X22198081Y-33348182D01*
X22223216Y-33350818D01*
X22245298Y-33351770D01*
X22251842Y-33351821D01*
X22278942Y-33350976D01*
X22304670Y-33348506D01*
X22329062Y-33344504D01*
X22352155Y-33339064D01*
X22373985Y-33332281D01*
X22394589Y-33324248D01*
X22414002Y-33315060D01*
X22432261Y-33304812D01*
X22449402Y-33293596D01*
X22465462Y-33281509D01*
X22480477Y-33268642D01*
X22507518Y-33240952D01*
X22530813Y-33211278D01*
X22550655Y-33180374D01*
X22567333Y-33148995D01*
X22581138Y-33117892D01*
X22592361Y-33087821D01*
X22601291Y-33059533D01*
X22608221Y-33033784D01*
X22613439Y-33011325D01*
X22618695Y-32985457D01*
X21576755Y-32985457D01*
X21577597Y-32965561D01*
X21578487Y-32945717D01*
X21579447Y-32925925D01*
X21580496Y-32906184D01*
X21581655Y-32886493D01*
X21582943Y-32866854D01*
X21584382Y-32847266D01*
X21585990Y-32827729D01*
X21587789Y-32808243D01*
X21592038Y-32769422D01*
X21595410Y-32744633D01*
X21977313Y-32744633D01*
X22618695Y-32744633D01*
X22615086Y-32725044D01*
X22610479Y-32702228D01*
X22604586Y-32676805D01*
X22597117Y-32649394D01*
X22587786Y-32620614D01*
X22576302Y-32591086D01*
X22562379Y-32561430D01*
X22545727Y-32532264D01*
X22526058Y-32504209D01*
X22503085Y-32477884D01*
X22476517Y-32453909D01*
X22446068Y-32432903D01*
X22411449Y-32415487D01*
X22392485Y-32408318D01*
X22372371Y-32402279D01*
X22351070Y-32397447D01*
X22328546Y-32393900D01*
X22304763Y-32391715D01*
X22279685Y-32390969D01*
X22245952Y-32392371D01*
X22214019Y-32396569D01*
X22183926Y-32403556D01*
X22155709Y-32413325D01*
X22129408Y-32425868D01*
X22105059Y-32441176D01*
X22082700Y-32459241D01*
X22062370Y-32480057D01*
X22044107Y-32503615D01*
X22027948Y-32529906D01*
X22013932Y-32558924D01*
X22002096Y-32590661D01*
X21992478Y-32625108D01*
X21985116Y-32662257D01*
X21982293Y-32681843D01*
X21980049Y-32702102D01*
X21978387Y-32723032D01*
X21977313Y-32744633D01*
X21595410Y-32744633D01*
X21597291Y-32730804D01*
X21603710Y-32692386D01*
X21611456Y-32654170D01*
X21615878Y-32635137D01*
X21620691Y-32616154D01*
X21625918Y-32597220D01*
X21631577Y-32578336D01*
X21637690Y-32559502D01*
X21644276Y-32540718D01*
X21651355Y-32521983D01*
X21658949Y-32503297D01*
X21667076Y-32484661D01*
X21675757Y-32466074D01*
X21685013Y-32447536D01*
X21694864Y-32429046D01*
X21705329Y-32410606D01*
X21716429Y-32392215D01*
X21728185Y-32373872D01*
X21750109Y-32342569D01*
X21773907Y-32312647D01*
X21799541Y-32284194D01*
X21826974Y-32257300D01*
X21856166Y-32232051D01*
X21887081Y-32208536D01*
X21919681Y-32186843D01*
X21936600Y-32176707D01*
X21953927Y-32167060D01*
X21971655Y-32157912D01*
X21989781Y-32149274D01*
X22008300Y-32141158D01*
X22027206Y-32133575D01*
X22046496Y-32126535D01*
X22066164Y-32120049D01*
X22086206Y-32114129D01*
X22106617Y-32108785D01*
X22127392Y-32104029D01*
X22148526Y-32099871D01*
X22170015Y-32096323D01*
X22191854Y-32093395D01*
X22214039Y-32091099D01*
X22236564Y-32089445D01*
X22259425Y-32088444D01*
X22282616Y-32088108D01*
X22317389Y-32088856D01*
G37*
G36*
X20189455Y-33186713D02*
G01*
X20190172Y-33162641D01*
X20192308Y-33138991D01*
X20195837Y-33115794D01*
X20200736Y-33093084D01*
X20206980Y-33070891D01*
X20214545Y-33049249D01*
X20223407Y-33028189D01*
X20233541Y-33007744D01*
X20244923Y-32987945D01*
X20257528Y-32968826D01*
X20271333Y-32950418D01*
X20286313Y-32932754D01*
X20302443Y-32915865D01*
X20319700Y-32899784D01*
X20338058Y-32884543D01*
X20357494Y-32870174D01*
X20380387Y-32854989D01*
X20401587Y-32841533D01*
X20423237Y-32828908D01*
X20447482Y-32816215D01*
X20466147Y-32807272D01*
X20487554Y-32797634D01*
X20512338Y-32787034D01*
X20541134Y-32775205D01*
X20574579Y-32761883D01*
X20593244Y-32754579D01*
X20613308Y-32746801D01*
X20634852Y-32738516D01*
X20657956Y-32729692D01*
X20682698Y-32720294D01*
X20709158Y-32710290D01*
X20737416Y-32699647D01*
X20767550Y-32688330D01*
X20799641Y-32676307D01*
X20833768Y-32663545D01*
X20855194Y-32655427D01*
X20875488Y-32647676D01*
X20894613Y-32640189D01*
X20921036Y-32629226D01*
X20944639Y-32618276D01*
X20965305Y-32606991D01*
X20982918Y-32595023D01*
X21001454Y-32577403D01*
X21014082Y-32557127D01*
X21020528Y-32533371D01*
X21021346Y-32519930D01*
X21018517Y-32498303D01*
X21009798Y-32475325D01*
X20999183Y-32457990D01*
X20984911Y-32441180D01*
X20966834Y-32425445D01*
X20944806Y-32411337D01*
X20918678Y-32399405D01*
X20898910Y-32392932D01*
X20877211Y-32387834D01*
X20853537Y-32384275D01*
X20827845Y-32382417D01*
X20814228Y-32382177D01*
X20785571Y-32383256D01*
X20759430Y-32386417D01*
X20735699Y-32391541D01*
X20714272Y-32398510D01*
X20695043Y-32407209D01*
X20677907Y-32417519D01*
X20655893Y-32435749D01*
X20637991Y-32456945D01*
X20623844Y-32480710D01*
X20613094Y-32506649D01*
X20605384Y-32534365D01*
X20601756Y-32553634D01*
X20599214Y-32573400D01*
X20598318Y-32583433D01*
X20229023Y-32583433D01*
X20232281Y-32552959D01*
X20235881Y-32524449D01*
X20239901Y-32497750D01*
X20244417Y-32472707D01*
X20249509Y-32449167D01*
X20255255Y-32426975D01*
X20261731Y-32405979D01*
X20269017Y-32386024D01*
X20277190Y-32366956D01*
X20286329Y-32348621D01*
X20296511Y-32330866D01*
X20307814Y-32313537D01*
X20320316Y-32296480D01*
X20334096Y-32279540D01*
X20349230Y-32262565D01*
X20365799Y-32245401D01*
X20391569Y-32221899D01*
X20418229Y-32200775D01*
X20445635Y-32181909D01*
X20473647Y-32165182D01*
X20502123Y-32150476D01*
X20530920Y-32137672D01*
X20559898Y-32126652D01*
X20588914Y-32117295D01*
X20617828Y-32109485D01*
X20646497Y-32103101D01*
X20674779Y-32098025D01*
X20702533Y-32094138D01*
X20729618Y-32091322D01*
X20755891Y-32089457D01*
X20781211Y-32088426D01*
X20805436Y-32088108D01*
X20837414Y-32088703D01*
X20868760Y-32090468D01*
X20899450Y-32093373D01*
X20929457Y-32097391D01*
X20958756Y-32102490D01*
X20987324Y-32108642D01*
X21015133Y-32115818D01*
X21042160Y-32123989D01*
X21068380Y-32133125D01*
X21093766Y-32143197D01*
X21118294Y-32154176D01*
X21141938Y-32166032D01*
X21164675Y-32178737D01*
X21186478Y-32192261D01*
X21207322Y-32206574D01*
X21227182Y-32221648D01*
X21246033Y-32237453D01*
X21263851Y-32253961D01*
X21280609Y-32271141D01*
X21296283Y-32288965D01*
X21310847Y-32307403D01*
X21324277Y-32326426D01*
X21336547Y-32346005D01*
X21347632Y-32366110D01*
X21357507Y-32386713D01*
X21366147Y-32407784D01*
X21373527Y-32429293D01*
X21379621Y-32451213D01*
X21384405Y-32473512D01*
X21387853Y-32496163D01*
X21389940Y-32519135D01*
X21390642Y-32542400D01*
X21390038Y-32567107D01*
X21388240Y-32590698D01*
X21385268Y-32613215D01*
X21381141Y-32634704D01*
X21375878Y-32655206D01*
X21369499Y-32674765D01*
X21362023Y-32693423D01*
X21353471Y-32711225D01*
X21333212Y-32744432D01*
X21308879Y-32774729D01*
X21295234Y-32788895D01*
X21280628Y-32802464D01*
X21265082Y-32815478D01*
X21248614Y-32827981D01*
X21231245Y-32840016D01*
X21212994Y-32851626D01*
X21193880Y-32862855D01*
X21173924Y-32873745D01*
X21153143Y-32884340D01*
X21131559Y-32894683D01*
X21109190Y-32904818D01*
X21086055Y-32914786D01*
X21062176Y-32924633D01*
X21037570Y-32934400D01*
X21012257Y-32944131D01*
X20986257Y-32953870D01*
X20959590Y-32963659D01*
X20932275Y-32973542D01*
X20904331Y-32983561D01*
X20875778Y-32993761D01*
X20853905Y-33001359D01*
X20832972Y-33008690D01*
X20812962Y-33015776D01*
X20793861Y-33022637D01*
X20758316Y-33035773D01*
X20726209Y-33048273D01*
X20697411Y-33060309D01*
X20671793Y-33072054D01*
X20649226Y-33083682D01*
X20629581Y-33095366D01*
X20612729Y-33107279D01*
X20592409Y-33125956D01*
X20577649Y-33146123D01*
X20568015Y-33168363D01*
X20563073Y-33193261D01*
X20562170Y-33211625D01*
X20564251Y-33237335D01*
X20570164Y-33259836D01*
X20579413Y-33279341D01*
X20591502Y-33296065D01*
X20605935Y-33310221D01*
X20622216Y-33322024D01*
X20639850Y-33331688D01*
X20658340Y-33339426D01*
X20677191Y-33345452D01*
X20705059Y-33351750D01*
X20730949Y-33355401D01*
X20753188Y-33357126D01*
X20774266Y-33357678D01*
X20777592Y-33357683D01*
X20798539Y-33357222D01*
X20818354Y-33355871D01*
X20854718Y-33350679D01*
X20886948Y-33342468D01*
X20915307Y-33331602D01*
X20940056Y-33318443D01*
X20961458Y-33303355D01*
X20979777Y-33286699D01*
X20995273Y-33268839D01*
X21008211Y-33250138D01*
X21018853Y-33230958D01*
X21027462Y-33211662D01*
X21034299Y-33192613D01*
X21041809Y-33165295D01*
X21046811Y-33140574D01*
X21049190Y-33126140D01*
X21418974Y-33126140D01*
X21415570Y-33159939D01*
X21411733Y-33191296D01*
X21407409Y-33220392D01*
X21402541Y-33247407D01*
X21397075Y-33272522D01*
X21390955Y-33295916D01*
X21384128Y-33317770D01*
X21376536Y-33338265D01*
X21368127Y-33357581D01*
X21358843Y-33375898D01*
X21348631Y-33393396D01*
X21337435Y-33410256D01*
X21325200Y-33426658D01*
X21311870Y-33442782D01*
X21297392Y-33458809D01*
X21281709Y-33474919D01*
X21266817Y-33489221D01*
X21251564Y-33502740D01*
X21235983Y-33515498D01*
X21220109Y-33527516D01*
X21203976Y-33538817D01*
X21171067Y-33559349D01*
X21137528Y-33577268D01*
X21103629Y-33592746D01*
X21069641Y-33605955D01*
X21035836Y-33617068D01*
X21002485Y-33626257D01*
X20969860Y-33633695D01*
X20938231Y-33639554D01*
X20907869Y-33644007D01*
X20879047Y-33647225D01*
X20852034Y-33649382D01*
X20827102Y-33650650D01*
X20804523Y-33651202D01*
X20794200Y-33651263D01*
X20763670Y-33650756D01*
X20733474Y-33649244D01*
X20703653Y-33646736D01*
X20674249Y-33643243D01*
X20645303Y-33638774D01*
X20616858Y-33633340D01*
X20588955Y-33626951D01*
X20561635Y-33619618D01*
X20534941Y-33611350D01*
X20508915Y-33602158D01*
X20483596Y-33592051D01*
X20459029Y-33581041D01*
X20435253Y-33569137D01*
X20412311Y-33556349D01*
X20390245Y-33542688D01*
X20369096Y-33528164D01*
X20348905Y-33512787D01*
X20329716Y-33496567D01*
X20311568Y-33479515D01*
X20294504Y-33461640D01*
X20278566Y-33442954D01*
X20263795Y-33423465D01*
X20250233Y-33403184D01*
X20237922Y-33382122D01*
X20226903Y-33360289D01*
X20217218Y-33337694D01*
X20208909Y-33314349D01*
X20202017Y-33290262D01*
X20196583Y-33265445D01*
X20192651Y-33239908D01*
X20190261Y-33213660D01*
X20189455Y-33186713D01*
G37*
G36*
X19557843Y-31952309D02*
G01*
X19557843Y-31587899D01*
X19927627Y-31587899D01*
X19927627Y-31952309D01*
X19557843Y-31952309D01*
G37*
G36*
X19557843Y-33620000D02*
G01*
X19557843Y-32119371D01*
X19927627Y-32119371D01*
X19927627Y-33620000D01*
X19557843Y-33620000D01*
G37*
G36*
X18640846Y-32088593D02*
G01*
X18672638Y-32090045D01*
X18704046Y-32092461D01*
X18735024Y-32095838D01*
X18765530Y-32100174D01*
X18795517Y-32105464D01*
X18824942Y-32111707D01*
X18853760Y-32118898D01*
X18881926Y-32127036D01*
X18909395Y-32136116D01*
X18936123Y-32146136D01*
X18962065Y-32157094D01*
X18987177Y-32168985D01*
X19011414Y-32181806D01*
X19034731Y-32195556D01*
X19057084Y-32210230D01*
X19078428Y-32225826D01*
X19098719Y-32242340D01*
X19117911Y-32259770D01*
X19135960Y-32278112D01*
X19152822Y-32297364D01*
X19168452Y-32317522D01*
X19182805Y-32338584D01*
X19195837Y-32360546D01*
X19207503Y-32383405D01*
X19217758Y-32407159D01*
X19226558Y-32431804D01*
X19233858Y-32457337D01*
X19239613Y-32483755D01*
X19243780Y-32511055D01*
X19246312Y-32539234D01*
X19247166Y-32568290D01*
X19246770Y-32588793D01*
X19245608Y-32608547D01*
X19241132Y-32645869D01*
X19234038Y-32680378D01*
X19224627Y-32712195D01*
X19213198Y-32741441D01*
X19200051Y-32768239D01*
X19185486Y-32792710D01*
X19169802Y-32814975D01*
X19153300Y-32835157D01*
X19136279Y-32853377D01*
X19119039Y-32869756D01*
X19101880Y-32884416D01*
X19085101Y-32897480D01*
X19069004Y-32909068D01*
X19046788Y-32923949D01*
X19040048Y-32928304D01*
X19064926Y-32944173D01*
X19082606Y-32955781D01*
X19100836Y-32968249D01*
X19119337Y-32981612D01*
X19137830Y-32995900D01*
X19156037Y-33011149D01*
X19173677Y-33027390D01*
X19190472Y-33044656D01*
X19206143Y-33062981D01*
X19220411Y-33082397D01*
X19232997Y-33102936D01*
X19243622Y-33124633D01*
X19252006Y-33147520D01*
X19257870Y-33171630D01*
X19260936Y-33196996D01*
X19261332Y-33210160D01*
X19259899Y-33234747D01*
X19255775Y-33257286D01*
X19249222Y-33277884D01*
X19240503Y-33296645D01*
X19229881Y-33313674D01*
X19217618Y-33329077D01*
X19196721Y-33349361D01*
X19173610Y-33366578D01*
X19149171Y-33381082D01*
X19124289Y-33393228D01*
X19099852Y-33403371D01*
X19076746Y-33411866D01*
X19062519Y-33416789D01*
X19083438Y-33420600D01*
X19108958Y-33426255D01*
X19127808Y-33431452D01*
X19147626Y-33438071D01*
X19167980Y-33446353D01*
X19188440Y-33456541D01*
X19208576Y-33468874D01*
X19227956Y-33483595D01*
X19246149Y-33500944D01*
X19262726Y-33521162D01*
X19277254Y-33544490D01*
X19289304Y-33571171D01*
X19298444Y-33601444D01*
X19304244Y-33635551D01*
X19306273Y-33673733D01*
X19305434Y-33696316D01*
X19302945Y-33717915D01*
X19298846Y-33738547D01*
X19293179Y-33758230D01*
X19285986Y-33776981D01*
X19277306Y-33794818D01*
X19267182Y-33811758D01*
X19255654Y-33827820D01*
X19242763Y-33843020D01*
X19228552Y-33857375D01*
X19213060Y-33870905D01*
X19196329Y-33883625D01*
X19178401Y-33895554D01*
X19159316Y-33906710D01*
X19139115Y-33917108D01*
X19117840Y-33926769D01*
X19095531Y-33935707D01*
X19072231Y-33943942D01*
X19047979Y-33951491D01*
X19022818Y-33958371D01*
X18996788Y-33964600D01*
X18969930Y-33970196D01*
X18942286Y-33975175D01*
X18913897Y-33979556D01*
X18884804Y-33983355D01*
X18855047Y-33986591D01*
X18824669Y-33989282D01*
X18793710Y-33991443D01*
X18762212Y-33993094D01*
X18730215Y-33994252D01*
X18697761Y-33994933D01*
X18664891Y-33995157D01*
X18621310Y-33994739D01*
X18578784Y-33993489D01*
X18537335Y-33991410D01*
X18496983Y-33988504D01*
X18457751Y-33984775D01*
X18419659Y-33980225D01*
X18382731Y-33974859D01*
X18346986Y-33968679D01*
X18312448Y-33961688D01*
X18279136Y-33953890D01*
X18247073Y-33945287D01*
X18216281Y-33935883D01*
X18186781Y-33925680D01*
X18158594Y-33914683D01*
X18131742Y-33902893D01*
X18106247Y-33890315D01*
X18082130Y-33876951D01*
X18059412Y-33862805D01*
X18038116Y-33847879D01*
X18018263Y-33832177D01*
X17999874Y-33815702D01*
X17982971Y-33798456D01*
X17967576Y-33780444D01*
X17953710Y-33761668D01*
X17941394Y-33742131D01*
X17930650Y-33721837D01*
X17921500Y-33700789D01*
X17913966Y-33678989D01*
X17908068Y-33656441D01*
X17903829Y-33633148D01*
X17901269Y-33609113D01*
X17901088Y-33603879D01*
X18300969Y-33603879D01*
X18302476Y-33626448D01*
X18308808Y-33647958D01*
X18322685Y-33667807D01*
X18339680Y-33681243D01*
X18363595Y-33693154D01*
X18383950Y-33700122D01*
X18408230Y-33706224D01*
X18436776Y-33711384D01*
X18469927Y-33715529D01*
X18508024Y-33718583D01*
X18529032Y-33719677D01*
X18551405Y-33720470D01*
X18575184Y-33720953D01*
X18600411Y-33721116D01*
X18628645Y-33720906D01*
X18655131Y-33720287D01*
X18679926Y-33719278D01*
X18703085Y-33717896D01*
X18724664Y-33716160D01*
X18744719Y-33714087D01*
X18780479Y-33709003D01*
X18810813Y-33702789D01*
X18836167Y-33695588D01*
X18856986Y-33687544D01*
X18880692Y-33674212D01*
X18896708Y-33659793D01*
X18908707Y-33639714D01*
X18913286Y-33619716D01*
X18914019Y-33600949D01*
X18912764Y-33580378D01*
X18907150Y-33556926D01*
X18896964Y-33537272D01*
X18882131Y-33520603D01*
X18862577Y-33506107D01*
X18844768Y-33496171D01*
X18824230Y-33486657D01*
X18800932Y-33477222D01*
X18774842Y-33467523D01*
X18765519Y-33464173D01*
X18739738Y-33465545D01*
X18717381Y-33466363D01*
X18691500Y-33467175D01*
X18663442Y-33467978D01*
X18634552Y-33468770D01*
X18606175Y-33469549D01*
X18579655Y-33470311D01*
X18556339Y-33471055D01*
X18532558Y-33472013D01*
X18524696Y-33472477D01*
X18505117Y-33474790D01*
X18485350Y-33477562D01*
X18465594Y-33480864D01*
X18446050Y-33484765D01*
X18426918Y-33489336D01*
X18399431Y-33497602D01*
X18373998Y-33507770D01*
X18351296Y-33520075D01*
X18332001Y-33534756D01*
X18316788Y-33552047D01*
X18306335Y-33572187D01*
X18301317Y-33595412D01*
X18300969Y-33603879D01*
X17901088Y-33603879D01*
X17900411Y-33584340D01*
X17901365Y-33557173D01*
X17904179Y-33530680D01*
X17908779Y-33504944D01*
X17915094Y-33480046D01*
X17923052Y-33456070D01*
X17932579Y-33433097D01*
X17943603Y-33411209D01*
X17956053Y-33390488D01*
X17969855Y-33371016D01*
X17984936Y-33352876D01*
X17995666Y-33341563D01*
X18017338Y-33321679D01*
X18040565Y-33303871D01*
X18065583Y-33287984D01*
X18092630Y-33273862D01*
X18121945Y-33261348D01*
X18153764Y-33250286D01*
X18188324Y-33240522D01*
X18225865Y-33231898D01*
X18245827Y-33227965D01*
X18266622Y-33224258D01*
X18288282Y-33220759D01*
X18310835Y-33217447D01*
X18334310Y-33214304D01*
X18358739Y-33211309D01*
X18384150Y-33208443D01*
X18410573Y-33205687D01*
X18438039Y-33203021D01*
X18466575Y-33200426D01*
X18496213Y-33197882D01*
X18526982Y-33195370D01*
X18558911Y-33192870D01*
X18592031Y-33190362D01*
X18626371Y-33187828D01*
X18661960Y-33185247D01*
X18690860Y-33182716D01*
X18710415Y-33180737D01*
X18729955Y-33178440D01*
X18758770Y-33174239D01*
X18786353Y-33168916D01*
X18811987Y-33162227D01*
X18834954Y-33153928D01*
X18854539Y-33143776D01*
X18870023Y-33131525D01*
X18883049Y-33111506D01*
X18886175Y-33093412D01*
X18883142Y-33073362D01*
X18871407Y-33054149D01*
X18853660Y-33040378D01*
X18833007Y-33030214D01*
X18812404Y-33022620D01*
X18787990Y-33015254D01*
X18765728Y-33018241D01*
X18745963Y-33020577D01*
X18724059Y-33022643D01*
X18704341Y-33024017D01*
X18682133Y-33025077D01*
X18656937Y-33025760D01*
X18635780Y-33025985D01*
X18628255Y-33026001D01*
X18588340Y-33025320D01*
X18549919Y-33023304D01*
X18512977Y-33019998D01*
X18477498Y-33015443D01*
X18443468Y-33009683D01*
X18410873Y-33002759D01*
X18379697Y-32994715D01*
X18349925Y-32985594D01*
X18321543Y-32975438D01*
X18294535Y-32964290D01*
X18268888Y-32952193D01*
X18244586Y-32939190D01*
X18221613Y-32925323D01*
X18199957Y-32910635D01*
X18179600Y-32895168D01*
X18160530Y-32878967D01*
X18142730Y-32862072D01*
X18126186Y-32844528D01*
X18110884Y-32826377D01*
X18096807Y-32807661D01*
X18083942Y-32788424D01*
X18072274Y-32768708D01*
X18061787Y-32748555D01*
X18052468Y-32728009D01*
X18044300Y-32707113D01*
X18037270Y-32685909D01*
X18031361Y-32664439D01*
X18026561Y-32642748D01*
X18022853Y-32620876D01*
X18020223Y-32598868D01*
X18018655Y-32576766D01*
X18018262Y-32559986D01*
X18351284Y-32559986D01*
X18353817Y-32591926D01*
X18361043Y-32620127D01*
X18372397Y-32644817D01*
X18387317Y-32666231D01*
X18405239Y-32684599D01*
X18425601Y-32700154D01*
X18447839Y-32713127D01*
X18471390Y-32723750D01*
X18495691Y-32732255D01*
X18520178Y-32738874D01*
X18544290Y-32743839D01*
X18567461Y-32747381D01*
X18589130Y-32749732D01*
X18608734Y-32751125D01*
X18633033Y-32751923D01*
X18639490Y-32751960D01*
X18661847Y-32751685D01*
X18689857Y-32750325D01*
X18710824Y-32748419D01*
X18733033Y-32745437D01*
X18755977Y-32741141D01*
X18779146Y-32735294D01*
X18802034Y-32727658D01*
X18824131Y-32717996D01*
X18844931Y-32706069D01*
X18863924Y-32691642D01*
X18880604Y-32674474D01*
X18894461Y-32654331D01*
X18904988Y-32630972D01*
X18911677Y-32604162D01*
X18914019Y-32573663D01*
X18912934Y-32553327D01*
X18909664Y-32533432D01*
X18904188Y-32514097D01*
X18896487Y-32495444D01*
X18886539Y-32477593D01*
X18874323Y-32460663D01*
X18859819Y-32444774D01*
X18843005Y-32430048D01*
X18823862Y-32416604D01*
X18802369Y-32404563D01*
X18778503Y-32394044D01*
X18752246Y-32385169D01*
X18723576Y-32378056D01*
X18692473Y-32372827D01*
X18658915Y-32369601D01*
X18622882Y-32368499D01*
X18596325Y-32369115D01*
X18570259Y-32370997D01*
X18544850Y-32374199D01*
X18520269Y-32378773D01*
X18496684Y-32384772D01*
X18474264Y-32392250D01*
X18453177Y-32401259D01*
X18433593Y-32411852D01*
X18415681Y-32424083D01*
X18399609Y-32438003D01*
X18385547Y-32453667D01*
X18373662Y-32471127D01*
X18364125Y-32490436D01*
X18357103Y-32511646D01*
X18352767Y-32534812D01*
X18351284Y-32559986D01*
X18018262Y-32559986D01*
X18018136Y-32554612D01*
X18018713Y-32531679D01*
X18020316Y-32511568D01*
X18023326Y-32490498D01*
X18027923Y-32469116D01*
X18033190Y-32449952D01*
X18034745Y-32444703D01*
X18020592Y-32429827D01*
X18001066Y-32410957D01*
X17983240Y-32395847D01*
X17966728Y-32384079D01*
X17946087Y-32372865D01*
X17926180Y-32365861D01*
X17906089Y-32362075D01*
X17884899Y-32360517D01*
X17861694Y-32360197D01*
X17855471Y-32360195D01*
X17855471Y-32088108D01*
X17882658Y-32088391D01*
X17907604Y-32089320D01*
X17930562Y-32091013D01*
X17951786Y-32093589D01*
X17971531Y-32097166D01*
X17998928Y-32104671D01*
X18024426Y-32115097D01*
X18048879Y-32128847D01*
X18065026Y-32140057D01*
X18081343Y-32153042D01*
X18098087Y-32167919D01*
X18115509Y-32184807D01*
X18133865Y-32203826D01*
X18153409Y-32225094D01*
X18163705Y-32236608D01*
X18181191Y-32221315D01*
X18202359Y-32204220D01*
X18218744Y-32192179D01*
X18237106Y-32179871D01*
X18257583Y-32167511D01*
X18280311Y-32155313D01*
X18305427Y-32143490D01*
X18333067Y-32132258D01*
X18363369Y-32121828D01*
X18396468Y-32112416D01*
X18432502Y-32104236D01*
X18471607Y-32097501D01*
X18492354Y-32094743D01*
X18513920Y-32092426D01*
X18536322Y-32090577D01*
X18559577Y-32089223D01*
X18583703Y-32088392D01*
X18608715Y-32088108D01*
X18640846Y-32088593D01*
G37*
G36*
X16387083Y-33620000D02*
G01*
X16387083Y-32618604D01*
X16387622Y-32587169D01*
X16389234Y-32556618D01*
X16391910Y-32526958D01*
X16395641Y-32498196D01*
X16400416Y-32470340D01*
X16406229Y-32443397D01*
X16413068Y-32417376D01*
X16420925Y-32392282D01*
X16429792Y-32368125D01*
X16439658Y-32344911D01*
X16450515Y-32322648D01*
X16462353Y-32301344D01*
X16475164Y-32281005D01*
X16488938Y-32261641D01*
X16503667Y-32243257D01*
X16519340Y-32225861D01*
X16535949Y-32209462D01*
X16553486Y-32194066D01*
X16571940Y-32179682D01*
X16591302Y-32166316D01*
X16611564Y-32153976D01*
X16632716Y-32142669D01*
X16654750Y-32132404D01*
X16677655Y-32123188D01*
X16701424Y-32115027D01*
X16726046Y-32107931D01*
X16751513Y-32101905D01*
X16777816Y-32096958D01*
X16804945Y-32093098D01*
X16832891Y-32090331D01*
X16861646Y-32088665D01*
X16891200Y-32088108D01*
X16918239Y-32088651D01*
X16944234Y-32090246D01*
X16969209Y-32092843D01*
X16993186Y-32096392D01*
X17016191Y-32100843D01*
X17038246Y-32106147D01*
X17059376Y-32112253D01*
X17079603Y-32119112D01*
X17098951Y-32126673D01*
X17117444Y-32134888D01*
X17135106Y-32143705D01*
X17168029Y-32162948D01*
X17197910Y-32184004D01*
X17224937Y-32206473D01*
X17249300Y-32229956D01*
X17271186Y-32254053D01*
X17290786Y-32278366D01*
X17308288Y-32302495D01*
X17323881Y-32326041D01*
X17337753Y-32348605D01*
X17350094Y-32369786D01*
X17355750Y-32379734D01*
X17342072Y-32245401D01*
X17342072Y-32119371D01*
X17711367Y-32119371D01*
X17711367Y-33620000D01*
X17342072Y-33620000D01*
X17342072Y-32745122D01*
X17341553Y-32720277D01*
X17340022Y-32696560D01*
X17337516Y-32673950D01*
X17334073Y-32652423D01*
X17329732Y-32631958D01*
X17324530Y-32612532D01*
X17311694Y-32576709D01*
X17295871Y-32544775D01*
X17277363Y-32516553D01*
X17256474Y-32491865D01*
X17233506Y-32470532D01*
X17208764Y-32452375D01*
X17182551Y-32437218D01*
X17155170Y-32424882D01*
X17126925Y-32415188D01*
X17098118Y-32407958D01*
X17069054Y-32403015D01*
X17040036Y-32400179D01*
X17011367Y-32399274D01*
X16978080Y-32400560D01*
X16947418Y-32404364D01*
X16919314Y-32410605D01*
X16893703Y-32419202D01*
X16870520Y-32430075D01*
X16849698Y-32443143D01*
X16831171Y-32458324D01*
X16814874Y-32475539D01*
X16800741Y-32494705D01*
X16788706Y-32515742D01*
X16778703Y-32538570D01*
X16770666Y-32563107D01*
X16764530Y-32589273D01*
X16760228Y-32616987D01*
X16757696Y-32646167D01*
X16756866Y-32676734D01*
X16756866Y-33620000D01*
X16387083Y-33620000D01*
G37*
G36*
X15527438Y-32088856D02*
G01*
X15561928Y-32091103D01*
X15596081Y-32094853D01*
X15629844Y-32100113D01*
X15663162Y-32106885D01*
X15695982Y-32115176D01*
X15728250Y-32124989D01*
X15759913Y-32136331D01*
X15790915Y-32149205D01*
X15821204Y-32163617D01*
X15850726Y-32179572D01*
X15879426Y-32197073D01*
X15907251Y-32216127D01*
X15934147Y-32236737D01*
X15960060Y-32258909D01*
X15984937Y-32282648D01*
X16008723Y-32307958D01*
X16031365Y-32334844D01*
X16052808Y-32363311D01*
X16073000Y-32393364D01*
X16091885Y-32425008D01*
X16109411Y-32458247D01*
X16125523Y-32493087D01*
X16140168Y-32529532D01*
X16153292Y-32567586D01*
X16164840Y-32607256D01*
X16174760Y-32648545D01*
X16182997Y-32691459D01*
X16189497Y-32736002D01*
X16194206Y-32782179D01*
X16197072Y-32829995D01*
X16198039Y-32879455D01*
X16197143Y-32925679D01*
X16194483Y-32970555D01*
X16190094Y-33014076D01*
X16184017Y-33056234D01*
X16176287Y-33097020D01*
X16166943Y-33136428D01*
X16156023Y-33174449D01*
X16143565Y-33211076D01*
X16129606Y-33246300D01*
X16114184Y-33280114D01*
X16097338Y-33312509D01*
X16079105Y-33343478D01*
X16059522Y-33373014D01*
X16038628Y-33401107D01*
X16016461Y-33427751D01*
X15993058Y-33452937D01*
X15968457Y-33476658D01*
X15942696Y-33498906D01*
X15915813Y-33519672D01*
X15887845Y-33538949D01*
X15858831Y-33556729D01*
X15828809Y-33573005D01*
X15797815Y-33587767D01*
X15765889Y-33601010D01*
X15733067Y-33612723D01*
X15699389Y-33622901D01*
X15664890Y-33631534D01*
X15629610Y-33638615D01*
X15593586Y-33644137D01*
X15556856Y-33648090D01*
X15519458Y-33650468D01*
X15481430Y-33651263D01*
X15436546Y-33650246D01*
X15393726Y-33647267D01*
X15352919Y-33642433D01*
X15314074Y-33635850D01*
X15277139Y-33627628D01*
X15242064Y-33617871D01*
X15208797Y-33606688D01*
X15177287Y-33594186D01*
X15147482Y-33580472D01*
X15119333Y-33565652D01*
X15092787Y-33549835D01*
X15067793Y-33533127D01*
X15044301Y-33515636D01*
X15022259Y-33497468D01*
X15001615Y-33478731D01*
X14982320Y-33459532D01*
X14964321Y-33439978D01*
X14947567Y-33420176D01*
X14932008Y-33400234D01*
X14917592Y-33380258D01*
X14904267Y-33360356D01*
X14891984Y-33340635D01*
X14880690Y-33321201D01*
X14870334Y-33302163D01*
X14860866Y-33283627D01*
X14852234Y-33265701D01*
X14837274Y-33232106D01*
X14825044Y-33202234D01*
X14815136Y-33176943D01*
X15187362Y-33176943D01*
X15199847Y-33205069D01*
X15214064Y-33230038D01*
X15229775Y-33252034D01*
X15246743Y-33271244D01*
X15264730Y-33287851D01*
X15283498Y-33302042D01*
X15302810Y-33314002D01*
X15322428Y-33323916D01*
X15342115Y-33331970D01*
X15361633Y-33338348D01*
X15380744Y-33343237D01*
X15408130Y-33348182D01*
X15433265Y-33350818D01*
X15455347Y-33351770D01*
X15461891Y-33351821D01*
X15488990Y-33350976D01*
X15514718Y-33348506D01*
X15539111Y-33344504D01*
X15562204Y-33339064D01*
X15584034Y-33332281D01*
X15604637Y-33324248D01*
X15624051Y-33315060D01*
X15642310Y-33304812D01*
X15659451Y-33293596D01*
X15675511Y-33281509D01*
X15690526Y-33268642D01*
X15717566Y-33240952D01*
X15740862Y-33211278D01*
X15760703Y-33180374D01*
X15777382Y-33148995D01*
X15791187Y-33117892D01*
X15802409Y-33087821D01*
X15811340Y-33059533D01*
X15818270Y-33033784D01*
X15823488Y-33011325D01*
X15828743Y-32985457D01*
X14786803Y-32985457D01*
X14787645Y-32965561D01*
X14788536Y-32945717D01*
X14789496Y-32925925D01*
X14790545Y-32906184D01*
X14791704Y-32886493D01*
X14792992Y-32866854D01*
X14794430Y-32847266D01*
X14796039Y-32827729D01*
X14797838Y-32808243D01*
X14802087Y-32769422D01*
X14805459Y-32744633D01*
X15187362Y-32744633D01*
X15828743Y-32744633D01*
X15825135Y-32725044D01*
X15820528Y-32702228D01*
X15814634Y-32676805D01*
X15807166Y-32649394D01*
X15797834Y-32620614D01*
X15786351Y-32591086D01*
X15772428Y-32561430D01*
X15755776Y-32532264D01*
X15736107Y-32504209D01*
X15713134Y-32477884D01*
X15686566Y-32453909D01*
X15656117Y-32432903D01*
X15621498Y-32415487D01*
X15602534Y-32408318D01*
X15582420Y-32402279D01*
X15561119Y-32397447D01*
X15538595Y-32393900D01*
X15514812Y-32391715D01*
X15489734Y-32390969D01*
X15456001Y-32392371D01*
X15424068Y-32396569D01*
X15393975Y-32403556D01*
X15365758Y-32413325D01*
X15339456Y-32425868D01*
X15315107Y-32441176D01*
X15292749Y-32459241D01*
X15272419Y-32480057D01*
X15254156Y-32503615D01*
X15237997Y-32529906D01*
X15223981Y-32558924D01*
X15212145Y-32590661D01*
X15202527Y-32625108D01*
X15195165Y-32662257D01*
X15192342Y-32681843D01*
X15190097Y-32702102D01*
X15188436Y-32723032D01*
X15187362Y-32744633D01*
X14805459Y-32744633D01*
X14807340Y-32730804D01*
X14813759Y-32692386D01*
X14821505Y-32654170D01*
X14825926Y-32635137D01*
X14830740Y-32616154D01*
X14835967Y-32597220D01*
X14841626Y-32578336D01*
X14847739Y-32559502D01*
X14854325Y-32540718D01*
X14861404Y-32521983D01*
X14868998Y-32503297D01*
X14877125Y-32484661D01*
X14885806Y-32466074D01*
X14895062Y-32447536D01*
X14904913Y-32429046D01*
X14915378Y-32410606D01*
X14926478Y-32392215D01*
X14938234Y-32373872D01*
X14960158Y-32342569D01*
X14983956Y-32312647D01*
X15009590Y-32284194D01*
X15037023Y-32257300D01*
X15066215Y-32232051D01*
X15097130Y-32208536D01*
X15129730Y-32186843D01*
X15146649Y-32176707D01*
X15163975Y-32167060D01*
X15181704Y-32157912D01*
X15199830Y-32149274D01*
X15218348Y-32141158D01*
X15237255Y-32133575D01*
X15256545Y-32126535D01*
X15276213Y-32120049D01*
X15296255Y-32114129D01*
X15316665Y-32108785D01*
X15337440Y-32104029D01*
X15358575Y-32099871D01*
X15380064Y-32096323D01*
X15401903Y-32093395D01*
X15424088Y-32091099D01*
X15446613Y-32089445D01*
X15469473Y-32088444D01*
X15492665Y-32088108D01*
X15527438Y-32088856D01*
G37*
G36*
X13651563Y-32169685D02*
G01*
X13634954Y-32326489D01*
X13649003Y-32303107D01*
X13660113Y-32285582D01*
X13672816Y-32266932D01*
X13687283Y-32247524D01*
X13703684Y-32227724D01*
X13722190Y-32207897D01*
X13742970Y-32188408D01*
X13766196Y-32169625D01*
X13792037Y-32151911D01*
X13820663Y-32135633D01*
X13852245Y-32121156D01*
X13886954Y-32108847D01*
X13924959Y-32099070D01*
X13945251Y-32095246D01*
X13966431Y-32092192D01*
X13988521Y-32089954D01*
X14011541Y-32088577D01*
X14035512Y-32088108D01*
X14068284Y-32089016D01*
X14100452Y-32091723D01*
X14131988Y-32096204D01*
X14162862Y-32102436D01*
X14193047Y-32110394D01*
X14222513Y-32120054D01*
X14251232Y-32131392D01*
X14279175Y-32144383D01*
X14306314Y-32159004D01*
X14332620Y-32175230D01*
X14358065Y-32193037D01*
X14382620Y-32212400D01*
X14406255Y-32233296D01*
X14428944Y-32255700D01*
X14450656Y-32279588D01*
X14471364Y-32304935D01*
X14491038Y-32331718D01*
X14509651Y-32359912D01*
X14527173Y-32389493D01*
X14543576Y-32420436D01*
X14558831Y-32452718D01*
X14572910Y-32486314D01*
X14585783Y-32521200D01*
X14597424Y-32557352D01*
X14607802Y-32594746D01*
X14616889Y-32633356D01*
X14624656Y-32673160D01*
X14631076Y-32714132D01*
X14636118Y-32756249D01*
X14639756Y-32799487D01*
X14641959Y-32843820D01*
X14642700Y-32889225D01*
X14641990Y-32932627D01*
X14639874Y-32974982D01*
X14636368Y-33016270D01*
X14631493Y-33056467D01*
X14625265Y-33095553D01*
X14617703Y-33133506D01*
X14608826Y-33170303D01*
X14598652Y-33205924D01*
X14587200Y-33240346D01*
X14574487Y-33273548D01*
X14560532Y-33305508D01*
X14545353Y-33336204D01*
X14528969Y-33365614D01*
X14511398Y-33393717D01*
X14492658Y-33420492D01*
X14472768Y-33445915D01*
X14451746Y-33469967D01*
X14429610Y-33492624D01*
X14406379Y-33513865D01*
X14382071Y-33533668D01*
X14356704Y-33552012D01*
X14330297Y-33568875D01*
X14302868Y-33584235D01*
X14274435Y-33598071D01*
X14245017Y-33610360D01*
X14214632Y-33621082D01*
X14183299Y-33630213D01*
X14151035Y-33637733D01*
X14117859Y-33643620D01*
X14083789Y-33647851D01*
X14048844Y-33650406D01*
X14013042Y-33651263D01*
X13989915Y-33650842D01*
X13967779Y-33649606D01*
X13946606Y-33647591D01*
X13926371Y-33644833D01*
X13907048Y-33641370D01*
X13871035Y-33632477D01*
X13838357Y-33621207D01*
X13808806Y-33607854D01*
X13782174Y-33592715D01*
X13758254Y-33576086D01*
X13736836Y-33558261D01*
X13717712Y-33539536D01*
X13700674Y-33520207D01*
X13685515Y-33500569D01*
X13672025Y-33480918D01*
X13659997Y-33461549D01*
X13649222Y-33442758D01*
X13639492Y-33424840D01*
X13634954Y-33416301D01*
X13651563Y-33544773D01*
X13651563Y-33620000D01*
X13279337Y-33620000D01*
X13279337Y-32877990D01*
X13651563Y-32877990D01*
X13652034Y-32907087D01*
X13653426Y-32935036D01*
X13655706Y-32961853D01*
X13658841Y-32987552D01*
X13662800Y-33012147D01*
X13667550Y-33035654D01*
X13673058Y-33058086D01*
X13679292Y-33079460D01*
X13686219Y-33099788D01*
X13693807Y-33119087D01*
X13702024Y-33137370D01*
X13720212Y-33170948D01*
X13740525Y-33200642D01*
X13762702Y-33226567D01*
X13786484Y-33248841D01*
X13811611Y-33267582D01*
X13837822Y-33282907D01*
X13864860Y-33294933D01*
X13892462Y-33303778D01*
X13920371Y-33309559D01*
X13948326Y-33312393D01*
X13962240Y-33312742D01*
X13998498Y-33310488D01*
X14032691Y-33303868D01*
X14064783Y-33293097D01*
X14094734Y-33278388D01*
X14122507Y-33259955D01*
X14148064Y-33238012D01*
X14171366Y-33212774D01*
X14192377Y-33184453D01*
X14211058Y-33153265D01*
X14227372Y-33119423D01*
X14241279Y-33083140D01*
X14247319Y-33064151D01*
X14252744Y-33044632D01*
X14257547Y-33024610D01*
X14261726Y-33004111D01*
X14265275Y-32983163D01*
X14268189Y-32961793D01*
X14270464Y-32940026D01*
X14272095Y-32917890D01*
X14273077Y-32895411D01*
X14273405Y-32872616D01*
X14272876Y-32841508D01*
X14271503Y-32813929D01*
X14268832Y-32782012D01*
X14264447Y-32746727D01*
X14257934Y-32709045D01*
X14253750Y-32689609D01*
X14248879Y-32669938D01*
X14243269Y-32650153D01*
X14236868Y-32630375D01*
X14229624Y-32610727D01*
X14221486Y-32591329D01*
X14212402Y-32572303D01*
X14202320Y-32553770D01*
X14191188Y-32535852D01*
X14178954Y-32518670D01*
X14165567Y-32502345D01*
X14150975Y-32486999D01*
X14135125Y-32472753D01*
X14117967Y-32459728D01*
X14099449Y-32448046D01*
X14079518Y-32437828D01*
X14058123Y-32429196D01*
X14035212Y-32422271D01*
X14010734Y-32417174D01*
X13984636Y-32414027D01*
X13956866Y-32412951D01*
X13930848Y-32413924D01*
X13906345Y-32416773D01*
X13883311Y-32421400D01*
X13861702Y-32427704D01*
X13841472Y-32435585D01*
X13822576Y-32444942D01*
X13804969Y-32455675D01*
X13788606Y-32467685D01*
X13773441Y-32480870D01*
X13759430Y-32495130D01*
X13746526Y-32510365D01*
X13734686Y-32526476D01*
X13723864Y-32543360D01*
X13714015Y-32560920D01*
X13705093Y-32579053D01*
X13697053Y-32597660D01*
X13689850Y-32616641D01*
X13683440Y-32635894D01*
X13677776Y-32655321D01*
X13672815Y-32674821D01*
X13668509Y-32694293D01*
X13664815Y-32713637D01*
X13659081Y-32751541D01*
X13655250Y-32787730D01*
X13652960Y-32821403D01*
X13651852Y-32851757D01*
X13651563Y-32877990D01*
X13279337Y-32877990D01*
X13279337Y-31587899D01*
X13651563Y-31587899D01*
X13651563Y-32169685D01*
G37*
G36*
X12107948Y-33620000D02*
G01*
X11738164Y-33620000D01*
X11738164Y-33505694D01*
X11755261Y-33402135D01*
X11743042Y-33423187D01*
X11732631Y-33439998D01*
X11720255Y-33458510D01*
X11705784Y-33478275D01*
X11689086Y-33498847D01*
X11670031Y-33519780D01*
X11648488Y-33540627D01*
X11624325Y-33560942D01*
X11597413Y-33580277D01*
X11567619Y-33598188D01*
X11534812Y-33614226D01*
X11498863Y-33627946D01*
X11479669Y-33633797D01*
X11459640Y-33638901D01*
X11438760Y-33643203D01*
X11417012Y-33646645D01*
X11394380Y-33649173D01*
X11370848Y-33650731D01*
X11346399Y-33651263D01*
X11315110Y-33650324D01*
X11284283Y-33647529D01*
X11253953Y-33642906D01*
X11224153Y-33636484D01*
X11194920Y-33628293D01*
X11166287Y-33618361D01*
X11138290Y-33606718D01*
X11110964Y-33593392D01*
X11084343Y-33578414D01*
X11058463Y-33561812D01*
X11033358Y-33543616D01*
X11009063Y-33523854D01*
X10985613Y-33502555D01*
X10963044Y-33479750D01*
X10941389Y-33455467D01*
X10920683Y-33429734D01*
X10900963Y-33402582D01*
X10882262Y-33374040D01*
X10864615Y-33344136D01*
X10848057Y-33312900D01*
X10832624Y-33280361D01*
X10818350Y-33246549D01*
X10805269Y-33211491D01*
X10793418Y-33175218D01*
X10782830Y-33137759D01*
X10773540Y-33099142D01*
X10765584Y-33059397D01*
X10758997Y-33018553D01*
X10753812Y-32976640D01*
X10750066Y-32933686D01*
X10747792Y-32889720D01*
X10747310Y-32861381D01*
X11125115Y-32861381D01*
X11125490Y-32886641D01*
X11126609Y-32911303D01*
X11128459Y-32935355D01*
X11131027Y-32958783D01*
X11134301Y-32981573D01*
X11138268Y-33003712D01*
X11142917Y-33025186D01*
X11148234Y-33045983D01*
X11154207Y-33066089D01*
X11160824Y-33085490D01*
X11168072Y-33104172D01*
X11175939Y-33122124D01*
X11193480Y-33155779D01*
X11213347Y-33186346D01*
X11235441Y-33213720D01*
X11259663Y-33237792D01*
X11285912Y-33258455D01*
X11314090Y-33275602D01*
X11344097Y-33289125D01*
X11375833Y-33298917D01*
X11409199Y-33304872D01*
X11444096Y-33306880D01*
X11479759Y-33304719D01*
X11513112Y-33298340D01*
X11544154Y-33287898D01*
X11572888Y-33273549D01*
X11599315Y-33255447D01*
X11623437Y-33233748D01*
X11645254Y-33208607D01*
X11664769Y-33180179D01*
X11681983Y-33148620D01*
X11696897Y-33114086D01*
X11709512Y-33076730D01*
X11714958Y-33057043D01*
X11719831Y-33036709D01*
X11724129Y-33015748D01*
X11727854Y-32994178D01*
X11731005Y-32972020D01*
X11733583Y-32949292D01*
X11735587Y-32926015D01*
X11737019Y-32902207D01*
X11737878Y-32877888D01*
X11738164Y-32853077D01*
X11737750Y-32824738D01*
X11736524Y-32797419D01*
X11734509Y-32771112D01*
X11731729Y-32745809D01*
X11728207Y-32721501D01*
X11723967Y-32698182D01*
X11719033Y-32675843D01*
X11713427Y-32654477D01*
X11707174Y-32634075D01*
X11700296Y-32614630D01*
X11692819Y-32596134D01*
X11676155Y-32561956D01*
X11657372Y-32531480D01*
X11636658Y-32504641D01*
X11614200Y-32481377D01*
X11590186Y-32461625D01*
X11564806Y-32445322D01*
X11538247Y-32432405D01*
X11510697Y-32422811D01*
X11482344Y-32416477D01*
X11453377Y-32413340D01*
X11438722Y-32412951D01*
X11405657Y-32414875D01*
X11373776Y-32420599D01*
X11343210Y-32430056D01*
X11314090Y-32443176D01*
X11286547Y-32459892D01*
X11260712Y-32480133D01*
X11236717Y-32503833D01*
X11214691Y-32530921D01*
X11194766Y-32561329D01*
X11177073Y-32594989D01*
X11169104Y-32613016D01*
X11161742Y-32631831D01*
X11155004Y-32651424D01*
X11148905Y-32671788D01*
X11143463Y-32692912D01*
X11138693Y-32714790D01*
X11134613Y-32737411D01*
X11131237Y-32760768D01*
X11128583Y-32784853D01*
X11126667Y-32809655D01*
X11125505Y-32835168D01*
X11125115Y-32861381D01*
X10747310Y-32861381D01*
X10747027Y-32844773D01*
X10747315Y-32819136D01*
X10748215Y-32792322D01*
X10749781Y-32764461D01*
X10752066Y-32735684D01*
X10755125Y-32706121D01*
X10759012Y-32675903D01*
X10763779Y-32645161D01*
X10769482Y-32614024D01*
X10776173Y-32582625D01*
X10783908Y-32551092D01*
X10792738Y-32519558D01*
X10802720Y-32488151D01*
X10813905Y-32457004D01*
X10826349Y-32426247D01*
X10840105Y-32396010D01*
X10855226Y-32366423D01*
X10871767Y-32337618D01*
X10889782Y-32309725D01*
X10909324Y-32282874D01*
X10930447Y-32257197D01*
X10953206Y-32232823D01*
X10977653Y-32209884D01*
X11003843Y-32188510D01*
X11031829Y-32168831D01*
X11061666Y-32150978D01*
X11093407Y-32135082D01*
X11127106Y-32121273D01*
X11162818Y-32109682D01*
X11200595Y-32100439D01*
X11240491Y-32093676D01*
X11282562Y-32089522D01*
X11326859Y-32088108D01*
X11351833Y-32088569D01*
X11375843Y-32089921D01*
X11398912Y-32092122D01*
X11421062Y-32095126D01*
X11442312Y-32098889D01*
X11462686Y-32103368D01*
X11482205Y-32108518D01*
X11500890Y-32114296D01*
X11535845Y-32127556D01*
X11567724Y-32142797D01*
X11596699Y-32159664D01*
X11622943Y-32177807D01*
X11646628Y-32196870D01*
X11667926Y-32216503D01*
X11687011Y-32236351D01*
X11704054Y-32256063D01*
X11719228Y-32275286D01*
X11732706Y-32293666D01*
X11744659Y-32310852D01*
X11755261Y-32326489D01*
X11738164Y-32189225D01*
X11738164Y-31587899D01*
X12107948Y-31587899D01*
X12107948Y-33620000D01*
G37*
G36*
X9144305Y-32119371D02*
G01*
X9536071Y-32119371D01*
X9846748Y-33012323D01*
X9894619Y-33216022D01*
X9947864Y-33020628D01*
X10258541Y-32119371D01*
X10644933Y-32119371D01*
X10098806Y-33570174D01*
X10110915Y-33588316D01*
X10123857Y-33606244D01*
X10138001Y-33623615D01*
X10153718Y-33640087D01*
X10171376Y-33655315D01*
X10191346Y-33668957D01*
X10213996Y-33680671D01*
X10239696Y-33690112D01*
X10258707Y-33694976D01*
X10279347Y-33698575D01*
X10301725Y-33700809D01*
X10325952Y-33701577D01*
X10345594Y-33701100D01*
X10368405Y-33699444D01*
X10390967Y-33696830D01*
X10412202Y-33693648D01*
X10435899Y-33689421D01*
X10446120Y-33687411D01*
X10446120Y-33973175D01*
X10424142Y-33979181D01*
X10401990Y-33984334D01*
X10378702Y-33988565D01*
X10358608Y-33991241D01*
X10336679Y-33993251D01*
X10312423Y-33994559D01*
X10292408Y-33995060D01*
X10278080Y-33995157D01*
X10254456Y-33994891D01*
X10231299Y-33994077D01*
X10208603Y-33992691D01*
X10186362Y-33990710D01*
X10164573Y-33988108D01*
X10143228Y-33984862D01*
X10122323Y-33980948D01*
X10101852Y-33976342D01*
X10081809Y-33971020D01*
X10062190Y-33964957D01*
X10042988Y-33958130D01*
X10024199Y-33950514D01*
X10005816Y-33942086D01*
X9987835Y-33932822D01*
X9970249Y-33922696D01*
X9953054Y-33911687D01*
X9936244Y-33899768D01*
X9919814Y-33886916D01*
X9903757Y-33873108D01*
X9888069Y-33858319D01*
X9872745Y-33842524D01*
X9857778Y-33825701D01*
X9843163Y-33807824D01*
X9828895Y-33788871D01*
X9814968Y-33768816D01*
X9801377Y-33747635D01*
X9788117Y-33725306D01*
X9775182Y-33701803D01*
X9762566Y-33677102D01*
X9750264Y-33651180D01*
X9738270Y-33624013D01*
X9726580Y-33595575D01*
X9144305Y-32119371D01*
G37*
G36*
X5897829Y-33620000D02*
G01*
X5897829Y-32668429D01*
X5898169Y-32638141D01*
X5899202Y-32608299D01*
X5900948Y-32578937D01*
X5903429Y-32550088D01*
X5906664Y-32521787D01*
X5910674Y-32494066D01*
X5915479Y-32466961D01*
X5921101Y-32440505D01*
X5927559Y-32414731D01*
X5934874Y-32389674D01*
X5943067Y-32365367D01*
X5952157Y-32341844D01*
X5962166Y-32319139D01*
X5973114Y-32297286D01*
X5985021Y-32276318D01*
X5997908Y-32256270D01*
X6011795Y-32237174D01*
X6026703Y-32219066D01*
X6042653Y-32201978D01*
X6059664Y-32185945D01*
X6077758Y-32171000D01*
X6096954Y-32157177D01*
X6117273Y-32144511D01*
X6138737Y-32133034D01*
X6161364Y-32122781D01*
X6185176Y-32113785D01*
X6210194Y-32106080D01*
X6236437Y-32099700D01*
X6263926Y-32094680D01*
X6292682Y-32091051D01*
X6322724Y-32088850D01*
X6354075Y-32088108D01*
X6378641Y-32088554D01*
X6402433Y-32089865D01*
X6425466Y-32092003D01*
X6447755Y-32094927D01*
X6469317Y-32098600D01*
X6490167Y-32102982D01*
X6510320Y-32108033D01*
X6529792Y-32113716D01*
X6548599Y-32119990D01*
X6584278Y-32134157D01*
X6617482Y-32150223D01*
X6648336Y-32167874D01*
X6676963Y-32186797D01*
X6703489Y-32206681D01*
X6728038Y-32227211D01*
X6750734Y-32248076D01*
X6771702Y-32268963D01*
X6791066Y-32289559D01*
X6808952Y-32309552D01*
X6825483Y-32328628D01*
X6833279Y-32337725D01*
X6847223Y-32316889D01*
X6861894Y-32295583D01*
X6877492Y-32274057D01*
X6894218Y-32252560D01*
X6912272Y-32231344D01*
X6931854Y-32210659D01*
X6953165Y-32190755D01*
X6976406Y-32171884D01*
X7001775Y-32154294D01*
X7029475Y-32138237D01*
X7059705Y-32123964D01*
X7092665Y-32111724D01*
X7128557Y-32101768D01*
X7167579Y-32094346D01*
X7188327Y-32091664D01*
X7209933Y-32089710D01*
X7232422Y-32088514D01*
X7255819Y-32088108D01*
X7280273Y-32088546D01*
X7303734Y-32089834D01*
X7326230Y-32091935D01*
X7347787Y-32094812D01*
X7368433Y-32098428D01*
X7388193Y-32102746D01*
X7407094Y-32107730D01*
X7442428Y-32119544D01*
X7474650Y-32133575D01*
X7503972Y-32149525D01*
X7530609Y-32167099D01*
X7554775Y-32186000D01*
X7576684Y-32205932D01*
X7596550Y-32226600D01*
X7614586Y-32247706D01*
X7631007Y-32268954D01*
X7646027Y-32290048D01*
X7659859Y-32310692D01*
X7672717Y-32330590D01*
X7678848Y-32340167D01*
X7667613Y-32200949D01*
X7667613Y-32119371D01*
X8037397Y-32119371D01*
X8037397Y-33620000D01*
X7667613Y-33620000D01*
X7667613Y-32686503D01*
X7666683Y-32666781D01*
X7663857Y-32645431D01*
X7659083Y-32622856D01*
X7652310Y-32599454D01*
X7643484Y-32575625D01*
X7632554Y-32551770D01*
X7619467Y-32528288D01*
X7604171Y-32505580D01*
X7586614Y-32484046D01*
X7566743Y-32464085D01*
X7544507Y-32446097D01*
X7519854Y-32430483D01*
X7492730Y-32417643D01*
X7463083Y-32407976D01*
X7430863Y-32401882D01*
X7396015Y-32399762D01*
X7359178Y-32401947D01*
X7326201Y-32408240D01*
X7296880Y-32418251D01*
X7271008Y-32431590D01*
X7248383Y-32447865D01*
X7228798Y-32466687D01*
X7212050Y-32487663D01*
X7197934Y-32510404D01*
X7186245Y-32534519D01*
X7176778Y-32559617D01*
X7169330Y-32585308D01*
X7163694Y-32611200D01*
X7159667Y-32636904D01*
X7157044Y-32662028D01*
X7155620Y-32686181D01*
X7155191Y-32708974D01*
X7155191Y-33620000D01*
X6785408Y-33620000D01*
X6785408Y-32708974D01*
X6784512Y-32686900D01*
X6781765Y-32663269D01*
X6777081Y-32638491D01*
X6770372Y-32612979D01*
X6761550Y-32587143D01*
X6750529Y-32561395D01*
X6737221Y-32536146D01*
X6721538Y-32511809D01*
X6703394Y-32488793D01*
X6682702Y-32467512D01*
X6659373Y-32448376D01*
X6633321Y-32431796D01*
X6604458Y-32418185D01*
X6572697Y-32407953D01*
X6537951Y-32401512D01*
X6500132Y-32399274D01*
X6467494Y-32400874D01*
X6437828Y-32405576D01*
X6411014Y-32413229D01*
X6386933Y-32423683D01*
X6365465Y-32436787D01*
X6346491Y-32452391D01*
X6329891Y-32470345D01*
X6315546Y-32490498D01*
X6303335Y-32512701D01*
X6293141Y-32536803D01*
X6284843Y-32562654D01*
X6278321Y-32590104D01*
X6273457Y-32619001D01*
X6270131Y-32649197D01*
X6268222Y-32680541D01*
X6267613Y-32712882D01*
X6267613Y-33620000D01*
X5897829Y-33620000D01*
G37*
G36*
X5199295Y-33620000D02*
G01*
X5199295Y-33233607D01*
X5577383Y-33233607D01*
X5577383Y-33620000D01*
X5199295Y-33620000D01*
G37*
G36*
X3502784Y-33620000D02*
G01*
X4115833Y-32697250D01*
X3575568Y-32119371D01*
X4018136Y-32119371D01*
X4480244Y-32671849D01*
X4555471Y-32780781D01*
X4535931Y-32652309D01*
X4535931Y-31587899D01*
X4905715Y-31587899D01*
X4905715Y-33620000D01*
X4535931Y-33620000D01*
X4535931Y-33146168D01*
X4365450Y-32964940D01*
X3942421Y-33620000D01*
X3502784Y-33620000D01*
G37*
G36*
X2921974Y-31952309D02*
G01*
X2921974Y-31587899D01*
X3291758Y-31587899D01*
X3291758Y-31952309D01*
X2921974Y-31952309D01*
G37*
G36*
X2921974Y-33620000D02*
G01*
X2921974Y-32119371D01*
X3291758Y-32119371D01*
X3291758Y-33620000D01*
X2921974Y-33620000D01*
G37*
G36*
X455610Y-32119371D02*
G01*
X842002Y-32119371D01*
X1069148Y-32934166D01*
X1113600Y-33179385D01*
X1158541Y-32934166D01*
X1385198Y-32119371D01*
X1772079Y-32119371D01*
X1298736Y-33620000D01*
X928953Y-33620000D01*
X455610Y-32119371D01*
G37*
G36*
X-328807Y-32088856D02*
G01*
X-294317Y-32091103D01*
X-260164Y-32094853D01*
X-226401Y-32100113D01*
X-193082Y-32106885D01*
X-160262Y-32115176D01*
X-127994Y-32124989D01*
X-96332Y-32136331D01*
X-65329Y-32149205D01*
X-35041Y-32163617D01*
X-5519Y-32179572D01*
X23180Y-32197073D01*
X51005Y-32216127D01*
X77901Y-32236737D01*
X103814Y-32258909D01*
X128691Y-32282648D01*
X152477Y-32307958D01*
X175119Y-32334844D01*
X196562Y-32363311D01*
X216754Y-32393364D01*
X235640Y-32425008D01*
X253165Y-32458247D01*
X269278Y-32493087D01*
X283923Y-32529532D01*
X297046Y-32567586D01*
X308595Y-32607256D01*
X318514Y-32648545D01*
X326751Y-32691459D01*
X333251Y-32736002D01*
X337961Y-32782179D01*
X340826Y-32829995D01*
X341793Y-32879455D01*
X340898Y-32925679D01*
X338237Y-32970555D01*
X333849Y-33014076D01*
X327771Y-33056234D01*
X320041Y-33097020D01*
X310697Y-33136428D01*
X299777Y-33174449D01*
X287319Y-33211076D01*
X273360Y-33246300D01*
X257939Y-33280114D01*
X241092Y-33312509D01*
X222859Y-33343478D01*
X203277Y-33373014D01*
X182383Y-33401107D01*
X160215Y-33427751D01*
X136812Y-33452937D01*
X112211Y-33476658D01*
X86450Y-33498906D01*
X59567Y-33519672D01*
X31600Y-33538949D01*
X2586Y-33556729D01*
X-27436Y-33573005D01*
X-58429Y-33587767D01*
X-90356Y-33601010D01*
X-123177Y-33612723D01*
X-156856Y-33622901D01*
X-191354Y-33631534D01*
X-226635Y-33638615D01*
X-262658Y-33644137D01*
X-299388Y-33648090D01*
X-336786Y-33650468D01*
X-374815Y-33651263D01*
X-419698Y-33650246D01*
X-462518Y-33647267D01*
X-503325Y-33642433D01*
X-542171Y-33635850D01*
X-579105Y-33627628D01*
X-614181Y-33617871D01*
X-647448Y-33606688D01*
X-678958Y-33594186D01*
X-708762Y-33580472D01*
X-736912Y-33565652D01*
X-763458Y-33549835D01*
X-788451Y-33533127D01*
X-811944Y-33515636D01*
X-833986Y-33497468D01*
X-854629Y-33478731D01*
X-873925Y-33459532D01*
X-891924Y-33439978D01*
X-908677Y-33420176D01*
X-924237Y-33400234D01*
X-938653Y-33380258D01*
X-951977Y-33360356D01*
X-964261Y-33340635D01*
X-975555Y-33321201D01*
X-985910Y-33302163D01*
X-995378Y-33283627D01*
X-1004010Y-33265701D01*
X-1018971Y-33232106D01*
X-1031201Y-33202234D01*
X-1041109Y-33176943D01*
X-668883Y-33176943D01*
X-656397Y-33205069D01*
X-642180Y-33230038D01*
X-626469Y-33252034D01*
X-609501Y-33271244D01*
X-591515Y-33287851D01*
X-572747Y-33302042D01*
X-553435Y-33314002D01*
X-533817Y-33323916D01*
X-514130Y-33331970D01*
X-494612Y-33338348D01*
X-475500Y-33343237D01*
X-448115Y-33348182D01*
X-422980Y-33350818D01*
X-400898Y-33351770D01*
X-394354Y-33351821D01*
X-367254Y-33350976D01*
X-341526Y-33348506D01*
X-317134Y-33344504D01*
X-294041Y-33339064D01*
X-272211Y-33332281D01*
X-251607Y-33324248D01*
X-232194Y-33315060D01*
X-213935Y-33304812D01*
X-196793Y-33293596D01*
X-180733Y-33281509D01*
X-165718Y-33268642D01*
X-138678Y-33240952D01*
X-115383Y-33211278D01*
X-95541Y-33180374D01*
X-78863Y-33148995D01*
X-65058Y-33117892D01*
X-53835Y-33087821D01*
X-44904Y-33059533D01*
X-37975Y-33033784D01*
X-32757Y-33011325D01*
X-27501Y-32985457D01*
X-1069441Y-32985457D01*
X-1068599Y-32965561D01*
X-1067708Y-32945717D01*
X-1066749Y-32925925D01*
X-1065699Y-32906184D01*
X-1064541Y-32886493D01*
X-1063252Y-32866854D01*
X-1061814Y-32847266D01*
X-1060206Y-32827729D01*
X-1058407Y-32808243D01*
X-1054158Y-32769422D01*
X-1050786Y-32744633D01*
X-668883Y-32744633D01*
X-27501Y-32744633D01*
X-31110Y-32725044D01*
X-35717Y-32702228D01*
X-41610Y-32676805D01*
X-49079Y-32649394D01*
X-58410Y-32620614D01*
X-69894Y-32591086D01*
X-83817Y-32561430D01*
X-100469Y-32532264D01*
X-120137Y-32504209D01*
X-143111Y-32477884D01*
X-169678Y-32453909D01*
X-200128Y-32432903D01*
X-234747Y-32415487D01*
X-253711Y-32408318D01*
X-273825Y-32402279D01*
X-295126Y-32397447D01*
X-317650Y-32393900D01*
X-341433Y-32391715D01*
X-366510Y-32390969D01*
X-400244Y-32392371D01*
X-432176Y-32396569D01*
X-462270Y-32403556D01*
X-490486Y-32413325D01*
X-516788Y-32425868D01*
X-541137Y-32441176D01*
X-563496Y-32459241D01*
X-583825Y-32480057D01*
X-602089Y-32503615D01*
X-618247Y-32529906D01*
X-632264Y-32558924D01*
X-644100Y-32590661D01*
X-653718Y-32625108D01*
X-661080Y-32662257D01*
X-663903Y-32681843D01*
X-666147Y-32702102D01*
X-667809Y-32723032D01*
X-668883Y-32744633D01*
X-1050786Y-32744633D01*
X-1048905Y-32730804D01*
X-1042486Y-32692386D01*
X-1034740Y-32654170D01*
X-1030318Y-32635137D01*
X-1025504Y-32616154D01*
X-1020278Y-32597220D01*
X-1014618Y-32578336D01*
X-1008506Y-32559502D01*
X-1001920Y-32540718D01*
X-994840Y-32521983D01*
X-987247Y-32503297D01*
X-979120Y-32484661D01*
X-970438Y-32466074D01*
X-961182Y-32447536D01*
X-951332Y-32429046D01*
X-940867Y-32410606D01*
X-929766Y-32392215D01*
X-918011Y-32373872D01*
X-896087Y-32342569D01*
X-872289Y-32312647D01*
X-846654Y-32284194D01*
X-819222Y-32257300D01*
X-790029Y-32232051D01*
X-759114Y-32208536D01*
X-726515Y-32186843D01*
X-709596Y-32176707D01*
X-692269Y-32167060D01*
X-674541Y-32157912D01*
X-656415Y-32149274D01*
X-637896Y-32141158D01*
X-618990Y-32133575D01*
X-599700Y-32126535D01*
X-580032Y-32120049D01*
X-559990Y-32114129D01*
X-539579Y-32108785D01*
X-518804Y-32104029D01*
X-497670Y-32099871D01*
X-476181Y-32096323D01*
X-454341Y-32093395D01*
X-432157Y-32091099D01*
X-409632Y-32089445D01*
X-386771Y-32088444D01*
X-363579Y-32088108D01*
X-328807Y-32088856D01*
G37*
G36*
X-2159741Y-32457892D02*
G01*
X-2159741Y-32088108D01*
X-2131488Y-32089164D01*
X-2104398Y-32090693D01*
X-2078425Y-32092718D01*
X-2053521Y-32095256D01*
X-2029641Y-32098329D01*
X-2006737Y-32101954D01*
X-1984761Y-32106153D01*
X-1963668Y-32110945D01*
X-1943409Y-32116349D01*
X-1923939Y-32122386D01*
X-1905210Y-32129074D01*
X-1869787Y-32144485D01*
X-1836765Y-32162740D01*
X-1805769Y-32183996D01*
X-1776422Y-32208410D01*
X-1748350Y-32236140D01*
X-1734674Y-32251297D01*
X-1721176Y-32267343D01*
X-1707808Y-32284296D01*
X-1694524Y-32302177D01*
X-1681277Y-32321005D01*
X-1668020Y-32340799D01*
X-1654705Y-32361580D01*
X-1641287Y-32383367D01*
X-1627717Y-32406180D01*
X-1613949Y-32430038D01*
X-1599937Y-32454961D01*
X-1627780Y-32228792D01*
X-1627780Y-32119371D01*
X-1257997Y-32119371D01*
X-1257997Y-33620000D01*
X-1627780Y-33620000D01*
X-1627780Y-32814975D01*
X-1629446Y-32781421D01*
X-1634418Y-32748160D01*
X-1642660Y-32715450D01*
X-1654136Y-32683550D01*
X-1668809Y-32652716D01*
X-1686642Y-32623209D01*
X-1707599Y-32595286D01*
X-1731645Y-32569206D01*
X-1758741Y-32545226D01*
X-1788852Y-32523606D01*
X-1821941Y-32504603D01*
X-1839591Y-32496164D01*
X-1857972Y-32488476D01*
X-1877079Y-32481571D01*
X-1896907Y-32475483D01*
X-1917453Y-32470242D01*
X-1938712Y-32465882D01*
X-1960679Y-32462435D01*
X-1983349Y-32459933D01*
X-2006718Y-32458408D01*
X-2030781Y-32457892D01*
X-2159741Y-32457892D01*
G37*
G36*
X-2727850Y-33620000D02*
G01*
X-2727850Y-33233607D01*
X-2349762Y-33233607D01*
X-2349762Y-33620000D01*
X-2727850Y-33620000D01*
G37*
G36*
X-3914870Y-33620000D02*
G01*
X-3914870Y-31587899D01*
X-3612498Y-31587899D01*
X-3606183Y-31612611D01*
X-3598903Y-31636292D01*
X-3590704Y-31658958D01*
X-3581634Y-31680624D01*
X-3571742Y-31701308D01*
X-3561073Y-31721026D01*
X-3549677Y-31739792D01*
X-3537599Y-31757625D01*
X-3524888Y-31774539D01*
X-3511592Y-31790552D01*
X-3497757Y-31805679D01*
X-3483432Y-31819936D01*
X-3468663Y-31833341D01*
X-3453498Y-31845908D01*
X-3422172Y-31868595D01*
X-3389832Y-31888128D01*
X-3356858Y-31904637D01*
X-3323632Y-31918251D01*
X-3290532Y-31929099D01*
X-3257939Y-31937310D01*
X-3226232Y-31943016D01*
X-3195792Y-31946344D01*
X-3166999Y-31947424D01*
X-3004822Y-31947424D01*
X-3004822Y-32213161D01*
X-3559253Y-32213161D01*
X-3559253Y-33620000D01*
X-3914870Y-33620000D01*
G37*
G36*
X-5008101Y-33620000D02*
G01*
X-5008101Y-33233607D01*
X-4630013Y-33233607D01*
X-4630013Y-33620000D01*
X-5008101Y-33620000D01*
G37*
G36*
X-6195122Y-33620000D02*
G01*
X-6195122Y-31587899D01*
X-5892749Y-31587899D01*
X-5886434Y-31612611D01*
X-5879154Y-31636292D01*
X-5870955Y-31658958D01*
X-5861886Y-31680624D01*
X-5851993Y-31701308D01*
X-5841325Y-31721026D01*
X-5829928Y-31739792D01*
X-5817850Y-31757625D01*
X-5805140Y-31774539D01*
X-5791843Y-31790552D01*
X-5778008Y-31805679D01*
X-5763683Y-31819936D01*
X-5748914Y-31833341D01*
X-5733749Y-31845908D01*
X-5702423Y-31868595D01*
X-5670083Y-31888128D01*
X-5637110Y-31904637D01*
X-5603883Y-31918251D01*
X-5570783Y-31929099D01*
X-5538190Y-31937310D01*
X-5506484Y-31943016D01*
X-5476044Y-31946344D01*
X-5447250Y-31947424D01*
X-5285073Y-31947424D01*
X-5285073Y-32213161D01*
X-5839504Y-32213161D01*
X-5839504Y-33620000D01*
X-6195122Y-33620000D01*
G37*
G36*
X-8732805Y-32169685D02*
G01*
X-8749413Y-32326489D01*
X-8735364Y-32303107D01*
X-8724255Y-32285582D01*
X-8711551Y-32266932D01*
X-8697084Y-32247524D01*
X-8680683Y-32227724D01*
X-8662178Y-32207897D01*
X-8641397Y-32188408D01*
X-8618172Y-32169625D01*
X-8592331Y-32151911D01*
X-8563704Y-32135633D01*
X-8532122Y-32121156D01*
X-8497413Y-32108847D01*
X-8459408Y-32099070D01*
X-8439116Y-32095246D01*
X-8417936Y-32092192D01*
X-8395847Y-32089954D01*
X-8372827Y-32088577D01*
X-8348855Y-32088108D01*
X-8316083Y-32089016D01*
X-8283915Y-32091723D01*
X-8252380Y-32096204D01*
X-8221505Y-32102436D01*
X-8191321Y-32110394D01*
X-8161855Y-32120054D01*
X-8133136Y-32131392D01*
X-8105192Y-32144383D01*
X-8078053Y-32159004D01*
X-8051747Y-32175230D01*
X-8026302Y-32193037D01*
X-8001748Y-32212400D01*
X-7978112Y-32233296D01*
X-7955424Y-32255700D01*
X-7933711Y-32279588D01*
X-7913004Y-32304935D01*
X-7893329Y-32331718D01*
X-7874717Y-32359912D01*
X-7857195Y-32389493D01*
X-7840792Y-32420436D01*
X-7825537Y-32452718D01*
X-7811458Y-32486314D01*
X-7798584Y-32521200D01*
X-7786944Y-32557352D01*
X-7776566Y-32594746D01*
X-7767479Y-32633356D01*
X-7759711Y-32673160D01*
X-7753292Y-32714132D01*
X-7748249Y-32756249D01*
X-7744612Y-32799487D01*
X-7742408Y-32843820D01*
X-7741667Y-32889225D01*
X-7742377Y-32932627D01*
X-7744494Y-32974982D01*
X-7747999Y-33016270D01*
X-7752875Y-33056467D01*
X-7759103Y-33095553D01*
X-7766664Y-33133506D01*
X-7775541Y-33170303D01*
X-7785715Y-33205924D01*
X-7797168Y-33240346D01*
X-7809881Y-33273548D01*
X-7823836Y-33305508D01*
X-7839014Y-33336204D01*
X-7855398Y-33365614D01*
X-7872969Y-33393717D01*
X-7891709Y-33420492D01*
X-7911599Y-33445915D01*
X-7932621Y-33469967D01*
X-7954757Y-33492624D01*
X-7977988Y-33513865D01*
X-8002296Y-33533668D01*
X-8027663Y-33552012D01*
X-8054070Y-33568875D01*
X-8081499Y-33584235D01*
X-8109932Y-33598071D01*
X-8139350Y-33610360D01*
X-8169735Y-33621082D01*
X-8201069Y-33630213D01*
X-8233333Y-33637733D01*
X-8266509Y-33643620D01*
X-8300579Y-33647851D01*
X-8335523Y-33650406D01*
X-8371325Y-33651263D01*
X-8394452Y-33650842D01*
X-8416589Y-33649606D01*
X-8437762Y-33647591D01*
X-8457996Y-33644833D01*
X-8477319Y-33641370D01*
X-8513333Y-33632477D01*
X-8546011Y-33621207D01*
X-8575561Y-33607854D01*
X-8602193Y-33592715D01*
X-8626114Y-33576086D01*
X-8647532Y-33558261D01*
X-8666656Y-33539536D01*
X-8683693Y-33520207D01*
X-8698852Y-33500569D01*
X-8712342Y-33480918D01*
X-8724370Y-33461549D01*
X-8735145Y-33442758D01*
X-8744875Y-33424840D01*
X-8749413Y-33416301D01*
X-8732805Y-33544773D01*
X-8732805Y-33620000D01*
X-9105031Y-33620000D01*
X-9105031Y-32877990D01*
X-8732805Y-32877990D01*
X-8732334Y-32907087D01*
X-8730942Y-32935036D01*
X-8728662Y-32961853D01*
X-8725526Y-32987552D01*
X-8721567Y-33012147D01*
X-8716818Y-33035654D01*
X-8711309Y-33058086D01*
X-8705076Y-33079460D01*
X-8698148Y-33099788D01*
X-8690560Y-33119087D01*
X-8682344Y-33137370D01*
X-8664155Y-33170948D01*
X-8643842Y-33200642D01*
X-8621665Y-33226567D01*
X-8597883Y-33248841D01*
X-8572757Y-33267582D01*
X-8546545Y-33282907D01*
X-8519508Y-33294933D01*
X-8491905Y-33303778D01*
X-8463996Y-33309559D01*
X-8436041Y-33312393D01*
X-8422128Y-33312742D01*
X-8385870Y-33310488D01*
X-8351676Y-33303868D01*
X-8319585Y-33293097D01*
X-8289634Y-33278388D01*
X-8261861Y-33259955D01*
X-8236304Y-33238012D01*
X-8213001Y-33212774D01*
X-8191990Y-33184453D01*
X-8173309Y-33153265D01*
X-8156996Y-33119423D01*
X-8143088Y-33083140D01*
X-8137048Y-33064151D01*
X-8131624Y-33044632D01*
X-8126820Y-33024610D01*
X-8122641Y-33004111D01*
X-8119093Y-32983163D01*
X-8116178Y-32961793D01*
X-8113904Y-32940026D01*
X-8112273Y-32917890D01*
X-8111291Y-32895411D01*
X-8110963Y-32872616D01*
X-8111492Y-32841508D01*
X-8112864Y-32813929D01*
X-8115536Y-32782012D01*
X-8119921Y-32746727D01*
X-8126434Y-32709045D01*
X-8130617Y-32689609D01*
X-8135488Y-32669938D01*
X-8141098Y-32650153D01*
X-8147499Y-32630375D01*
X-8154743Y-32610727D01*
X-8162881Y-32591329D01*
X-8171965Y-32572303D01*
X-8182048Y-32553770D01*
X-8193180Y-32535852D01*
X-8205414Y-32518670D01*
X-8218801Y-32502345D01*
X-8233393Y-32486999D01*
X-8249242Y-32472753D01*
X-8266400Y-32459728D01*
X-8284919Y-32448046D01*
X-8304849Y-32437828D01*
X-8326244Y-32429196D01*
X-8349155Y-32422271D01*
X-8373634Y-32417174D01*
X-8399732Y-32414027D01*
X-8427501Y-32412951D01*
X-8453519Y-32413924D01*
X-8478022Y-32416773D01*
X-8501056Y-32421400D01*
X-8522665Y-32427704D01*
X-8542895Y-32435585D01*
X-8561791Y-32444942D01*
X-8579398Y-32455675D01*
X-8595762Y-32467685D01*
X-8610926Y-32480870D01*
X-8624938Y-32495130D01*
X-8637841Y-32510365D01*
X-8649681Y-32526476D01*
X-8660503Y-32543360D01*
X-8670353Y-32560920D01*
X-8679275Y-32579053D01*
X-8687315Y-32597660D01*
X-8694517Y-32616641D01*
X-8700927Y-32635894D01*
X-8706591Y-32655321D01*
X-8711553Y-32674821D01*
X-8715858Y-32694293D01*
X-8719552Y-32713637D01*
X-8725287Y-32751541D01*
X-8729118Y-32787730D01*
X-8731407Y-32821403D01*
X-8732516Y-32851757D01*
X-8732805Y-32877990D01*
X-9105031Y-32877990D01*
X-9105031Y-31587899D01*
X-8732805Y-31587899D01*
X-8732805Y-32169685D01*
G37*
G36*
X-9970560Y-32088919D02*
G01*
X-9948874Y-32090025D01*
X-9926253Y-32091683D01*
X-9902808Y-32093955D01*
X-9878649Y-32096902D01*
X-9853889Y-32100588D01*
X-9828639Y-32105076D01*
X-9803008Y-32110427D01*
X-9777108Y-32116704D01*
X-9751050Y-32123970D01*
X-9724945Y-32132287D01*
X-9698904Y-32141718D01*
X-9673039Y-32152325D01*
X-9647459Y-32164171D01*
X-9622276Y-32177318D01*
X-9597602Y-32191829D01*
X-9573546Y-32207767D01*
X-9550221Y-32225193D01*
X-9527736Y-32244171D01*
X-9506204Y-32264763D01*
X-9485734Y-32287031D01*
X-9466439Y-32311038D01*
X-9448429Y-32336847D01*
X-9431814Y-32364520D01*
X-9416707Y-32394119D01*
X-9403218Y-32425707D01*
X-9391458Y-32459347D01*
X-9381538Y-32495101D01*
X-9373569Y-32533032D01*
X-9367662Y-32573201D01*
X-9363928Y-32615673D01*
X-9697076Y-32615673D01*
X-9700276Y-32590301D01*
X-9703907Y-32568038D01*
X-9708350Y-32548328D01*
X-9715631Y-32526434D01*
X-9725531Y-32506578D01*
X-9738798Y-32487674D01*
X-9752340Y-32472508D01*
X-9756182Y-32468639D01*
X-9774746Y-32451990D01*
X-9794532Y-32437484D01*
X-9815263Y-32424973D01*
X-9836660Y-32414310D01*
X-9858447Y-32405347D01*
X-9880345Y-32397936D01*
X-9902078Y-32391931D01*
X-9923367Y-32387184D01*
X-9943934Y-32383547D01*
X-9963503Y-32380873D01*
X-9990375Y-32378347D01*
X-10013438Y-32377158D01*
X-10036644Y-32376794D01*
X-10044389Y-32376803D01*
X-10066044Y-32377238D01*
X-10087821Y-32378589D01*
X-10109511Y-32380925D01*
X-10130904Y-32384314D01*
X-10151791Y-32388825D01*
X-10171961Y-32394526D01*
X-10191205Y-32401487D01*
X-10209314Y-32409776D01*
X-10233889Y-32424850D01*
X-10254730Y-32443299D01*
X-10271129Y-32465353D01*
X-10282378Y-32491246D01*
X-10286667Y-32510755D01*
X-10288143Y-32532142D01*
X-10286057Y-32556913D01*
X-10279997Y-32579299D01*
X-10270259Y-32599445D01*
X-10257140Y-32617497D01*
X-10240934Y-32633600D01*
X-10221940Y-32647899D01*
X-10200453Y-32660539D01*
X-10176769Y-32671666D01*
X-10151184Y-32681424D01*
X-10123995Y-32689960D01*
X-10095498Y-32697418D01*
X-10065989Y-32703944D01*
X-10035765Y-32709682D01*
X-10005121Y-32714779D01*
X-9974354Y-32719379D01*
X-9943761Y-32723628D01*
X-9912337Y-32727970D01*
X-9881114Y-32732683D01*
X-9850144Y-32737800D01*
X-9819479Y-32743356D01*
X-9789173Y-32749382D01*
X-9759276Y-32755913D01*
X-9729842Y-32762982D01*
X-9700922Y-32770622D01*
X-9672569Y-32778867D01*
X-9644835Y-32787750D01*
X-9617772Y-32797304D01*
X-9591433Y-32807563D01*
X-9565869Y-32818560D01*
X-9541133Y-32830328D01*
X-9517277Y-32842902D01*
X-9494354Y-32856313D01*
X-9472415Y-32870596D01*
X-9451513Y-32885784D01*
X-9431700Y-32901910D01*
X-9413029Y-32919008D01*
X-9395551Y-32937111D01*
X-9379318Y-32956252D01*
X-9364384Y-32976465D01*
X-9350800Y-32997783D01*
X-9338619Y-33020240D01*
X-9327892Y-33043868D01*
X-9318672Y-33068701D01*
X-9311012Y-33094773D01*
X-9304962Y-33122117D01*
X-9300577Y-33150766D01*
X-9297907Y-33180754D01*
X-9297006Y-33212114D01*
X-9298363Y-33247958D01*
X-9302621Y-33284839D01*
X-9310060Y-33322296D01*
X-9320957Y-33359866D01*
X-9327790Y-33378548D01*
X-9335592Y-33397086D01*
X-9344399Y-33415421D01*
X-9354244Y-33433495D01*
X-9365164Y-33451251D01*
X-9377193Y-33468631D01*
X-9390366Y-33485576D01*
X-9404717Y-33502030D01*
X-9420282Y-33517935D01*
X-9437095Y-33533232D01*
X-9455192Y-33547863D01*
X-9474607Y-33561772D01*
X-9495375Y-33574901D01*
X-9517531Y-33587191D01*
X-9541109Y-33598584D01*
X-9566146Y-33609024D01*
X-9592675Y-33618452D01*
X-9620732Y-33626810D01*
X-9650352Y-33634041D01*
X-9681568Y-33640087D01*
X-9714417Y-33644889D01*
X-9748933Y-33648392D01*
X-9785150Y-33650535D01*
X-9823105Y-33651263D01*
X-9855457Y-33650763D01*
X-9886320Y-33649295D01*
X-9915731Y-33646909D01*
X-9943729Y-33643653D01*
X-9970354Y-33639575D01*
X-9995642Y-33634725D01*
X-10019633Y-33629150D01*
X-10042366Y-33622900D01*
X-10063879Y-33616023D01*
X-10084210Y-33608568D01*
X-10103399Y-33600583D01*
X-10121483Y-33592118D01*
X-10154492Y-33573939D01*
X-10183546Y-33554420D01*
X-10208954Y-33533952D01*
X-10231024Y-33512922D01*
X-10250064Y-33491720D01*
X-10266383Y-33470737D01*
X-10280289Y-33450359D01*
X-10292090Y-33430978D01*
X-10302096Y-33412983D01*
X-10310614Y-33396762D01*
X-10310709Y-33417322D01*
X-10311116Y-33438935D01*
X-10312019Y-33461263D01*
X-10313602Y-33483968D01*
X-10316047Y-33506711D01*
X-10319539Y-33529155D01*
X-10324262Y-33550961D01*
X-10330397Y-33571792D01*
X-10338130Y-33591309D01*
X-10347644Y-33609174D01*
X-10355066Y-33620000D01*
X-10744389Y-33620000D01*
X-10725500Y-33606178D01*
X-10709608Y-33591238D01*
X-10696464Y-33575404D01*
X-10685819Y-33558897D01*
X-10675085Y-33536224D01*
X-10667762Y-33513277D01*
X-10663262Y-33490581D01*
X-10660994Y-33468664D01*
X-10660369Y-33448053D01*
X-10660369Y-32826699D01*
X-10307683Y-32826699D01*
X-10288143Y-32923419D01*
X-10288143Y-33092923D01*
X-10285588Y-33129489D01*
X-10278214Y-33163545D01*
X-10266457Y-33195112D01*
X-10250751Y-33224212D01*
X-10231534Y-33250864D01*
X-10209240Y-33275089D01*
X-10184307Y-33296910D01*
X-10157168Y-33316345D01*
X-10128261Y-33333415D01*
X-10098020Y-33348143D01*
X-10066882Y-33360548D01*
X-10035283Y-33370650D01*
X-10003658Y-33378472D01*
X-9972443Y-33384033D01*
X-9942074Y-33387355D01*
X-9912986Y-33388457D01*
X-9888172Y-33387499D01*
X-9864175Y-33384685D01*
X-9841104Y-33380105D01*
X-9819067Y-33373849D01*
X-9798172Y-33366007D01*
X-9778528Y-33356669D01*
X-9760241Y-33345927D01*
X-9743421Y-33333869D01*
X-9728174Y-33320586D01*
X-9714610Y-33306168D01*
X-9697655Y-33282611D01*
X-9685093Y-33257008D01*
X-9677288Y-33229662D01*
X-9674605Y-33200879D01*
X-9676971Y-33168762D01*
X-9683799Y-33139540D01*
X-9694685Y-33113062D01*
X-9709227Y-33089176D01*
X-9727020Y-33067731D01*
X-9747661Y-33048577D01*
X-9770746Y-33031563D01*
X-9795872Y-33016536D01*
X-9822635Y-33003348D01*
X-9850632Y-32991846D01*
X-9879459Y-32981880D01*
X-9908712Y-32973298D01*
X-9937988Y-32965950D01*
X-9966884Y-32959684D01*
X-9994995Y-32954350D01*
X-10021919Y-32949797D01*
X-10050743Y-32945372D01*
X-10077414Y-32940841D01*
X-10102080Y-32936135D01*
X-10124890Y-32931181D01*
X-10145990Y-32925910D01*
X-10165530Y-32920250D01*
X-10192238Y-32910877D01*
X-10216268Y-32900232D01*
X-10238119Y-32888074D01*
X-10258292Y-32874166D01*
X-10277287Y-32858267D01*
X-10295602Y-32840140D01*
X-10307683Y-32826699D01*
X-10660369Y-32826699D01*
X-10660369Y-32626420D01*
X-10659491Y-32590837D01*
X-10656889Y-32556618D01*
X-10652609Y-32523748D01*
X-10646698Y-32492212D01*
X-10639205Y-32461994D01*
X-10630175Y-32433078D01*
X-10619657Y-32405450D01*
X-10607697Y-32379093D01*
X-10594342Y-32353993D01*
X-10579640Y-32330134D01*
X-10563637Y-32307501D01*
X-10546381Y-32286079D01*
X-10527920Y-32265851D01*
X-10508299Y-32246803D01*
X-10487566Y-32228919D01*
X-10465769Y-32212184D01*
X-10442954Y-32196582D01*
X-10419169Y-32182098D01*
X-10394461Y-32168718D01*
X-10368876Y-32156424D01*
X-10342463Y-32145202D01*
X-10315267Y-32135037D01*
X-10287337Y-32125913D01*
X-10258720Y-32117814D01*
X-10229462Y-32110726D01*
X-10199610Y-32104633D01*
X-10169213Y-32099520D01*
X-10138316Y-32095371D01*
X-10106968Y-32092170D01*
X-10075215Y-32089903D01*
X-10043104Y-32088555D01*
X-10010683Y-32088108D01*
X-9970560Y-32088919D01*
G37*
G36*
X-11638806Y-32416371D02*
G01*
X-11638806Y-32119371D01*
X-11378443Y-32119371D01*
X-11378443Y-31696831D01*
X-11009148Y-31696831D01*
X-11009148Y-32119371D01*
X-10801542Y-32119371D01*
X-10801542Y-32416371D01*
X-11009148Y-32416371D01*
X-11009148Y-33264870D01*
X-11009446Y-33286819D01*
X-11010350Y-33308062D01*
X-11011878Y-33328599D01*
X-11014046Y-33348431D01*
X-11020373Y-33385982D01*
X-11029466Y-33420720D01*
X-11041461Y-33452651D01*
X-11056495Y-33481778D01*
X-11074703Y-33508108D01*
X-11096221Y-33531645D01*
X-11121185Y-33552394D01*
X-11149731Y-33570360D01*
X-11181995Y-33585548D01*
X-11218113Y-33597964D01*
X-11237660Y-33603134D01*
X-11258221Y-33607612D01*
X-11279814Y-33611400D01*
X-11302455Y-33614497D01*
X-11326162Y-33616905D01*
X-11350951Y-33618625D01*
X-11376840Y-33619656D01*
X-11403845Y-33620000D01*
X-11630502Y-33620000D01*
X-11630502Y-33340097D01*
X-11470767Y-33340097D01*
X-11448427Y-33338665D01*
X-11429345Y-33334319D01*
X-11409942Y-33324676D01*
X-11395326Y-33310219D01*
X-11385330Y-33290802D01*
X-11380546Y-33271599D01*
X-11378527Y-33249055D01*
X-11378443Y-33242889D01*
X-11378443Y-32416371D01*
X-11638806Y-32416371D01*
G37*
G36*
X-12407127Y-32088919D02*
G01*
X-12385440Y-32090025D01*
X-12362819Y-32091683D01*
X-12339374Y-32093955D01*
X-12315216Y-32096902D01*
X-12290456Y-32100588D01*
X-12265205Y-32105076D01*
X-12239574Y-32110427D01*
X-12213674Y-32116704D01*
X-12187616Y-32123970D01*
X-12161512Y-32132287D01*
X-12135471Y-32141718D01*
X-12109605Y-32152325D01*
X-12084025Y-32164171D01*
X-12058843Y-32177318D01*
X-12034168Y-32191829D01*
X-12010113Y-32207767D01*
X-11986787Y-32225193D01*
X-11964303Y-32244171D01*
X-11942770Y-32264763D01*
X-11922301Y-32287031D01*
X-11903006Y-32311038D01*
X-11884995Y-32336847D01*
X-11868381Y-32364520D01*
X-11853274Y-32394119D01*
X-11839785Y-32425707D01*
X-11828025Y-32459347D01*
X-11818105Y-32495101D01*
X-11810136Y-32533032D01*
X-11804229Y-32573201D01*
X-11800495Y-32615673D01*
X-12133642Y-32615673D01*
X-12136843Y-32590301D01*
X-12140473Y-32568038D01*
X-12144916Y-32548328D01*
X-12152198Y-32526434D01*
X-12162098Y-32506578D01*
X-12175365Y-32487674D01*
X-12188907Y-32472508D01*
X-12192749Y-32468639D01*
X-12211313Y-32451990D01*
X-12231099Y-32437484D01*
X-12251830Y-32424973D01*
X-12273227Y-32414310D01*
X-12295014Y-32405347D01*
X-12316912Y-32397936D01*
X-12338644Y-32391931D01*
X-12359933Y-32387184D01*
X-12380501Y-32383547D01*
X-12400069Y-32380873D01*
X-12426942Y-32378347D01*
X-12450005Y-32377158D01*
X-12473211Y-32376794D01*
X-12480956Y-32376803D01*
X-12502611Y-32377238D01*
X-12524388Y-32378589D01*
X-12546078Y-32380925D01*
X-12567471Y-32384314D01*
X-12588357Y-32388825D01*
X-12608528Y-32394526D01*
X-12627772Y-32401487D01*
X-12645881Y-32409776D01*
X-12670456Y-32424850D01*
X-12691296Y-32443299D01*
X-12707695Y-32465353D01*
X-12718944Y-32491246D01*
X-12723234Y-32510755D01*
X-12724710Y-32532142D01*
X-12722624Y-32556913D01*
X-12716564Y-32579299D01*
X-12706826Y-32599445D01*
X-12693706Y-32617497D01*
X-12677501Y-32633600D01*
X-12658507Y-32647899D01*
X-12637019Y-32660539D01*
X-12613335Y-32671666D01*
X-12587750Y-32681424D01*
X-12560562Y-32689960D01*
X-12532065Y-32697418D01*
X-12502556Y-32703944D01*
X-12472331Y-32709682D01*
X-12441688Y-32714779D01*
X-12410921Y-32719379D01*
X-12380327Y-32723628D01*
X-12348903Y-32727970D01*
X-12317680Y-32732683D01*
X-12286710Y-32737800D01*
X-12256046Y-32743356D01*
X-12225740Y-32749382D01*
X-12195843Y-32755913D01*
X-12166409Y-32762982D01*
X-12137489Y-32770622D01*
X-12109136Y-32778867D01*
X-12081402Y-32787750D01*
X-12054339Y-32797304D01*
X-12028000Y-32807563D01*
X-12002436Y-32818560D01*
X-11977700Y-32830328D01*
X-11953844Y-32842902D01*
X-11930921Y-32856313D01*
X-11908982Y-32870596D01*
X-11888080Y-32885784D01*
X-11868267Y-32901910D01*
X-11849595Y-32919008D01*
X-11832117Y-32937111D01*
X-11815885Y-32956252D01*
X-11800951Y-32976465D01*
X-11787367Y-32997783D01*
X-11775185Y-33020240D01*
X-11764459Y-33043868D01*
X-11755239Y-33068701D01*
X-11747578Y-33094773D01*
X-11741529Y-33122117D01*
X-11737144Y-33150766D01*
X-11734474Y-33180754D01*
X-11733572Y-33212114D01*
X-11734930Y-33247958D01*
X-11739188Y-33284839D01*
X-11746626Y-33322296D01*
X-11757523Y-33359866D01*
X-11764356Y-33378548D01*
X-11772159Y-33397086D01*
X-11780965Y-33415421D01*
X-11790811Y-33433495D01*
X-11801731Y-33451251D01*
X-11813760Y-33468631D01*
X-11826932Y-33485576D01*
X-11841284Y-33502030D01*
X-11856848Y-33517935D01*
X-11873662Y-33533232D01*
X-11891758Y-33547863D01*
X-11911173Y-33561772D01*
X-11931941Y-33574901D01*
X-11954097Y-33587191D01*
X-11977676Y-33598584D01*
X-12002713Y-33609024D01*
X-12029242Y-33618452D01*
X-12057299Y-33626810D01*
X-12086918Y-33634041D01*
X-12118135Y-33640087D01*
X-12150983Y-33644889D01*
X-12185499Y-33648392D01*
X-12221717Y-33650535D01*
X-12259672Y-33651263D01*
X-12292024Y-33650763D01*
X-12322886Y-33649295D01*
X-12352298Y-33646909D01*
X-12380296Y-33643653D01*
X-12406920Y-33639575D01*
X-12432209Y-33634725D01*
X-12456200Y-33629150D01*
X-12478933Y-33622900D01*
X-12500446Y-33616023D01*
X-12520777Y-33608568D01*
X-12539965Y-33600583D01*
X-12558049Y-33592118D01*
X-12591059Y-33573939D01*
X-12620113Y-33554420D01*
X-12645521Y-33533952D01*
X-12667590Y-33512922D01*
X-12686631Y-33491720D01*
X-12702949Y-33470737D01*
X-12716855Y-33450359D01*
X-12728657Y-33430978D01*
X-12738662Y-33412983D01*
X-12747180Y-33396762D01*
X-12747275Y-33417322D01*
X-12747683Y-33438935D01*
X-12748586Y-33461263D01*
X-12750168Y-33483968D01*
X-12752614Y-33506711D01*
X-12756106Y-33529155D01*
X-12760828Y-33550961D01*
X-12766964Y-33571792D01*
X-12774697Y-33591309D01*
X-12784210Y-33609174D01*
X-12791632Y-33620000D01*
X-13180956Y-33620000D01*
X-13162066Y-33606178D01*
X-13146174Y-33591238D01*
X-13133030Y-33575404D01*
X-13122386Y-33558897D01*
X-13111652Y-33536224D01*
X-13104329Y-33513277D01*
X-13099829Y-33490581D01*
X-13097561Y-33468664D01*
X-13096936Y-33448053D01*
X-13096936Y-32826699D01*
X-12744249Y-32826699D01*
X-12724710Y-32923419D01*
X-12724710Y-33092923D01*
X-12722155Y-33129489D01*
X-12714781Y-33163545D01*
X-12703023Y-33195112D01*
X-12687318Y-33224212D01*
X-12668101Y-33250864D01*
X-12645807Y-33275089D01*
X-12620873Y-33296910D01*
X-12593735Y-33316345D01*
X-12564827Y-33333415D01*
X-12534587Y-33348143D01*
X-12503449Y-33360548D01*
X-12471850Y-33370650D01*
X-12440225Y-33378472D01*
X-12409010Y-33384033D01*
X-12378641Y-33387355D01*
X-12349553Y-33388457D01*
X-12324738Y-33387499D01*
X-12300742Y-33384685D01*
X-12277671Y-33380105D01*
X-12255634Y-33373849D01*
X-12234739Y-33366007D01*
X-12215094Y-33356669D01*
X-12196808Y-33345927D01*
X-12179987Y-33333869D01*
X-12164741Y-33320586D01*
X-12151177Y-33306168D01*
X-12134222Y-33282611D01*
X-12121659Y-33257008D01*
X-12113855Y-33229662D01*
X-12111172Y-33200879D01*
X-12113537Y-33168762D01*
X-12120365Y-33139540D01*
X-12131252Y-33113062D01*
X-12145793Y-33089176D01*
X-12163586Y-33067731D01*
X-12184227Y-33048577D01*
X-12207312Y-33031563D01*
X-12232438Y-33016536D01*
X-12259202Y-33003348D01*
X-12287198Y-32991846D01*
X-12316025Y-32981880D01*
X-12345279Y-32973298D01*
X-12374555Y-32965950D01*
X-12403450Y-32959684D01*
X-12431562Y-32954350D01*
X-12458485Y-32949797D01*
X-12487310Y-32945372D01*
X-12513981Y-32940841D01*
X-12538647Y-32936135D01*
X-12561456Y-32931181D01*
X-12582557Y-32925910D01*
X-12602097Y-32920250D01*
X-12628805Y-32910877D01*
X-12652835Y-32900232D01*
X-12674686Y-32888074D01*
X-12694859Y-32874166D01*
X-12713853Y-32858267D01*
X-12732169Y-32840140D01*
X-12744249Y-32826699D01*
X-13096936Y-32826699D01*
X-13096936Y-32626420D01*
X-13096058Y-32590837D01*
X-13093455Y-32556618D01*
X-13089175Y-32523748D01*
X-13083265Y-32492212D01*
X-13075772Y-32461994D01*
X-13066742Y-32433078D01*
X-13056224Y-32405450D01*
X-13044264Y-32379093D01*
X-13030909Y-32353993D01*
X-13016206Y-32330134D01*
X-13000204Y-32307501D01*
X-12982948Y-32286079D01*
X-12964486Y-32265851D01*
X-12944865Y-32246803D01*
X-12924133Y-32228919D01*
X-12902336Y-32212184D01*
X-12879521Y-32196582D01*
X-12855736Y-32182098D01*
X-12831027Y-32168718D01*
X-12805443Y-32156424D01*
X-12779029Y-32145202D01*
X-12751834Y-32135037D01*
X-12723904Y-32125913D01*
X-12695286Y-32117814D01*
X-12666028Y-32110726D01*
X-12636177Y-32104633D01*
X-12605780Y-32099520D01*
X-12574883Y-32095371D01*
X-12543535Y-32092170D01*
X-12511782Y-32089903D01*
X-12479671Y-32088555D01*
X-12447250Y-32088108D01*
X-12407127Y-32088919D01*
G37*
G36*
X-14708450Y-33620000D02*
G01*
X-14708450Y-33326420D01*
X-13761765Y-33326420D01*
X-13777922Y-33295131D01*
X-13794003Y-33265726D01*
X-13810333Y-33237903D01*
X-13827237Y-33211358D01*
X-13845040Y-33185790D01*
X-13864067Y-33160895D01*
X-13884641Y-33136370D01*
X-13907090Y-33111913D01*
X-13931736Y-33087222D01*
X-13958905Y-33061993D01*
X-13988923Y-33035925D01*
X-14005101Y-33022481D01*
X-14022113Y-33008713D01*
X-14039999Y-32994584D01*
X-14058800Y-32980056D01*
X-14078557Y-32965091D01*
X-14099311Y-32949651D01*
X-14121101Y-32933699D01*
X-14143968Y-32917195D01*
X-14167954Y-32900104D01*
X-14193098Y-32882386D01*
X-14217950Y-32864888D01*
X-14242566Y-32847363D01*
X-14266909Y-32829786D01*
X-14290943Y-32812129D01*
X-14314632Y-32794367D01*
X-14337939Y-32776473D01*
X-14360828Y-32758420D01*
X-14383264Y-32740183D01*
X-14405209Y-32721735D01*
X-14426628Y-32703049D01*
X-14447485Y-32684100D01*
X-14467742Y-32664860D01*
X-14487365Y-32645304D01*
X-14506316Y-32625404D01*
X-14524560Y-32605136D01*
X-14542060Y-32584471D01*
X-14558780Y-32563384D01*
X-14574684Y-32541849D01*
X-14589735Y-32519838D01*
X-14603898Y-32497327D01*
X-14617136Y-32474287D01*
X-14629413Y-32450694D01*
X-14640693Y-32426520D01*
X-14650939Y-32401739D01*
X-14660115Y-32376325D01*
X-14668185Y-32350251D01*
X-14675114Y-32323491D01*
X-14680863Y-32296019D01*
X-14685398Y-32267808D01*
X-14688682Y-32238832D01*
X-14690680Y-32209064D01*
X-14691353Y-32178478D01*
X-14690561Y-32144801D01*
X-14688201Y-32111574D01*
X-14684294Y-32078837D01*
X-14678864Y-32046631D01*
X-14671932Y-32014997D01*
X-14663523Y-31983975D01*
X-14653658Y-31953607D01*
X-14642360Y-31923931D01*
X-14629651Y-31894990D01*
X-14615555Y-31866824D01*
X-14600094Y-31839473D01*
X-14583290Y-31812978D01*
X-14565167Y-31787380D01*
X-14545746Y-31762719D01*
X-14525050Y-31739036D01*
X-14503103Y-31716371D01*
X-14479926Y-31694765D01*
X-14455543Y-31674259D01*
X-14429976Y-31654893D01*
X-14403247Y-31636708D01*
X-14375379Y-31619744D01*
X-14346395Y-31604042D01*
X-14316318Y-31589643D01*
X-14285170Y-31576588D01*
X-14252973Y-31564916D01*
X-14219751Y-31554668D01*
X-14185526Y-31545886D01*
X-14150320Y-31538610D01*
X-14114157Y-31532879D01*
X-14077058Y-31528736D01*
X-14039047Y-31526220D01*
X-14000146Y-31525373D01*
X-13942566Y-31527033D01*
X-13888455Y-31531897D01*
X-13837704Y-31539785D01*
X-13790205Y-31550520D01*
X-13745849Y-31563926D01*
X-13704528Y-31579823D01*
X-13666132Y-31598035D01*
X-13630553Y-31618384D01*
X-13597683Y-31640691D01*
X-13567412Y-31664781D01*
X-13539633Y-31690474D01*
X-13514235Y-31717594D01*
X-13491112Y-31745962D01*
X-13470153Y-31775401D01*
X-13451251Y-31805734D01*
X-13434296Y-31836782D01*
X-13419181Y-31868369D01*
X-13405796Y-31900316D01*
X-13394032Y-31932446D01*
X-13383781Y-31964581D01*
X-13374935Y-31996543D01*
X-13367384Y-32028156D01*
X-13361020Y-32059240D01*
X-13355734Y-32089620D01*
X-13351418Y-32119116D01*
X-13347963Y-32147552D01*
X-13345260Y-32174749D01*
X-13343201Y-32200531D01*
X-13341676Y-32224719D01*
X-13340578Y-32247136D01*
X-13339797Y-32267604D01*
X-13339225Y-32285945D01*
X-13694842Y-32285945D01*
X-13695440Y-32255702D01*
X-13696579Y-32222737D01*
X-13698651Y-32187695D01*
X-13702048Y-32151222D01*
X-13707162Y-32113962D01*
X-13714386Y-32076559D01*
X-13724111Y-32039659D01*
X-13736730Y-32003906D01*
X-13752635Y-31969944D01*
X-13772218Y-31938419D01*
X-13795871Y-31909975D01*
X-13823986Y-31885257D01*
X-13856955Y-31864910D01*
X-13875383Y-31856576D01*
X-13895171Y-31849578D01*
X-13916369Y-31843994D01*
X-13939026Y-31839906D01*
X-13963190Y-31837393D01*
X-13988911Y-31836538D01*
X-14022922Y-31838237D01*
X-14055631Y-31843237D01*
X-14086915Y-31851392D01*
X-14116650Y-31862558D01*
X-14144713Y-31876588D01*
X-14170982Y-31893339D01*
X-14195334Y-31912664D01*
X-14217644Y-31934419D01*
X-14237791Y-31958457D01*
X-14255651Y-31984634D01*
X-14271101Y-32012805D01*
X-14284017Y-32042824D01*
X-14294278Y-32074546D01*
X-14301759Y-32107826D01*
X-14306338Y-32142519D01*
X-14307892Y-32178478D01*
X-14306815Y-32211620D01*
X-14303465Y-32243436D01*
X-14297665Y-32274184D01*
X-14289238Y-32304118D01*
X-14278006Y-32333494D01*
X-14263791Y-32362568D01*
X-14246416Y-32391594D01*
X-14225704Y-32420828D01*
X-14201478Y-32450526D01*
X-14187991Y-32465629D01*
X-14173558Y-32480943D01*
X-14158159Y-32496501D01*
X-14141770Y-32512335D01*
X-14124369Y-32528476D01*
X-14105934Y-32544957D01*
X-14086443Y-32561809D01*
X-14065873Y-32579064D01*
X-14044203Y-32596755D01*
X-14021410Y-32614913D01*
X-13997473Y-32633569D01*
X-13972368Y-32652757D01*
X-13946074Y-32672508D01*
X-13918569Y-32692854D01*
X-13876224Y-32724607D01*
X-13835804Y-32755693D01*
X-13797260Y-32786161D01*
X-13760544Y-32816060D01*
X-13725608Y-32845438D01*
X-13692405Y-32874345D01*
X-13660886Y-32902828D01*
X-13631004Y-32930937D01*
X-13602710Y-32958720D01*
X-13575956Y-32986227D01*
X-13550696Y-33013506D01*
X-13526880Y-33040605D01*
X-13504461Y-33067574D01*
X-13483390Y-33094460D01*
X-13463621Y-33121314D01*
X-13445104Y-33148183D01*
X-13427793Y-33175117D01*
X-13411638Y-33202164D01*
X-13396593Y-33229373D01*
X-13382609Y-33256792D01*
X-13369638Y-33284471D01*
X-13357632Y-33312458D01*
X-13346543Y-33340802D01*
X-13336325Y-33369551D01*
X-13326927Y-33398755D01*
X-13318303Y-33428462D01*
X-13310405Y-33458721D01*
X-13303184Y-33489580D01*
X-13296593Y-33521089D01*
X-13290583Y-33553296D01*
X-13285108Y-33586250D01*
X-13280118Y-33620000D01*
X-14708450Y-33620000D01*
G37*
G36*
X-15490164Y-31527566D02*
G01*
X-15434087Y-31534002D01*
X-15381295Y-31544463D01*
X-15331689Y-31558733D01*
X-15285172Y-31576594D01*
X-15241645Y-31597829D01*
X-15201010Y-31622222D01*
X-15163169Y-31649555D01*
X-15128025Y-31679612D01*
X-15095479Y-31712174D01*
X-15065433Y-31747027D01*
X-15037789Y-31783952D01*
X-15012449Y-31822732D01*
X-14989315Y-31863150D01*
X-14968290Y-31904991D01*
X-14949274Y-31948035D01*
X-14932170Y-31992067D01*
X-14916880Y-32036870D01*
X-14903306Y-32082226D01*
X-14891350Y-32127918D01*
X-14880914Y-32173730D01*
X-14871899Y-32219444D01*
X-14864209Y-32264844D01*
X-14857744Y-32309713D01*
X-14852407Y-32353833D01*
X-14848099Y-32396988D01*
X-14844723Y-32438960D01*
X-14842181Y-32479532D01*
X-14840374Y-32518489D01*
X-14839205Y-32555611D01*
X-14838576Y-32590684D01*
X-14838387Y-32623489D01*
X-14838584Y-32649688D01*
X-14839237Y-32678582D01*
X-14840444Y-32709938D01*
X-14842301Y-32743525D01*
X-14844904Y-32779114D01*
X-14848350Y-32816471D01*
X-14852735Y-32855366D01*
X-14858156Y-32895568D01*
X-14864709Y-32936845D01*
X-14872490Y-32978966D01*
X-14881596Y-33021701D01*
X-14892123Y-33064817D01*
X-14904168Y-33108084D01*
X-14917827Y-33151271D01*
X-14933196Y-33194146D01*
X-14950373Y-33236477D01*
X-14969453Y-33278035D01*
X-14990532Y-33318587D01*
X-15013708Y-33357902D01*
X-15039077Y-33395749D01*
X-15066734Y-33431898D01*
X-15096778Y-33466116D01*
X-15129303Y-33498172D01*
X-15164406Y-33527836D01*
X-15202184Y-33554876D01*
X-15242733Y-33579061D01*
X-15286150Y-33600159D01*
X-15332531Y-33617940D01*
X-15381972Y-33632172D01*
X-15434570Y-33642624D01*
X-15490422Y-33649064D01*
X-15549623Y-33651263D01*
X-15610543Y-33648944D01*
X-15667895Y-33642153D01*
X-15721787Y-33631138D01*
X-15772324Y-33616146D01*
X-15819616Y-33597425D01*
X-15863768Y-33575222D01*
X-15904888Y-33549786D01*
X-15943083Y-33521364D01*
X-15978460Y-33490203D01*
X-16011126Y-33456551D01*
X-16041189Y-33420656D01*
X-16068755Y-33382766D01*
X-16093932Y-33343128D01*
X-16116827Y-33301990D01*
X-16137547Y-33259600D01*
X-16156200Y-33216205D01*
X-16172892Y-33172053D01*
X-16187730Y-33127391D01*
X-16200822Y-33082468D01*
X-16212275Y-33037531D01*
X-16222195Y-32992827D01*
X-16230691Y-32948605D01*
X-16237869Y-32905112D01*
X-16243837Y-32862595D01*
X-16248701Y-32821302D01*
X-16252570Y-32781482D01*
X-16255549Y-32743381D01*
X-16257746Y-32707248D01*
X-16259268Y-32673329D01*
X-16260223Y-32641874D01*
X-16260717Y-32613128D01*
X-16260858Y-32587341D01*
X-15874466Y-32587341D01*
X-15874115Y-32642689D01*
X-15873066Y-32695472D01*
X-15871327Y-32745741D01*
X-15868902Y-32793551D01*
X-15865800Y-32838954D01*
X-15862027Y-32882004D01*
X-15857588Y-32922753D01*
X-15852491Y-32961254D01*
X-15846743Y-32997560D01*
X-15840349Y-33031725D01*
X-15833316Y-33063801D01*
X-15825650Y-33093842D01*
X-15817360Y-33121901D01*
X-15808449Y-33148030D01*
X-15798927Y-33172282D01*
X-15788797Y-33194712D01*
X-15778069Y-33215371D01*
X-15766747Y-33234312D01*
X-15754839Y-33251590D01*
X-15742350Y-33267257D01*
X-15715660Y-33293968D01*
X-15686727Y-33314871D01*
X-15655605Y-33330391D01*
X-15622345Y-33340951D01*
X-15587000Y-33346976D01*
X-15549623Y-33348890D01*
X-15515969Y-33347470D01*
X-15483266Y-33342794D01*
X-15451686Y-33334242D01*
X-15421403Y-33321191D01*
X-15392588Y-33303020D01*
X-15365413Y-33279106D01*
X-15340052Y-33248828D01*
X-15328105Y-33231108D01*
X-15316676Y-33211564D01*
X-15305787Y-33190118D01*
X-15295459Y-33166693D01*
X-15285713Y-33141210D01*
X-15276572Y-33113592D01*
X-15268056Y-33083760D01*
X-15260188Y-33051639D01*
X-15252988Y-33017149D01*
X-15246479Y-32980213D01*
X-15240682Y-32940753D01*
X-15235619Y-32898692D01*
X-15231310Y-32853952D01*
X-15227778Y-32806454D01*
X-15225045Y-32756122D01*
X-15223131Y-32702878D01*
X-15222058Y-32646643D01*
X-15221849Y-32587341D01*
X-15222241Y-32530495D01*
X-15223409Y-32476420D01*
X-15225336Y-32425051D01*
X-15228008Y-32376326D01*
X-15231410Y-32330182D01*
X-15235527Y-32286554D01*
X-15240344Y-32245380D01*
X-15245846Y-32206597D01*
X-15252017Y-32170140D01*
X-15258843Y-32135947D01*
X-15266309Y-32103954D01*
X-15274399Y-32074099D01*
X-15283099Y-32046317D01*
X-15292394Y-32020545D01*
X-15302268Y-31996721D01*
X-15312707Y-31974780D01*
X-15323696Y-31954659D01*
X-15335218Y-31936296D01*
X-15347261Y-31919626D01*
X-15359808Y-31904587D01*
X-15386355Y-31879146D01*
X-15414740Y-31859467D01*
X-15444842Y-31845042D01*
X-15476541Y-31835367D01*
X-15509717Y-31829933D01*
X-15544249Y-31828234D01*
X-15578387Y-31829621D01*
X-15611452Y-31834205D01*
X-15643290Y-31842614D01*
X-15673744Y-31855482D01*
X-15702658Y-31873439D01*
X-15729876Y-31897116D01*
X-15755242Y-31927144D01*
X-15767182Y-31944738D01*
X-15778600Y-31964155D01*
X-15789478Y-31985476D01*
X-15799795Y-32008779D01*
X-15809532Y-32034144D01*
X-15818670Y-32061648D01*
X-15827188Y-32091371D01*
X-15835068Y-32123393D01*
X-15842291Y-32157791D01*
X-15848835Y-32194644D01*
X-15854683Y-32234032D01*
X-15859815Y-32276033D01*
X-15864210Y-32320727D01*
X-15867850Y-32368192D01*
X-15870715Y-32418507D01*
X-15872786Y-32471751D01*
X-15874042Y-32528002D01*
X-15874466Y-32587341D01*
X-16260858Y-32587341D01*
X-16260757Y-32562541D01*
X-16260445Y-32537701D01*
X-16259910Y-32512830D01*
X-16259137Y-32487939D01*
X-16258113Y-32463038D01*
X-16256826Y-32438138D01*
X-16255262Y-32413249D01*
X-16253408Y-32388382D01*
X-16251251Y-32363547D01*
X-16248777Y-32338755D01*
X-16245973Y-32314016D01*
X-16242826Y-32289341D01*
X-16239322Y-32264739D01*
X-16235449Y-32240222D01*
X-16231194Y-32215801D01*
X-16226542Y-32191484D01*
X-16221481Y-32167284D01*
X-16215997Y-32143210D01*
X-16210077Y-32119272D01*
X-16203709Y-32095482D01*
X-16196878Y-32071850D01*
X-16189572Y-32048386D01*
X-16181777Y-32025101D01*
X-16173480Y-32002005D01*
X-16164668Y-31979109D01*
X-16155327Y-31956422D01*
X-16145445Y-31933957D01*
X-16135008Y-31911722D01*
X-16124003Y-31889729D01*
X-16112416Y-31867988D01*
X-16100235Y-31846509D01*
X-16087445Y-31825303D01*
X-16066202Y-31793277D01*
X-16043479Y-31762487D01*
X-16019240Y-31733048D01*
X-15993450Y-31705075D01*
X-15966071Y-31678681D01*
X-15937067Y-31653982D01*
X-15906402Y-31631092D01*
X-15874038Y-31610125D01*
X-15839940Y-31591196D01*
X-15822229Y-31582532D01*
X-15804071Y-31574420D01*
X-15785461Y-31566875D01*
X-15766395Y-31559910D01*
X-15746867Y-31553541D01*
X-15726874Y-31547782D01*
X-15706411Y-31542647D01*
X-15685473Y-31538150D01*
X-15664056Y-31534305D01*
X-15642155Y-31531128D01*
X-15619766Y-31528631D01*
X-15596884Y-31526831D01*
X-15573504Y-31525740D01*
X-15549623Y-31525373D01*
X-15490164Y-31527566D01*
G37*
G36*
X-17819127Y-33620000D02*
G01*
X-17819127Y-33326420D01*
X-16872442Y-33326420D01*
X-16888599Y-33295131D01*
X-16904680Y-33265726D01*
X-16921010Y-33237903D01*
X-16937914Y-33211358D01*
X-16955717Y-33185790D01*
X-16974743Y-33160895D01*
X-16995318Y-33136370D01*
X-17017766Y-33111913D01*
X-17042413Y-33087222D01*
X-17069582Y-33061993D01*
X-17099599Y-33035925D01*
X-17115778Y-33022481D01*
X-17132790Y-33008713D01*
X-17150676Y-32994584D01*
X-17169477Y-32980056D01*
X-17189234Y-32965091D01*
X-17209987Y-32949651D01*
X-17231778Y-32933699D01*
X-17254645Y-32917195D01*
X-17278631Y-32900104D01*
X-17303775Y-32882386D01*
X-17328627Y-32864888D01*
X-17353243Y-32847363D01*
X-17377586Y-32829786D01*
X-17401620Y-32812129D01*
X-17425308Y-32794367D01*
X-17448616Y-32776473D01*
X-17471505Y-32758420D01*
X-17493941Y-32740183D01*
X-17515886Y-32721735D01*
X-17537305Y-32703049D01*
X-17558162Y-32684100D01*
X-17578419Y-32664860D01*
X-17598042Y-32645304D01*
X-17616993Y-32625404D01*
X-17635237Y-32605136D01*
X-17652737Y-32584471D01*
X-17669457Y-32563384D01*
X-17685361Y-32541849D01*
X-17700412Y-32519838D01*
X-17714575Y-32497327D01*
X-17727813Y-32474287D01*
X-17740090Y-32450694D01*
X-17751370Y-32426520D01*
X-17761616Y-32401739D01*
X-17770792Y-32376325D01*
X-17778862Y-32350251D01*
X-17785790Y-32323491D01*
X-17791540Y-32296019D01*
X-17796075Y-32267808D01*
X-17799359Y-32238832D01*
X-17801356Y-32209064D01*
X-17802030Y-32178478D01*
X-17801238Y-32144801D01*
X-17798878Y-32111574D01*
X-17794971Y-32078837D01*
X-17789540Y-32046631D01*
X-17782609Y-32014997D01*
X-17774200Y-31983975D01*
X-17764335Y-31953607D01*
X-17753037Y-31923931D01*
X-17740328Y-31894990D01*
X-17726232Y-31866824D01*
X-17710771Y-31839473D01*
X-17693967Y-31812978D01*
X-17675843Y-31787380D01*
X-17656423Y-31762719D01*
X-17635727Y-31739036D01*
X-17613780Y-31716371D01*
X-17590603Y-31694765D01*
X-17566220Y-31674259D01*
X-17540653Y-31654893D01*
X-17513924Y-31636708D01*
X-17486056Y-31619744D01*
X-17457072Y-31604042D01*
X-17426995Y-31589643D01*
X-17395847Y-31576588D01*
X-17363650Y-31564916D01*
X-17330428Y-31554668D01*
X-17296203Y-31545886D01*
X-17260997Y-31538610D01*
X-17224834Y-31532879D01*
X-17187735Y-31528736D01*
X-17149724Y-31526220D01*
X-17110823Y-31525373D01*
X-17053243Y-31527033D01*
X-16999132Y-31531897D01*
X-16948381Y-31539785D01*
X-16900882Y-31550520D01*
X-16856526Y-31563926D01*
X-16815205Y-31579823D01*
X-16776809Y-31598035D01*
X-16741230Y-31618384D01*
X-16708360Y-31640691D01*
X-16678089Y-31664781D01*
X-16650310Y-31690474D01*
X-16624912Y-31717594D01*
X-16601789Y-31745962D01*
X-16580830Y-31775401D01*
X-16561928Y-31805734D01*
X-16544973Y-31836782D01*
X-16529858Y-31868369D01*
X-16516472Y-31900316D01*
X-16504709Y-31932446D01*
X-16494458Y-31964581D01*
X-16485612Y-31996543D01*
X-16478061Y-32028156D01*
X-16471697Y-32059240D01*
X-16466411Y-32089620D01*
X-16462095Y-32119116D01*
X-16458640Y-32147552D01*
X-16455937Y-32174749D01*
X-16453877Y-32200531D01*
X-16452353Y-32224719D01*
X-16451255Y-32247136D01*
X-16450474Y-32267604D01*
X-16449902Y-32285945D01*
X-16805519Y-32285945D01*
X-16806117Y-32255702D01*
X-16807256Y-32222737D01*
X-16809328Y-32187695D01*
X-16812725Y-32151222D01*
X-16817839Y-32113962D01*
X-16825063Y-32076559D01*
X-16834788Y-32039659D01*
X-16847407Y-32003906D01*
X-16863312Y-31969944D01*
X-16882895Y-31938419D01*
X-16906548Y-31909975D01*
X-16934663Y-31885257D01*
X-16967632Y-31864910D01*
X-16986060Y-31856576D01*
X-17005848Y-31849578D01*
X-17027046Y-31843994D01*
X-17049703Y-31839906D01*
X-17073867Y-31837393D01*
X-17099588Y-31836538D01*
X-17133599Y-31838237D01*
X-17166308Y-31843237D01*
X-17197592Y-31851392D01*
X-17227327Y-31862558D01*
X-17255390Y-31876588D01*
X-17281659Y-31893339D01*
X-17306011Y-31912664D01*
X-17328321Y-31934419D01*
X-17348468Y-31958457D01*
X-17366328Y-31984634D01*
X-17381777Y-32012805D01*
X-17394694Y-32042824D01*
X-17404955Y-32074546D01*
X-17412436Y-32107826D01*
X-17417015Y-32142519D01*
X-17418569Y-32178478D01*
X-17417492Y-32211620D01*
X-17414142Y-32243436D01*
X-17408342Y-32274184D01*
X-17399915Y-32304118D01*
X-17388683Y-32333494D01*
X-17374468Y-32362568D01*
X-17357093Y-32391594D01*
X-17336381Y-32420828D01*
X-17312154Y-32450526D01*
X-17298668Y-32465629D01*
X-17284235Y-32480943D01*
X-17268836Y-32496501D01*
X-17252447Y-32512335D01*
X-17235046Y-32528476D01*
X-17216611Y-32544957D01*
X-17197120Y-32561809D01*
X-17176550Y-32579064D01*
X-17154880Y-32596755D01*
X-17132087Y-32614913D01*
X-17108150Y-32633569D01*
X-17083045Y-32652757D01*
X-17056751Y-32672508D01*
X-17029246Y-32692854D01*
X-16986901Y-32724607D01*
X-16946481Y-32755693D01*
X-16907937Y-32786161D01*
X-16871221Y-32816060D01*
X-16836285Y-32845438D01*
X-16803082Y-32874345D01*
X-16771563Y-32902828D01*
X-16741680Y-32930937D01*
X-16713387Y-32958720D01*
X-16686633Y-32986227D01*
X-16661373Y-33013506D01*
X-16637557Y-33040605D01*
X-16615137Y-33067574D01*
X-16594067Y-33094460D01*
X-16574298Y-33121314D01*
X-16555781Y-33148183D01*
X-16538470Y-33175117D01*
X-16522315Y-33202164D01*
X-16507270Y-33229373D01*
X-16493285Y-33256792D01*
X-16480314Y-33284471D01*
X-16468309Y-33312458D01*
X-16457220Y-33340802D01*
X-16447001Y-33369551D01*
X-16437604Y-33398755D01*
X-16428980Y-33428462D01*
X-16421082Y-33458721D01*
X-16413861Y-33489580D01*
X-16407270Y-33521089D01*
X-16401260Y-33553296D01*
X-16395785Y-33586250D01*
X-16390795Y-33620000D01*
X-17819127Y-33620000D01*
G37*
G36*
X-17912916Y-32888736D02*
G01*
X-17912916Y-33182316D01*
X-18763859Y-33182316D01*
X-18763859Y-33620000D01*
X-19133642Y-33620000D01*
X-19133642Y-33182316D01*
X-19408171Y-33182316D01*
X-19408171Y-32910718D01*
X-19133642Y-32910718D01*
X-19133642Y-31896133D01*
X-18778025Y-31896133D01*
X-18763859Y-32078827D01*
X-18763859Y-32910718D01*
X-18212358Y-32910718D01*
X-18133712Y-32930746D01*
X-18212358Y-32836468D01*
X-18721849Y-32017766D01*
X-18778025Y-31896133D01*
X-19133642Y-31896133D01*
X-19133642Y-31587899D01*
X-18718918Y-31587899D01*
X-17912916Y-32888736D01*
G37*
G36*
X-20156179Y-31527566D02*
G01*
X-20100103Y-31534002D01*
X-20047310Y-31544463D01*
X-19997705Y-31558733D01*
X-19951187Y-31576594D01*
X-19907660Y-31597829D01*
X-19867025Y-31622222D01*
X-19829185Y-31649555D01*
X-19794040Y-31679612D01*
X-19761494Y-31712174D01*
X-19731448Y-31747027D01*
X-19703804Y-31783952D01*
X-19678464Y-31822732D01*
X-19655331Y-31863150D01*
X-19634305Y-31904991D01*
X-19615289Y-31948035D01*
X-19598185Y-31992067D01*
X-19582895Y-32036870D01*
X-19569321Y-32082226D01*
X-19557365Y-32127918D01*
X-19546929Y-32173730D01*
X-19537915Y-32219444D01*
X-19530224Y-32264844D01*
X-19523759Y-32309713D01*
X-19518422Y-32353833D01*
X-19514114Y-32396988D01*
X-19510738Y-32438960D01*
X-19508196Y-32479532D01*
X-19506390Y-32518489D01*
X-19505220Y-32555611D01*
X-19504591Y-32590684D01*
X-19504403Y-32623489D01*
X-19504599Y-32649688D01*
X-19505253Y-32678582D01*
X-19506460Y-32709938D01*
X-19508316Y-32743525D01*
X-19510920Y-32779114D01*
X-19514366Y-32816471D01*
X-19518751Y-32855366D01*
X-19524171Y-32895568D01*
X-19530724Y-32936845D01*
X-19538505Y-32978966D01*
X-19547611Y-33021701D01*
X-19558138Y-33064817D01*
X-19570183Y-33108084D01*
X-19583842Y-33151271D01*
X-19599212Y-33194146D01*
X-19616388Y-33236477D01*
X-19635468Y-33278035D01*
X-19656548Y-33318587D01*
X-19679724Y-33357902D01*
X-19705092Y-33395749D01*
X-19732750Y-33431898D01*
X-19762793Y-33466116D01*
X-19795318Y-33498172D01*
X-19830421Y-33527836D01*
X-19868199Y-33554876D01*
X-19908749Y-33579061D01*
X-19952165Y-33600159D01*
X-19998546Y-33617940D01*
X-20047987Y-33632172D01*
X-20100586Y-33642624D01*
X-20156437Y-33649064D01*
X-20215638Y-33651263D01*
X-20276558Y-33648944D01*
X-20333910Y-33642153D01*
X-20387802Y-33631138D01*
X-20438340Y-33616146D01*
X-20485631Y-33597425D01*
X-20529783Y-33575222D01*
X-20570903Y-33549786D01*
X-20609098Y-33521364D01*
X-20644475Y-33490203D01*
X-20677141Y-33456551D01*
X-20707204Y-33420656D01*
X-20734770Y-33382766D01*
X-20759948Y-33343128D01*
X-20782843Y-33301990D01*
X-20803563Y-33259600D01*
X-20822215Y-33216205D01*
X-20838907Y-33172053D01*
X-20853745Y-33127391D01*
X-20866837Y-33082468D01*
X-20878290Y-33037531D01*
X-20888211Y-32992827D01*
X-20896707Y-32948605D01*
X-20903885Y-32905112D01*
X-20909853Y-32862595D01*
X-20914717Y-32821302D01*
X-20918585Y-32781482D01*
X-20921564Y-32743381D01*
X-20923761Y-32707248D01*
X-20925283Y-32673329D01*
X-20926238Y-32641874D01*
X-20926732Y-32613128D01*
X-20926873Y-32587341D01*
X-20540481Y-32587341D01*
X-20540130Y-32642689D01*
X-20539082Y-32695472D01*
X-20537342Y-32745741D01*
X-20534918Y-32793551D01*
X-20531816Y-32838954D01*
X-20528042Y-32882004D01*
X-20523604Y-32922753D01*
X-20518507Y-32961254D01*
X-20512758Y-32997560D01*
X-20506364Y-33031725D01*
X-20499331Y-33063801D01*
X-20491666Y-33093842D01*
X-20483375Y-33121901D01*
X-20474465Y-33148030D01*
X-20464942Y-33172282D01*
X-20454813Y-33194712D01*
X-20444084Y-33215371D01*
X-20432762Y-33234312D01*
X-20420854Y-33251590D01*
X-20408366Y-33267257D01*
X-20381675Y-33293968D01*
X-20352742Y-33314871D01*
X-20321620Y-33330391D01*
X-20288360Y-33340951D01*
X-20253016Y-33346976D01*
X-20215638Y-33348890D01*
X-20181984Y-33347470D01*
X-20149281Y-33342794D01*
X-20117702Y-33334242D01*
X-20087418Y-33321191D01*
X-20058603Y-33303020D01*
X-20031428Y-33279106D01*
X-20006067Y-33248828D01*
X-19994120Y-33231108D01*
X-19982691Y-33211564D01*
X-19971802Y-33190118D01*
X-19961474Y-33166693D01*
X-19951728Y-33141210D01*
X-19942587Y-33113592D01*
X-19934071Y-33083760D01*
X-19926203Y-33051639D01*
X-19919004Y-33017149D01*
X-19912494Y-32980213D01*
X-19906697Y-32940753D01*
X-19901634Y-32898692D01*
X-19897325Y-32853952D01*
X-19893794Y-32806454D01*
X-19891060Y-32756122D01*
X-19889146Y-32702878D01*
X-19888074Y-32646643D01*
X-19887864Y-32587341D01*
X-19888257Y-32530495D01*
X-19889424Y-32476420D01*
X-19891351Y-32425051D01*
X-19894024Y-32376326D01*
X-19897426Y-32330182D01*
X-19901543Y-32286554D01*
X-19906359Y-32245380D01*
X-19911861Y-32206597D01*
X-19918032Y-32170140D01*
X-19924858Y-32135947D01*
X-19932324Y-32103954D01*
X-19940414Y-32074099D01*
X-19949115Y-32046317D01*
X-19958409Y-32020545D01*
X-19968284Y-31996721D01*
X-19978722Y-31974780D01*
X-19989711Y-31954659D01*
X-20001234Y-31936296D01*
X-20013276Y-31919626D01*
X-20025823Y-31904587D01*
X-20052370Y-31879146D01*
X-20080755Y-31859467D01*
X-20110857Y-31845042D01*
X-20142556Y-31835367D01*
X-20175732Y-31829933D01*
X-20210265Y-31828234D01*
X-20244402Y-31829621D01*
X-20277468Y-31834205D01*
X-20309305Y-31842614D01*
X-20339759Y-31855482D01*
X-20368673Y-31873439D01*
X-20395891Y-31897116D01*
X-20421257Y-31927144D01*
X-20433197Y-31944738D01*
X-20444616Y-31964155D01*
X-20455493Y-31985476D01*
X-20465810Y-32008779D01*
X-20475547Y-32034144D01*
X-20484685Y-32061648D01*
X-20493204Y-32091371D01*
X-20501084Y-32123393D01*
X-20508306Y-32157791D01*
X-20514851Y-32194644D01*
X-20520699Y-32234032D01*
X-20525830Y-32276033D01*
X-20530225Y-32320727D01*
X-20533865Y-32368192D01*
X-20536731Y-32418507D01*
X-20538801Y-32471751D01*
X-20540058Y-32528002D01*
X-20540481Y-32587341D01*
X-20926873Y-32587341D01*
X-20926772Y-32562541D01*
X-20926461Y-32537701D01*
X-20925925Y-32512830D01*
X-20925152Y-32487939D01*
X-20924129Y-32463038D01*
X-20922842Y-32438138D01*
X-20921278Y-32413249D01*
X-20919424Y-32388382D01*
X-20917266Y-32363547D01*
X-20914792Y-32338755D01*
X-20911988Y-32314016D01*
X-20908841Y-32289341D01*
X-20905338Y-32264739D01*
X-20901465Y-32240222D01*
X-20897209Y-32215801D01*
X-20892557Y-32191484D01*
X-20887496Y-32167284D01*
X-20882012Y-32143210D01*
X-20876093Y-32119272D01*
X-20869724Y-32095482D01*
X-20862893Y-32071850D01*
X-20855587Y-32048386D01*
X-20847792Y-32025101D01*
X-20839495Y-32002005D01*
X-20830683Y-31979109D01*
X-20821343Y-31956422D01*
X-20811460Y-31933957D01*
X-20801023Y-31911722D01*
X-20790018Y-31889729D01*
X-20778431Y-31867988D01*
X-20766250Y-31846509D01*
X-20753461Y-31825303D01*
X-20732217Y-31793277D01*
X-20709494Y-31762487D01*
X-20685256Y-31733048D01*
X-20659465Y-31705075D01*
X-20632087Y-31678681D01*
X-20603083Y-31653982D01*
X-20572417Y-31631092D01*
X-20540054Y-31610125D01*
X-20505956Y-31591196D01*
X-20488245Y-31582532D01*
X-20470087Y-31574420D01*
X-20451477Y-31566875D01*
X-20432410Y-31559910D01*
X-20412883Y-31553541D01*
X-20392890Y-31547782D01*
X-20372426Y-31542647D01*
X-20351489Y-31538150D01*
X-20330072Y-31534305D01*
X-20308171Y-31531128D01*
X-20285782Y-31528631D01*
X-20262899Y-31526831D01*
X-20239520Y-31525740D01*
X-20215638Y-31525373D01*
X-20156179Y-31527566D01*
G37*
G36*
X-22006427Y-33620000D02*
G01*
X-22006427Y-31587899D01*
X-21704054Y-31587899D01*
X-21697739Y-31612611D01*
X-21690459Y-31636292D01*
X-21682260Y-31658958D01*
X-21673191Y-31680624D01*
X-21663298Y-31701308D01*
X-21652629Y-31721026D01*
X-21641233Y-31739792D01*
X-21629155Y-31757625D01*
X-21616445Y-31774539D01*
X-21603148Y-31790552D01*
X-21589313Y-31805679D01*
X-21574988Y-31819936D01*
X-21560219Y-31833341D01*
X-21545054Y-31845908D01*
X-21513728Y-31868595D01*
X-21481388Y-31888128D01*
X-21448415Y-31904637D01*
X-21415188Y-31918251D01*
X-21382088Y-31929099D01*
X-21349495Y-31937310D01*
X-21317789Y-31943016D01*
X-21287349Y-31946344D01*
X-21258555Y-31947424D01*
X-21096378Y-31947424D01*
X-21096378Y-32213161D01*
X-21650809Y-32213161D01*
X-21650809Y-33620000D01*
X-22006427Y-33620000D01*
G37*
G36*
X-23266856Y-31527566D02*
G01*
X-23210779Y-31534002D01*
X-23157987Y-31544463D01*
X-23108382Y-31558733D01*
X-23061864Y-31576594D01*
X-23018337Y-31597829D01*
X-22977702Y-31622222D01*
X-22939862Y-31649555D01*
X-22904717Y-31679612D01*
X-22872171Y-31712174D01*
X-22842125Y-31747027D01*
X-22814481Y-31783952D01*
X-22789141Y-31822732D01*
X-22766008Y-31863150D01*
X-22744982Y-31904991D01*
X-22725966Y-31948035D01*
X-22708862Y-31992067D01*
X-22693572Y-32036870D01*
X-22679998Y-32082226D01*
X-22668042Y-32127918D01*
X-22657606Y-32173730D01*
X-22648592Y-32219444D01*
X-22640901Y-32264844D01*
X-22634436Y-32309713D01*
X-22629099Y-32353833D01*
X-22624791Y-32396988D01*
X-22621415Y-32438960D01*
X-22618873Y-32479532D01*
X-22617066Y-32518489D01*
X-22615897Y-32555611D01*
X-22615268Y-32590684D01*
X-22615080Y-32623489D01*
X-22615276Y-32649688D01*
X-22615930Y-32678582D01*
X-22617137Y-32709938D01*
X-22618993Y-32743525D01*
X-22621597Y-32779114D01*
X-22625042Y-32816471D01*
X-22629427Y-32855366D01*
X-22634848Y-32895568D01*
X-22641401Y-32936845D01*
X-22649182Y-32978966D01*
X-22658288Y-33021701D01*
X-22668815Y-33064817D01*
X-22680860Y-33108084D01*
X-22694519Y-33151271D01*
X-22709889Y-33194146D01*
X-22727065Y-33236477D01*
X-22746145Y-33278035D01*
X-22767225Y-33318587D01*
X-22790401Y-33357902D01*
X-22815769Y-33395749D01*
X-22843427Y-33431898D01*
X-22873470Y-33466116D01*
X-22905995Y-33498172D01*
X-22941098Y-33527836D01*
X-22978876Y-33554876D01*
X-23019425Y-33579061D01*
X-23062842Y-33600159D01*
X-23109223Y-33617940D01*
X-23158664Y-33632172D01*
X-23211262Y-33642624D01*
X-23267114Y-33649064D01*
X-23326315Y-33651263D01*
X-23387235Y-33648944D01*
X-23444587Y-33642153D01*
X-23498479Y-33631138D01*
X-23549017Y-33616146D01*
X-23596308Y-33597425D01*
X-23640460Y-33575222D01*
X-23681580Y-33549786D01*
X-23719775Y-33521364D01*
X-23755152Y-33490203D01*
X-23787818Y-33456551D01*
X-23817881Y-33420656D01*
X-23845447Y-33382766D01*
X-23870625Y-33343128D01*
X-23893520Y-33301990D01*
X-23914240Y-33259600D01*
X-23932892Y-33216205D01*
X-23949584Y-33172053D01*
X-23964422Y-33127391D01*
X-23977514Y-33082468D01*
X-23988967Y-33037531D01*
X-23998888Y-32992827D01*
X-24007383Y-32948605D01*
X-24014562Y-32905112D01*
X-24020529Y-32862595D01*
X-24025394Y-32821302D01*
X-24029262Y-32781482D01*
X-24032241Y-32743381D01*
X-24034438Y-32707248D01*
X-24035960Y-32673329D01*
X-24036915Y-32641874D01*
X-24037409Y-32613128D01*
X-24037550Y-32587341D01*
X-23651158Y-32587341D01*
X-23650807Y-32642689D01*
X-23649758Y-32695472D01*
X-23648019Y-32745741D01*
X-23645595Y-32793551D01*
X-23642493Y-32838954D01*
X-23638719Y-32882004D01*
X-23634281Y-32922753D01*
X-23629184Y-32961254D01*
X-23623435Y-32997560D01*
X-23617041Y-33031725D01*
X-23610008Y-33063801D01*
X-23602343Y-33093842D01*
X-23594052Y-33121901D01*
X-23585142Y-33148030D01*
X-23575619Y-33172282D01*
X-23565490Y-33194712D01*
X-23554761Y-33215371D01*
X-23543439Y-33234312D01*
X-23531531Y-33251590D01*
X-23519043Y-33267257D01*
X-23492352Y-33293968D01*
X-23463419Y-33314871D01*
X-23432297Y-33330391D01*
X-23399037Y-33340951D01*
X-23363693Y-33346976D01*
X-23326315Y-33348890D01*
X-23292661Y-33347470D01*
X-23259958Y-33342794D01*
X-23228379Y-33334242D01*
X-23198095Y-33321191D01*
X-23169280Y-33303020D01*
X-23142105Y-33279106D01*
X-23116744Y-33248828D01*
X-23104797Y-33231108D01*
X-23093368Y-33211564D01*
X-23082479Y-33190118D01*
X-23072151Y-33166693D01*
X-23062405Y-33141210D01*
X-23053264Y-33113592D01*
X-23044748Y-33083760D01*
X-23036880Y-33051639D01*
X-23029680Y-33017149D01*
X-23023171Y-32980213D01*
X-23017374Y-32940753D01*
X-23012311Y-32898692D01*
X-23008002Y-32853952D01*
X-23004471Y-32806454D01*
X-23001737Y-32756122D01*
X-22999823Y-32702878D01*
X-22998751Y-32646643D01*
X-22998541Y-32587341D01*
X-22998934Y-32530495D01*
X-23000101Y-32476420D01*
X-23002028Y-32425051D01*
X-23004701Y-32376326D01*
X-23008103Y-32330182D01*
X-23012220Y-32286554D01*
X-23017036Y-32245380D01*
X-23022538Y-32206597D01*
X-23028709Y-32170140D01*
X-23035535Y-32135947D01*
X-23043001Y-32103954D01*
X-23051091Y-32074099D01*
X-23059791Y-32046317D01*
X-23069086Y-32020545D01*
X-23078960Y-31996721D01*
X-23089399Y-31974780D01*
X-23100388Y-31954659D01*
X-23111911Y-31936296D01*
X-23123953Y-31919626D01*
X-23136500Y-31904587D01*
X-23163047Y-31879146D01*
X-23191432Y-31859467D01*
X-23221534Y-31845042D01*
X-23253233Y-31835367D01*
X-23286409Y-31829933D01*
X-23320942Y-31828234D01*
X-23355079Y-31829621D01*
X-23388145Y-31834205D01*
X-23419982Y-31842614D01*
X-23450436Y-31855482D01*
X-23479350Y-31873439D01*
X-23506568Y-31897116D01*
X-23531934Y-31927144D01*
X-23543874Y-31944738D01*
X-23555293Y-31964155D01*
X-23566170Y-31985476D01*
X-23576487Y-32008779D01*
X-23586224Y-32034144D01*
X-23595362Y-32061648D01*
X-23603880Y-32091371D01*
X-23611761Y-32123393D01*
X-23618983Y-32157791D01*
X-23625528Y-32194644D01*
X-23631376Y-32234032D01*
X-23636507Y-32276033D01*
X-23640902Y-32320727D01*
X-23644542Y-32368192D01*
X-23647407Y-32418507D01*
X-23649478Y-32471751D01*
X-23650735Y-32528002D01*
X-23651158Y-32587341D01*
X-24037550Y-32587341D01*
X-24037449Y-32562541D01*
X-24037137Y-32537701D01*
X-24036602Y-32512830D01*
X-24035829Y-32487939D01*
X-24034806Y-32463038D01*
X-24033519Y-32438138D01*
X-24031955Y-32413249D01*
X-24030101Y-32388382D01*
X-24027943Y-32363547D01*
X-24025469Y-32338755D01*
X-24022665Y-32314016D01*
X-24019518Y-32289341D01*
X-24016015Y-32264739D01*
X-24012142Y-32240222D01*
X-24007886Y-32215801D01*
X-24003234Y-32191484D01*
X-23998173Y-32167284D01*
X-23992689Y-32143210D01*
X-23986770Y-32119272D01*
X-23980401Y-32095482D01*
X-23973570Y-32071850D01*
X-23966264Y-32048386D01*
X-23958469Y-32025101D01*
X-23950172Y-32002005D01*
X-23941360Y-31979109D01*
X-23932020Y-31956422D01*
X-23922137Y-31933957D01*
X-23911700Y-31911722D01*
X-23900695Y-31889729D01*
X-23889108Y-31867988D01*
X-23876927Y-31846509D01*
X-23864138Y-31825303D01*
X-23842894Y-31793277D01*
X-23820171Y-31762487D01*
X-23795933Y-31733048D01*
X-23770142Y-31705075D01*
X-23742763Y-31678681D01*
X-23713759Y-31653982D01*
X-23683094Y-31631092D01*
X-23650730Y-31610125D01*
X-23616632Y-31591196D01*
X-23598922Y-31582532D01*
X-23580763Y-31574420D01*
X-23562153Y-31566875D01*
X-23543087Y-31559910D01*
X-23523560Y-31553541D01*
X-23503567Y-31547782D01*
X-23483103Y-31542647D01*
X-23462166Y-31538150D01*
X-23440749Y-31534305D01*
X-23418848Y-31531128D01*
X-23396458Y-31528631D01*
X-23373576Y-31526831D01*
X-23350197Y-31525740D01*
X-23326315Y-31525373D01*
X-23266856Y-31527566D01*
G37*
G36*
X-25629525Y-31921535D02*
G01*
X-25629525Y-31587899D01*
X-24134270Y-31587899D01*
X-24134270Y-31921535D01*
X-25136643Y-31921535D01*
X-25262672Y-31907369D01*
X-25243052Y-31926090D01*
X-25223573Y-31944742D01*
X-25204228Y-31963389D01*
X-25185013Y-31982095D01*
X-25165923Y-32000921D01*
X-25146951Y-32019932D01*
X-25128092Y-32039191D01*
X-25109341Y-32058761D01*
X-25090692Y-32078705D01*
X-25072141Y-32099087D01*
X-25053680Y-32119969D01*
X-25035306Y-32141415D01*
X-25017012Y-32163489D01*
X-24998793Y-32186253D01*
X-24980644Y-32209770D01*
X-24962559Y-32234105D01*
X-24944532Y-32259319D01*
X-24926559Y-32285477D01*
X-24908634Y-32312641D01*
X-24890750Y-32340876D01*
X-24872904Y-32370243D01*
X-24855089Y-32400807D01*
X-24837300Y-32432630D01*
X-24819532Y-32465776D01*
X-24801778Y-32500309D01*
X-24784034Y-32536290D01*
X-24766295Y-32573784D01*
X-24748553Y-32612854D01*
X-24730805Y-32653562D01*
X-24713045Y-32695973D01*
X-24695267Y-32740149D01*
X-24677466Y-32786154D01*
X-24662640Y-32825194D01*
X-24648643Y-32863107D01*
X-24635449Y-32899921D01*
X-24623033Y-32935665D01*
X-24611366Y-32970370D01*
X-24600425Y-33004062D01*
X-24590181Y-33036773D01*
X-24580609Y-33068530D01*
X-24571682Y-33099362D01*
X-24563375Y-33129299D01*
X-24555660Y-33158369D01*
X-24548512Y-33186602D01*
X-24541904Y-33214026D01*
X-24535810Y-33240671D01*
X-24530204Y-33266565D01*
X-24525059Y-33291737D01*
X-24520349Y-33316217D01*
X-24516048Y-33340033D01*
X-24512129Y-33363214D01*
X-24508567Y-33385790D01*
X-24505334Y-33407789D01*
X-24502405Y-33429240D01*
X-24499753Y-33450172D01*
X-24497353Y-33470614D01*
X-24495176Y-33490596D01*
X-24493199Y-33510146D01*
X-24489733Y-33548066D01*
X-24486746Y-33584607D01*
X-24484026Y-33620000D01*
X-24873349Y-33620000D01*
X-24875733Y-33597231D01*
X-24878139Y-33574251D01*
X-24880592Y-33551046D01*
X-24883116Y-33527597D01*
X-24885736Y-33503891D01*
X-24888478Y-33479910D01*
X-24891365Y-33455639D01*
X-24894423Y-33431062D01*
X-24897676Y-33406163D01*
X-24901149Y-33380927D01*
X-24904867Y-33355336D01*
X-24908855Y-33329375D01*
X-24913137Y-33303029D01*
X-24917739Y-33276281D01*
X-24922684Y-33249116D01*
X-24927998Y-33221517D01*
X-24933706Y-33193469D01*
X-24939832Y-33164956D01*
X-24946402Y-33135961D01*
X-24953439Y-33106469D01*
X-24960969Y-33076465D01*
X-24969016Y-33045931D01*
X-24977605Y-33014852D01*
X-24986762Y-32983213D01*
X-24996510Y-32950996D01*
X-25006875Y-32918187D01*
X-25017881Y-32884770D01*
X-25029553Y-32850728D01*
X-25041916Y-32816046D01*
X-25054995Y-32780707D01*
X-25068814Y-32744696D01*
X-25083398Y-32707997D01*
X-25099264Y-32669295D01*
X-25115345Y-32631845D01*
X-25131627Y-32595612D01*
X-25148098Y-32560562D01*
X-25164742Y-32526661D01*
X-25181546Y-32493875D01*
X-25198496Y-32462171D01*
X-25215579Y-32431514D01*
X-25232781Y-32401870D01*
X-25250088Y-32373205D01*
X-25267486Y-32345486D01*
X-25284961Y-32318677D01*
X-25302500Y-32292746D01*
X-25320090Y-32267659D01*
X-25337715Y-32243380D01*
X-25355362Y-32219877D01*
X-25373019Y-32197116D01*
X-25390670Y-32175061D01*
X-25408302Y-32153680D01*
X-25425901Y-32132938D01*
X-25443454Y-32112802D01*
X-25460946Y-32093237D01*
X-25478365Y-32074209D01*
X-25495695Y-32055685D01*
X-25512924Y-32037630D01*
X-25530038Y-32020011D01*
X-25547022Y-32002793D01*
X-25563864Y-31985942D01*
X-25580549Y-31969425D01*
X-25597063Y-31953208D01*
X-25613393Y-31937255D01*
X-25629525Y-31921535D01*
G37*
M02*
