%TF.GenerationSoftware,KiCad,Pcbnew,7.0.8*%
%TF.CreationDate,2024-01-07T19:03:19+09:00*%
%TF.ProjectId,coolpad29,636f6f6c-7061-4643-9239-2e6b69636164,rev?*%
%TF.SameCoordinates,Original*%
%TF.FileFunction,Soldermask,Top*%
%TF.FilePolarity,Negative*%
%FSLAX46Y46*%
G04 Gerber Fmt 4.6, Leading zero omitted, Abs format (unit mm)*
G04 Created by KiCad (PCBNEW 7.0.8) date 2024-01-07 19:03:19*
%MOMM*%
%LPD*%
G01*
G04 APERTURE LIST*
%ADD10C,2.250000*%
%ADD11C,2.350000*%
%ADD12C,1.600000*%
%ADD13C,1.800000*%
%ADD14C,1.700000*%
%ADD15C,4.900000*%
%ADD16C,1.524000*%
%ADD17R,1.200000X2.000000*%
%ADD18R,2.000000X1.200000*%
G04 APERTURE END LIST*
D10*
%TO.C,J1*%
X1275000Y-10470000D03*
X1275000Y-20470000D03*
D11*
X3300000Y-15470000D03*
X11900000Y-15470000D03*
D10*
X13925000Y-10470000D03*
X13925000Y-20470000D03*
D12*
X10100000Y-6740000D03*
X16330000Y-12970000D03*
X7600000Y-6740000D03*
X16330000Y-15470000D03*
D13*
X4350000Y-21220000D03*
X4350000Y-25720000D03*
D12*
X5100000Y-6740000D03*
D13*
X10850000Y-21220000D03*
X10850000Y-25720000D03*
D12*
X16330000Y-17970000D03*
%TD*%
D13*
%TO.C,SW2*%
X2250000Y-44340000D03*
D14*
X2670000Y-44340000D03*
D15*
X7750000Y-44340000D03*
D14*
X12830000Y-44340000D03*
D13*
X13250000Y-44340000D03*
%TD*%
%TO.C,SW1*%
X-16800000Y-44340000D03*
D14*
X-16380000Y-44340000D03*
D15*
X-11300000Y-44340000D03*
D14*
X-6220000Y-44340000D03*
D13*
X-5800000Y-44340000D03*
%TD*%
%TO.C,SW5*%
X26720000Y-15340000D03*
D14*
X27140000Y-15340000D03*
D15*
X32220000Y-15340000D03*
D14*
X37300000Y-15340000D03*
D13*
X37720000Y-15340000D03*
%TD*%
%TO.C,SW3*%
X21300000Y-44340000D03*
D14*
X21720000Y-44340000D03*
D15*
X26800000Y-44340000D03*
D14*
X31880000Y-44340000D03*
D13*
X32300000Y-44340000D03*
%TD*%
%TO.C,SW4*%
X-22320000Y-15340000D03*
D14*
X-21900000Y-15340000D03*
D15*
X-16820000Y-15340000D03*
D14*
X-11740000Y-15340000D03*
D13*
X-11320000Y-15340000D03*
%TD*%
D16*
%TO.C,U2*%
X62730000Y-50140000D03*
D17*
X62730000Y-51610000D03*
D16*
X60190000Y-50140000D03*
D17*
X60190000Y-51610000D03*
D16*
X57650000Y-50140000D03*
D17*
X57650000Y-51610000D03*
D16*
X55110000Y-50140000D03*
D17*
X55110000Y-51610000D03*
D16*
X52570000Y-50140000D03*
D17*
X52570000Y-51610000D03*
D16*
X50030000Y-50140000D03*
D17*
X50030000Y-51610000D03*
D16*
X47490000Y-50140000D03*
D17*
X47490000Y-51610000D03*
D16*
X44950000Y-50140000D03*
D17*
X44950000Y-51610000D03*
D16*
X42410000Y-50140000D03*
D17*
X42410000Y-51610000D03*
D16*
X42410000Y-47600000D03*
D18*
X40960000Y-47600000D03*
D16*
X42410000Y-45060000D03*
D18*
X40960000Y-45060000D03*
D16*
X42410000Y-42520000D03*
D18*
X40950000Y-42520000D03*
D16*
X42410000Y-39980000D03*
D18*
X40970000Y-39980000D03*
D16*
X42410000Y-37440000D03*
D18*
X40960000Y-37440000D03*
D17*
X42410000Y-33430000D03*
D16*
X42410000Y-34900000D03*
D17*
X44950000Y-33430000D03*
D16*
X44950000Y-34900000D03*
D17*
X47490000Y-33430000D03*
D16*
X47490000Y-34900000D03*
D17*
X50030000Y-33430000D03*
D16*
X50030000Y-34900000D03*
D17*
X52570000Y-33430000D03*
D16*
X52570000Y-34900000D03*
D17*
X55110000Y-33430000D03*
D16*
X55110000Y-34900000D03*
D17*
X57650000Y-33430000D03*
D16*
X57650000Y-34900000D03*
D17*
X60190000Y-33430000D03*
D16*
X60190000Y-34900000D03*
D17*
X62730000Y-33430000D03*
D16*
X62730000Y-34900000D03*
%TD*%
M02*
