M48
; DRILL file {KiCad 7.0.8} date 2024 January 07, Sunday 19:03:21
; FORMAT={-:-/ absolute / metric / decimal}
; #@! TF.CreationDate,2024-01-07T19:03:21+09:00
; #@! TF.GenerationSoftware,Kicad,Pcbnew,7.0.8
; #@! TF.FileFunction,Plated,1,2,PTH
FMAT,2
METRIC
; #@! TA.AperFunction,Plated,PTH,ComponentDrill
T1C0.300
; #@! TA.AperFunction,Plated,PTH,ComponentDrill
T2C0.400
; #@! TA.AperFunction,Plated,PTH,ComponentDrill
T3C0.813
; #@! TA.AperFunction,Plated,PTH,ComponentDrill
T4C1.000
; #@! TA.AperFunction,Plated,PTH,ComponentDrill
T5C1.200
; #@! TA.AperFunction,Plated,PTH,ComponentDrill
T6C1.500
; #@! TA.AperFunction,Plated,PTH,ComponentDrill
T7C1.600
%
G90
G05
T3
X42.41Y-34.9
X42.41Y-37.44
X42.41Y-39.98
X42.41Y-42.52
X42.41Y-45.06
X42.41Y-47.6
X42.41Y-50.14
X44.95Y-34.9
X44.95Y-50.14
X47.49Y-34.9
X47.49Y-50.14
X50.03Y-34.9
X50.03Y-50.14
X52.57Y-34.9
X52.57Y-50.14
X55.11Y-34.9
X55.11Y-50.14
X57.65Y-34.9
X57.65Y-50.14
X60.19Y-34.9
X60.19Y-50.14
X62.73Y-34.9
X62.73Y-50.14
T4
X5.1Y-6.74
X7.6Y-6.74
X10.1Y-6.74
X16.33Y-12.97
X16.33Y-15.47
X16.33Y-17.97
T5
X-20.63Y-12.8
X-15.11Y-41.8
X-14.28Y-10.26
X-8.76Y-39.26
X3.94Y-41.8
X4.35Y-21.22
X4.35Y-25.72
X10.29Y-39.26
X10.85Y-21.22
X10.85Y-25.72
X22.99Y-41.8
X28.41Y-12.8
X29.34Y-39.26
X34.76Y-10.26
T6
X1.275Y-10.47
X1.275Y-20.47
X13.925Y-10.47
X13.925Y-20.47
T7
X3.3Y-15.47
X11.9Y-15.47
T1
G00X-17.17Y-21.24
M15
G01X-16.47Y-21.24
M16
G05
G00X-12.17Y-9.793
M15
G01X-11.47Y-9.787
M16
G05
G00X-11.65Y-50.24
M15
G01X-10.95Y-50.24
M16
G05
G00X-6.65Y-38.793
M15
G01X-5.95Y-38.787
M16
G05
G00X7.4Y-50.24
M15
G01X8.1Y-50.24
M16
G05
G00X12.4Y-38.793
M15
G01X13.1Y-38.787
M16
G05
G00X26.45Y-50.24
M15
G01X27.15Y-50.24
M16
G05
G00X31.45Y-38.793
M15
G01X32.15Y-38.787
M16
G05
G00X31.87Y-21.24
M15
G01X32.57Y-21.24
M16
G05
G00X36.87Y-9.793
M15
G01X37.57Y-9.787
M16
G05
T2
G00X-22.22Y-19.24
M15
G01X-21.62Y-19.24
M16
G05
G00X-16.7Y-48.24
M15
G01X-16.1Y-48.24
M16
G05
G00X2.35Y-48.24
M15
G01X2.95Y-48.24
M16
G05
G00X21.4Y-48.24
M15
G01X22.0Y-48.24
M16
G05
G00X26.82Y-19.24
M15
G01X27.42Y-19.24
M16
G05
T0
M30
